<svg xmlns="http://www.w3.org/2000/svg" viewBox="0 0 26.21 24.18"><g id="Layer_2" data-name="Layer 2"><g id="Layer_1-2" data-name="Layer 1"><path d="M.17,23.29a4.85,4.85,0,0,0,2.25.89h.05a.41.41,0,0,0,.41-.41v0a16.35,16.35,0,0,0-.2-1.85l.15-.81h.39l.16.81a14.35,14.35,0,0,0-.21,1.85.41.41,0,0,0,.39.43h.07a4.89,4.89,0,0,0,2.26-.89.41.41,0,0,0,.16-.36l-.06-1a.41.41,0,0,0-.29-.37l-1.65-.49,0-.18A2.51,2.51,0,0,0,5,18.6.53.53,0,0,0,5.29,18V18A2.18,2.18,0,0,0,2.84,15.6c-1.07.05-1.56.24-1.69.65,0,0,0,.05,0,.07a1.21,1.21,0,0,0-.38.94A1.51,1.51,0,0,0,1,18.4c0,1.28.36,2.12,1,2.48l0,.17-1.66.49a.42.42,0,0,0-.29.37l-.06,1A.4.4,0,0,0,.17,23.29Zm1.38-5.71V17.3A1.36,1.36,0,0,1,1.61,17a.42.42,0,0,0,.45-.37.62.62,0,0,0,0-.13,4.59,4.59,0,0,1,.83-.1c1.05-.05,1.38.41,1.51,1.05l-.06-.06c-.3-.28-.54-.5-.84-.29a.4.4,0,0,0-.16.24A.9.9,0,0,1,3,17.1a.73.73,0,0,0-.58-.33.62.62,0,0,0-.5.39,2.12,2.12,0,0,1-.32.42Zm.27.84L2,18.29a2.92,2.92,0,0,0,.46-.53,1.44,1.44,0,0,0,1.46.38l.28.24c0,1.89-.8,1.9-1.18,1.9S1.84,20.29,1.82,18.42Zm7.23,5.76a.41.41,0,0,0,.41-.41v0a16.17,16.17,0,0,0-.2-1.84l.16-.82H9.8l.16.82a14.2,14.2,0,0,0-.21,1.84.41.41,0,0,0,.39.43h.07a4.89,4.89,0,0,0,2.26-.89.44.44,0,0,0,.17-.35l-.06-1a.41.41,0,0,0-.29-.37l-1.65-.49,0-.18a2.51,2.51,0,0,0,1-2.27.53.53,0,0,0,.28-.56V18c-.06-.69-.2-2.51-2.46-2.4-1.07.06-1.56.25-1.69.65,0,0,0,.05,0,.08a1.2,1.2,0,0,0-.38.94,1.51,1.51,0,0,0,.25,1.14c0,1.28.36,2.12,1,2.48l0,.17-1.66.49a.42.42,0,0,0-.29.37l-.06,1a.42.42,0,0,0,.17.36A4.85,4.85,0,0,0,9,24.18Zm-.91-6.6a1,1,0,0,1,0-.25v0a.93.93,0,0,1,0-.29.41.41,0,0,0,.45-.37.48.48,0,0,0,0-.12,4.6,4.6,0,0,1,.83-.11c1-.05,1.38.41,1.51,1.05l-.06-.05c-.31-.29-.54-.51-.84-.3a.51.51,0,0,0-.17.24.94.94,0,0,1-.37-.25A.74.74,0,0,0,9,16.77a.66.66,0,0,0-.49.39,1.94,1.94,0,0,1-.32.42Zm.27.84.18-.13A2.87,2.87,0,0,0,9,17.76a1.44,1.44,0,0,0,1.46.38l.29.24c0,1.9-.82,1.91-1.19,1.9s-1.18,0-1.2-1.86ZM6.11,16c1.27,0,2-.84,2-2.51a.54.54,0,0,0,.27-.56v0c-.05-.69-.19-2.51-2.44-2.39-1.08,0-1.57.24-1.69.65a.19.19,0,0,0,0,.07,1.17,1.17,0,0,0-.39.94,1.47,1.47,0,0,0,.26,1.14C4.1,15.09,4.78,16,6.11,16Zm0-.82c-.39,0-1.18,0-1.2-1.86a.86.86,0,0,0,.18-.14,2.52,2.52,0,0,0,.46-.52A1.46,1.46,0,0,0,7,13l.29.25C7.29,15.18,6.49,15.18,6.11,15.18Zm-1.46-3v0a1.5,1.5,0,0,1,.06-.29.41.41,0,0,0,.45-.37.49.49,0,0,0,0-.12A4.59,4.59,0,0,1,6,11.3c1-.05,1.38.41,1.51,1l-.06-.06c-.31-.28-.55-.5-.85-.29a.49.49,0,0,0-.16.24A.94.94,0,0,1,6.06,12a.74.74,0,0,0-.59-.33.62.62,0,0,0-.49.39,2.59,2.59,0,0,1-.32.42A2.09,2.09,0,0,1,4.65,12.22Zm4.74-1.56c1.28,0,1.95-.84,2-2.51a.54.54,0,0,0,.28-.56v0c-.07-.69-.21-2.51-2.46-2.39-1.08,0-1.57.24-1.69.65a.19.19,0,0,0,0,.07,1.17,1.17,0,0,0-.39.94A1.47,1.47,0,0,0,7.38,8C7.39,9.75,8.06,10.66,9.39,10.66Zm0-.82c-.38,0-1.17,0-1.2-1.87l.19-.13a2.87,2.87,0,0,0,.45-.53,1.44,1.44,0,0,0,1.46.38l.29.24C10.58,9.84,9.78,9.84,9.39,9.84Zm-1.45-3v0a1,1,0,0,1,0-.29.41.41,0,0,0,.45-.37.49.49,0,0,0,0-.12A4.6,4.6,0,0,1,9.26,6c1.06,0,1.39.41,1.52,1l-.06,0c-.31-.29-.55-.51-.85-.3a.49.49,0,0,0-.16.24,1,1,0,0,1-.38-.25.72.72,0,0,0-.58-.33.65.65,0,0,0-.5.39,2.07,2.07,0,0,1-.31.42A1,1,0,0,1,7.94,6.88ZM14.31,5.8a.19.19,0,0,0,0,.07,1.17,1.17,0,0,0-.39.94A1.47,1.47,0,0,0,14.16,8c0,1.8.68,2.71,2,2.71s1.95-.84,2-2.51a.54.54,0,0,0,.27-.56v0C18.39,6.85,18.26,5,16,5.15,14.92,5.2,14.43,5.39,14.31,5.8Zm1.86,4C15.79,9.84,15,9.84,15,8l.18-.14a2.48,2.48,0,0,0,.45-.52,1.47,1.47,0,0,0,1.47.37l.28.25C17.36,9.84,16.55,9.84,16.17,9.84Zm-1.45-3v0a.74.74,0,0,1,0-.29.4.4,0,0,0,.44-.37.24.24,0,0,0,0-.12A4.6,4.6,0,0,1,16,6c1.05,0,1.38.41,1.51,1l-.06,0c-.3-.29-.54-.51-.84-.3a.43.43,0,0,0-.16.24.9.9,0,0,1-.38-.25.74.74,0,0,0-.59-.33.62.62,0,0,0-.49.39,2.59,2.59,0,0,1-.32.42A2.09,2.09,0,0,1,14.72,6.88Zm-2-1.36c1.27,0,2-.84,2-2.51A.52.52,0,0,0,15,2.45V2.4A2.22,2.22,0,0,0,12.5,0c-1.08.06-1.57.25-1.69.65a.31.31,0,0,0,0,.08,1.17,1.17,0,0,0-.39.94,1.47,1.47,0,0,0,.26,1.14C10.67,4.61,11.35,5.52,12.68,5.52Zm0-.82c-.38,0-1.18,0-1.19-1.86l.18-.14a2.48,2.48,0,0,0,.45-.52,1.43,1.43,0,0,0,1.47.37,3.15,3.15,0,0,0,.28.25C13.86,4.7,13.06,4.7,12.68,4.7Zm-1.45-3v0a.7.7,0,0,1,0-.29.43.43,0,0,0,.45-.37.57.57,0,0,0,0-.13,4.59,4.59,0,0,1,.84-.11c1,0,1.38.41,1.51,1.05L14,1.82c-.31-.29-.55-.51-.85-.29a.42.42,0,0,0-.16.23,1,1,0,0,1-.38-.25A.72.72,0,0,0,12,1.18a.67.67,0,0,0-.5.39,1.83,1.83,0,0,1-.31.42A2.18,2.18,0,0,1,11.23,1.74ZM12.88,16c1.28,0,1.95-.84,2-2.51a.54.54,0,0,0,.27-.56v0c-.06-.69-.2-2.51-2.46-2.39-1.08,0-1.56.24-1.69.65,0,0,0,0,0,.07a1.2,1.2,0,0,0-.39.94,1.47,1.47,0,0,0,.26,1.14C10.88,15.09,11.56,16,12.88,16Zm0-.82c-.38,0-1.17,0-1.19-1.86l.18-.14a2.86,2.86,0,0,0,.46-.52,1.45,1.45,0,0,0,1.46.37l.28.25C14.07,15.18,13.27,15.18,12.88,15.18Zm-1.45-3v0a1,1,0,0,1,0-.29.41.41,0,0,0,.45-.37.25.25,0,0,0,0-.12,4.83,4.83,0,0,1,.84-.11c1.05-.05,1.38.41,1.51,1l-.06-.06c-.31-.28-.55-.5-.85-.29a.49.49,0,0,0-.16.24.94.94,0,0,1-.37-.25.74.74,0,0,0-.59-.33.66.66,0,0,0-.49.39,1.67,1.67,0,0,1-.32.42,2.09,2.09,0,0,1,0-.25Zm6.37-1.08a.19.19,0,0,0,0,.07,1.17,1.17,0,0,0-.39.94,1.47,1.47,0,0,0,.26,1.14c0,1.8.68,2.71,2,2.71s1.95-.84,2-2.51a.54.54,0,0,0,.27-.57v0c-.06-.69-.19-2.51-2.45-2.4C18.41,10.54,17.92,10.73,17.8,11.14Zm1.87,4c-.38,0-1.17,0-1.19-1.86l.18-.14a2.8,2.8,0,0,0,.45-.52,1.47,1.47,0,0,0,1.47.37l.28.25C20.85,15.18,20,15.18,19.67,15.18Zm-1.46-3v0a.74.74,0,0,1,.05-.29.4.4,0,0,0,.44-.37.24.24,0,0,0,0-.12,4.6,4.6,0,0,1,.83-.11c1-.05,1.38.41,1.51,1L21,12.29c-.3-.28-.55-.5-.84-.29a.51.51,0,0,0-.17.24A.94.94,0,0,1,19.6,12a.74.74,0,0,0-.59-.33.62.62,0,0,0-.49.39,2.59,2.59,0,0,1-.32.42A2.09,2.09,0,0,1,18.21,12.22Zm1.23,10.71-.06-1a.41.41,0,0,0-.3-.37l-1.65-.49,0-.18a2.53,2.53,0,0,0,1-2.27.55.55,0,0,0,.26-.56V18c-.05-.69-.19-2.51-2.44-2.39-1.08.05-1.57.24-1.69.65a.19.19,0,0,0,0,.07,1.18,1.18,0,0,0-.39.94,1.47,1.47,0,0,0,.26,1.14c0,1.29.35,2.12,1,2.49l0,.17-1.65.48a.42.42,0,0,0-.3.37l-.06,1a.45.45,0,0,0,.17.36,4.89,4.89,0,0,0,2.26.89h0a.41.41,0,0,0,.41-.41v0a14.35,14.35,0,0,0-.21-1.85l.16-.81h.38l.16.81a16.35,16.35,0,0,0-.2,1.85.4.4,0,0,0,.38.43H17a4.85,4.85,0,0,0,2.25-.89A.43.43,0,0,0,19.44,22.93Zm-4.51-5.35a1,1,0,0,1,0-.25v0A.72.72,0,0,1,15,17a.4.4,0,0,0,.44-.37.25.25,0,0,0,0-.12,4.83,4.83,0,0,1,.84-.11c1-.05,1.38.41,1.51,1.05l-.06-.05c-.3-.29-.55-.51-.84-.3a.51.51,0,0,0-.17.24.94.94,0,0,1-.37-.25.74.74,0,0,0-.59-.33.62.62,0,0,0-.49.39,2.22,2.22,0,0,1-.32.42Zm1.46,2.71c-.38,0-1.18,0-1.2-1.86a.86.86,0,0,0,.18-.14,2.52,2.52,0,0,0,.46-.52,1.46,1.46,0,0,0,1.46.37l.29.25C17.58,20.28,16.78,20.29,16.39,20.29Zm4.92-4.05a.24.24,0,0,0,0,.08,1.17,1.17,0,0,0-.39.94,1.47,1.47,0,0,0,.26,1.14c0,1.28.36,2.12,1,2.48l0,.17-1.66.49a.42.42,0,0,0-.29.37l-.06,1a.4.4,0,0,0,.17.36,4.85,4.85,0,0,0,2.25.89h.05a.41.41,0,0,0,.41-.41v0a16.35,16.35,0,0,0-.2-1.85l.16-.81h.38l.15.81a16.35,16.35,0,0,0-.2,1.85.41.41,0,0,0,.39.43h.07A4.81,4.81,0,0,0,26,23.29a.4.4,0,0,0,.17-.36l-.06-1a.41.41,0,0,0-.29-.37l-1.66-.49,0-.18a2.53,2.53,0,0,0,1-2.27.54.54,0,0,0,.29-.56V18c-.06-.69-.19-2.51-2.45-2.39C21.92,15.65,21.44,15.84,21.31,16.24Zm1.86,4.05c-.38,0-1.17,0-1.19-1.87a.83.83,0,0,0,.18-.13,2.58,2.58,0,0,0,.46-.53,1.44,1.44,0,0,0,1.46.38,3.07,3.07,0,0,0,.29.24c0,1.91-.81,1.91-1.19,1.91Zm-1.45-3v0a.71.71,0,0,1,.05-.29.42.42,0,0,0,.41-.21.38.38,0,0,0,0-.28,4.81,4.81,0,0,1,.84-.1c1.05-.06,1.38.41,1.51,1l-.06-.06c-.31-.28-.55-.51-.85-.29a.45.45,0,0,0-.16.24,1,1,0,0,1-.37-.26.74.74,0,0,0-.59-.33.65.65,0,0,0-.49.4,2.15,2.15,0,0,1-.32.41A1,1,0,0,1,21.72,17.33Z"/></g></g></svg>