<svg id="Layer_1" data-name="Layer 1" xmlns="http://www.w3.org/2000/svg" viewBox="0 0 32 32"><path d="M29.54,18.32a3.87,3.87,0,0,1,0-4.54l1-1.35a1.29,1.29,0,0,0-.65-2l-1.58-.52a3.86,3.86,0,0,1-2.67-3.67V4.59a1.29,1.29,0,0,0-1.68-1.23l-1.6.52A3.89,3.89,0,0,1,18,2.47L17,1.12A1.32,1.32,0,0,0,15.17.91a1,1,0,0,0-.21.21L14,2.47A3.89,3.89,0,0,1,9.66,3.88l-1.6-.52a1.29,1.29,0,0,0-1.62.83,1.34,1.34,0,0,0-.06.4V6.26A3.86,3.86,0,0,1,3.71,9.93l-1.58.52a1.29,1.29,0,0,0-.65,2l1,1.35a3.87,3.87,0,0,1,0,4.54l-1,1.35a1.3,1.3,0,0,0-.18,1.16,1.34,1.34,0,0,0,.83.83l1.58.51a3.86,3.86,0,0,1,2.67,3.67v1.68a1.29,1.29,0,0,0,1.68,1.22l1.59-.51A3.85,3.85,0,0,1,14,29.63L15,31a1.29,1.29,0,0,0,1.81.28A1.2,1.2,0,0,0,17,31l1-1.35a3.85,3.85,0,0,1,4.33-1.4l1.59.51a1.29,1.29,0,0,0,1.62-.82,1.39,1.39,0,0,0,.06-.4V25.84a3.86,3.86,0,0,1,2.67-3.67l1.58-.51a1.34,1.34,0,0,0,.83-.83,1.3,1.3,0,0,0-.18-1.16Zm-7.47-3.93-6.44,6.44a1.3,1.3,0,0,1-1.83,0L9.94,17a1.29,1.29,0,0,1,1.79-1.85l0,0,3,2.95,5.53-5.53a1.29,1.29,0,0,1,1.82,1.83Z"/></svg>