<svg xmlns="http://www.w3.org/2000/svg" viewBox="0 0 28.05 28.05"><g id="Layer_2" data-name="Layer 2"><g id="Layer_1-2" data-name="Layer 1"><path d="M22.41,15a2.78,2.78,0,1,1-5.55,0h0v0H14.93v2.84a.9.9,0,0,1-.9.9h-.94a1,1,0,1,0,0,1.93H14a.91.91,0,0,1,.9.91v3.74h2.84v.93a1.87,1.87,0,0,0,3.74,0v-.93h3.74V21.51h-.94a1.87,1.87,0,0,1,0-3.74h.94V14.93H22.41Z"/><path d="M10.31,19.64a2.79,2.79,0,0,1,2.78-2.78h0V14.93H10.28a.9.9,0,0,1-.9-.91v-.93a1,1,0,1,0-1.93,0h0V14a.91.91,0,0,1-.91.91H2.8v2.84H1.87a1.87,1.87,0,0,0,0,3.74H2.8v3.74H6.54v-.94a1.87,1.87,0,0,1,3.74,0v.94h2.84V22.41h0A2.78,2.78,0,0,1,10.31,19.64Z"/><path d="M26.18,6.54h-.93V2.8H21.51v.94a1.87,1.87,0,0,1-3.74,0V2.8H14.93V5.64h0a2.78,2.78,0,1,1,0,5.55h0v1.93h2.84a.9.9,0,0,1,.9.9V15a1,1,0,1,0,1.93,0V14a.91.91,0,0,1,.91-.9h3.74V10.28h.93a1.87,1.87,0,1,0,0-3.74Z"/><path d="M5.64,13.09a2.78,2.78,0,1,1,5.55,0v0h1.93V10.28a.9.9,0,0,1,.91-.9H15a1,1,0,1,0,0-1.93H14a.91.91,0,0,1-.91-.91V2.8H10.28V1.87a1.87,1.87,0,1,0-3.74,0V2.8H2.8V6.54h.94a1.87,1.87,0,0,1,0,3.74H2.8v2.84H5.64Z"/></g></g></svg>