<svg xmlns="http://www.w3.org/2000/svg" viewBox="0 0 117.94 17.68"><defs><style>.cls-1{fill:#08bd80;}.cls-2,.cls-3{fill:#2d81f7;}.cls-2{fill-rule:evenodd;}</style></defs><g id="Layer_2" data-name="Layer 2"><g id="Layer_1-2" data-name="Layer 1"><path class="cls-1" d="M25.45,9.24c0,2.2.88,3.82,3.38,3.82A4.11,4.11,0,0,0,31.69,12l.15.51c.07.22.14.37.36.37h.44a.47.47,0,0,0,.44-.37V4.84a.41.41,0,0,0-.44-.37H32a.47.47,0,0,0-.44.37v5.65A3.52,3.52,0,0,1,29,11.66c-1.24,0-2-.8-2-2.34V4.84a.41.41,0,0,0-.44-.37h-.73a.47.47,0,0,0-.44.37v4.4Z"/><path class="cls-2" d="M48.41,7.48c-2.27,0-3.52,1.18-3.52,2.79a2.64,2.64,0,0,0,2.72,2.79A3.9,3.9,0,0,0,50.32,12l.15.58c.07.22.14.3.36.3h.44a.47.47,0,0,0,.44-.37V7.78c0-2.5-.51-3.6-2.78-3.6a10.37,10.37,0,0,0-3,.51.31.31,0,0,0-.22.44l.15.52c.07.29.14.36.36.29a7.82,7.82,0,0,1,2.64-.44c1.25,0,1.47.74,1.4,2.28A6.45,6.45,0,0,0,48.41,7.48Zm-.58,4.33a1.44,1.44,0,0,1-1.54-1.47c0-1.1.88-1.68,2.12-1.68A4.22,4.22,0,0,1,50.25,9v1.69A3.43,3.43,0,0,1,47.83,11.81Z"/><path class="cls-3" d="M53.69,8.66a4.44,4.44,0,0,0,4.48,4.4,3.78,3.78,0,0,0,3.3-1.76.4.4,0,0,0-.15-.59l-.22-.15c-.22-.22-.36-.22-.66,0a3.07,3.07,0,0,1-2.34,1.1,2.9,2.9,0,0,1-2.87-3,2.92,2.92,0,0,1,2.94-3,2.51,2.51,0,0,1,2,.88c.22.15.29.37.66.07l.44-.36a.38.38,0,0,0,.07-.59,3.86,3.86,0,0,0-3.08-1.47A4.56,4.56,0,0,0,53.69,8.66Z"/><path class="cls-2" d="M67.12,7.48c-2.28,0-3.52,1.18-3.52,2.79a2.64,2.64,0,0,0,2.71,2.79A3.93,3.93,0,0,0,69,12l.14.58c.08.22.15.3.37.3H70a.47.47,0,0,0,.44-.37V7.78c0-2.5-.51-3.6-2.79-3.6a10.55,10.55,0,0,0-3,.51.31.31,0,0,0-.22.44l.15.52c0,.29.15.36.37.29a7.71,7.71,0,0,1,2.64-.44c1.25,0,1.47.74,1.39,2.28A6.42,6.42,0,0,0,67.12,7.48Zm-.59,4.33A1.45,1.45,0,0,1,65,10.34c0-1.1.88-1.68,2.13-1.68A4.16,4.16,0,0,1,69,9v1.69A3.41,3.41,0,0,1,66.53,11.81Z"/><path class="cls-2" d="M76.58,4.18a4.06,4.06,0,0,0-4.18,4.4,4.27,4.27,0,0,0,4,4.48A4.17,4.17,0,0,0,79.07,12l.15.58c.07.22.15.37.37.37H80a.47.47,0,0,0,.44-.37V.44A.41.41,0,0,0,80,.07h-.66a.47.47,0,0,0-.44.37V4.69A6.62,6.62,0,0,0,76.58,4.18Zm-.07,7.56c-1.62,0-2.57-1.47-2.57-3.08a2.73,2.73,0,0,1,2.86-3,5,5,0,0,1,2.13.51v4.18A3,3,0,0,1,76.51,11.74Z"/><path class="cls-2" d="M86.7,4.18a4.2,4.2,0,0,0-4.25,4.4A4.16,4.16,0,0,0,86.7,13a5.76,5.76,0,0,0,3.23-1c.29-.22.22-.37.07-.51l-.22-.22-.22-.22c-.14-.22-.29-.15-.51,0a.07.07,0,0,0-.07.07,4.36,4.36,0,0,1-2.13.66A3,3,0,0,1,83.92,9.1h6.3a.35.35,0,0,0,.37-.37c0-.15.07-.44.07-.59A3.81,3.81,0,0,0,86.7,4.18Zm2.5,3.6H84A2.71,2.71,0,0,1,86.7,5.43,2.68,2.68,0,0,1,89.2,7.78Z"/><path class="cls-3" d="M92.72,12.47a.41.41,0,0,0,.44.37h.66a.47.47,0,0,0,.44-.37V6.82a3.46,3.46,0,0,1,2.49-1.17c1.32,0,2.06.81,2.06,2.35v4.47a.41.41,0,0,0,.44.37H100a.47.47,0,0,0,.44-.37V8c0-.44-.07-.81-.07-1.18A3.83,3.83,0,0,1,103,5.65c1.24,0,2,.81,2,2.35v4.47a.41.41,0,0,0,.44.37h.73a.47.47,0,0,0,.44-.37V8c0-2.21-.88-3.82-3.37-3.82A5.2,5.2,0,0,0,100,5.57a3.19,3.19,0,0,0-2.79-1.39,4.11,4.11,0,0,0-2.86,1.1l-.44-.59a.33.33,0,0,0-.36-.22h-.44a.47.47,0,0,0-.44.37v7.63Z"/><path class="cls-3" d="M112.45,12.84l-1.76,4.32c-.15.3,0,.52.37.52h.8a.63.63,0,0,0,.37-.22l5.65-12.55c.15-.29,0-.51-.29-.51h-.81a.4.4,0,0,0-.37.22l-3.08,6.46L110.1,4.62a.39.39,0,0,0-.36-.22h-1c-.29,0-.44.22-.29.44Z"/><path class="cls-1" d="M35.06,12.47a.41.41,0,0,0,.44.37h.66a.47.47,0,0,0,.44-.37V6.82a4.39,4.39,0,0,1,2.79-1.17c1.25,0,2,.81,2,2.35v4.47a.41.41,0,0,0,.44.37h.73a.47.47,0,0,0,.44-.37V8c0-2.21-.88-3.82-3.37-3.82a5,5,0,0,0-3.08,1.1l-.22-.66a.4.4,0,0,0-.37-.22H35.5a.47.47,0,0,0-.44.37Z"/><path class="cls-3" d="M.15,1.69a10.67,10.67,0,0,0,10.63,8.8A10.75,10.75,0,0,0,21.42,1.83,3.33,3.33,0,0,0,21.57.66.66.66,0,0,0,20.91,0H.66A.78.78,0,0,0,0,.73H0a2.3,2.3,0,0,0,.15,1Z"/><path class="cls-1" d="M16.06,16.87a5.36,5.36,0,0,0-5.28-4.4A5.29,5.29,0,0,0,5.5,16.8a1.89,1.89,0,0,0-.07.58.31.31,0,0,0,.29.3h10a.27.27,0,0,0,.29-.3h0Z"/></g></g></svg>