<svg xmlns="http://www.w3.org/2000/svg" xmlns:xlink="http://www.w3.org/1999/xlink" viewBox="0 0 117.98 31.17"><defs><style>.cls-1,.cls-14{fill:none;}.cls-2,.cls-7,.cls-8,.cls-9{stroke:#fcd109;}.cls-10,.cls-11,.cls-12,.cls-2,.cls-3,.cls-4,.cls-5,.cls-6,.cls-7,.cls-8,.cls-9{stroke-width:0.09px;}.cls-2{fill:url(#linear-gradient);}.cls-3{fill:#f8f3b5;stroke:#f8f3b5;}.cls-4{fill:#f7b402;stroke:#f7b402;}.cls-5{fill:#bda727;stroke:#bda727;}.cls-6{fill:#f7e62d;stroke:#f7e62d;}.cls-7{fill:url(#radial-gradient);}.cls-8{fill:url(#linear-gradient-2);}.cls-9{fill:url(#linear-gradient-3);}.cls-10{fill:#0d69b3;stroke:#0d69b3;}.cls-11,.cls-15{fill:#107bd4;stroke:#107bd4;}.cls-12{fill:#fff;stroke:#fff;}.cls-13{clip-path:url(#clip-path);}.cls-14{stroke:#d1d1d1;stroke-width:2px;}.cls-15{stroke-width:0.1px;}</style><linearGradient id="linear-gradient" x1="-1486.31" y1="-560.4" x2="-1486.31" y2="-534.58" gradientTransform="translate(1588.57 565.7)" gradientUnits="userSpaceOnUse"><stop offset="0" stop-color="#f7e830"/><stop offset="1" stop-color="#fdcb06"/></linearGradient><radialGradient id="radial-gradient" cx="-1486.45" cy="-548.62" r="21" gradientTransform="translate(1588.57 565.7)" gradientUnits="userSpaceOnUse"><stop offset="0.6" stop-color="#f29405"/><stop offset="0.74" stop-color="#f7d01e"/><stop offset="1" stop-color="#fdcb06"/></radialGradient><linearGradient id="linear-gradient-2" x1="-1479.13" y1="-559.47" x2="-1479.12" y2="-558.24" gradientTransform="translate(1588.57 565.7)" gradientUnits="userSpaceOnUse"><stop offset="0" stop-color="#fada1c"/><stop offset="1" stop-color="#fdcb06"/></linearGradient><linearGradient id="linear-gradient-3" x1="4050.86" y1="-559.53" x2="4050.87" y2="-558.3" gradientTransform="matrix(-1, 0, 0, 1, 4145.93, 565.7)" xlink:href="#linear-gradient-2"/><clipPath id="clip-path"><path class="cls-1" d="M109.45,6.83a.4.4,0,0,1,0-.22h0a.5.5,0,0,0-.42-.39c-.16,0-.36,0-.45.14s-.09.54-.1.81v.07a3.17,3.17,0,0,1-.05.53.33.33,0,0,0,0,.17,4.11,4.11,0,0,1-.43,1.2.34.34,0,0,0-.08.17,6.87,6.87,0,0,1-.45.65.23.23,0,0,0-.07.07,4.44,4.44,0,0,1-.37.38l-.08.06a2.63,2.63,0,0,1-.49.39.18.18,0,0,0-.07.05,7.75,7.75,0,0,1-7.11.37l-.08,0a5.05,5.05,0,0,1-.51-.28l-.11-.06a4.73,4.73,0,0,1-.46-.32,1.58,1.58,0,0,0-.15-.12,4.58,4.58,0,0,1-.46-.42l-.1-.11a4.29,4.29,0,0,1-1.05-1.76,5.34,5.34,0,0,1-.19-1.64.58.58,0,0,0-.75-.23c-.11.08-.13.22-.21.32a5.13,5.13,0,0,0,1.47,3.94.07.07,0,0,0,0,.07l.52.49.11.09c.17.14.36.28.55.41a.41.41,0,0,0,.11.07,5.24,5.24,0,0,0,.73.41l.06,0a8,8,0,0,0,2.66.76l.3,0c.44,0,.88,0,1.32,0a7.89,7.89,0,0,0,3.89-1.25l0,0a.43.43,0,0,1,.1-.09c.18-.13.35-.27.53-.42l.12-.1a5.09,5.09,0,0,0,.58-.65l0,0a.26.26,0,0,1,.05-.09c.15-.2.28-.41.42-.63l0,0v0l0-.07a5.11,5.11,0,0,0,.54-1.55.08.08,0,0,0,0-.07,3.15,3.15,0,0,0,0-.52,2.93,2.93,0,0,0,0-.66Z"/></clipPath></defs><g id="Layer_2" data-name="Layer 2"><g id="Layer_1-2" data-name="Layer 1"><path class="cls-2" d="M117.91,5.43l0-.13H86.65a.31.31,0,0,0-.05.1V29.61a2,2,0,0,0,.62,1.12h.06a1.4,1.4,0,0,0,.61.33,3.91,3.91,0,0,0,.48.05h12.92a1.16,1.16,0,0,0,.37,0s0-.05,0-.07,0-.07,0-.09c.27-1.55.54-3.1.84-4.65l0-.2H99a8.64,8.64,0,0,1-.88,0c-.49,0-1,0-1.49-.05s-1.23-.06-1.84-.06-1,0-1.46-.05c-.32,0-.64,0-1,0-.52-.06-1.06,0-1.58-.08s-1.11,0-1.66-.06c0,0,0,0,0,0h.55c.41-.06.82,0,1.23-.08s.85-.06,1.27-.06.76,0,1.14-.07.88-.06,1.32-.06.74,0,1.1-.07.85-.06,1.28-.06.84,0,1.26-.08c0-.16-.07-.32-.11-.49s-.15-.08-.23-.09l-2.85-.4c.06,0,.14,0,.21,0L97.48,24,98,24a7,7,0,0,0-.22-.69c-1.58-.24-3.16-.46-4.73-.71.41-.07.82-.1,1.23-.14l0,0c1.3-.13,2.61-.29,3.92-.42h5s.15,0,.15-.05c.14-.71.27-1.43.41-2.14a10.69,10.69,0,0,1,1-2.86,8.42,8.42,0,0,1,3.27-3.5,9.42,9.42,0,0,1,4.31-1.2,6.57,6.57,0,0,1,1.47,0,2,2,0,0,1,.89.38,1.41,1.41,0,0,1,.42.65,10.3,10.3,0,0,1,.41,1.81,1.33,1.33,0,0,1-.08.74.92.92,0,0,1-.6.39c-.85.22-1.74,0-2.58.22a3.18,3.18,0,0,0-1.8,1.1,5.09,5.09,0,0,0-1,2.26c-.12.72-.27,1.45-.39,2.17h2.52a.89.89,0,0,1,.81.51,2.52,2.52,0,0,1,.08,1.28,4.88,4.88,0,0,1-.4,1.4,1.56,1.56,0,0,1-.89.84,1.64,1.64,0,0,1-.66.07c-.74,0-1.48,0-2.22,0-.12.54-.19,1.09-.3,1.64-.19,1.07-.38,2.14-.58,3.21v.15c.34,0,.69,0,1,0h7.73a1.58,1.58,0,0,0,.8-.19c.14,0,.23-.18.36-.25s.16-.22.26-.31a1.29,1.29,0,0,0,.24-.65h.07Q117.91,17.56,117.91,5.43Z"/><path class="cls-3" d="M90.7.11A5.48,5.48,0,0,1,91.85.05h21.52a3.39,3.39,0,0,1,1.19.35c.32.12.65.22,1,.36a.65.65,0,0,1,.16.13c0,.58,0,1.17,0,1.75a1.43,1.43,0,0,0,0,.46.48.48,0,0,1,.2.14,5.28,5.28,0,0,1,.8.53c.4.28.82.52,1.2.81a.64.64,0,0,1,0,.34,1.62,1.62,0,0,0,0,.38H86.65a1.46,1.46,0,0,0,0-.42c0-.12,0-.27.06-.35.44-.3.91-.58,1.34-.91l.78-.52a.59.59,0,0,0,0-.29V.9c.15-.2.41-.22.62-.32L90.7.11m0,.08L89,.83c-.07,0-.11.08-.15.13s0,.1,0,.13c0,.53,0,1.06,0,1.59a1.2,1.2,0,0,0,0,.38l-.19.16c-.64.41-1.25.86-1.89,1.27-.11.06-.23.15-.2.29s0,.15.1.13c1.38,0,2.76,0,4.14,0,2.05,0,4.1,0,6.15,0h0a1.29,1.29,0,0,0,.28,0c3.72,0,7.43,0,11.16,0,1.16,0,2.34,0,3.51,0,1.93,0,3.87,0,5.8,0q.09,0,.06-.12c0-.07,0-.17-.06-.21-.3-.15-.57-.37-.86-.55a1.11,1.11,0,0,1-.32-.25c-.3-.17-.59-.38-.88-.57a.67.67,0,0,1-.15-.14,1.43,1.43,0,0,0,0-.29V1.09a.24.24,0,0,0-.07-.24L114,.26a2.23,2.23,0,0,0-.52-.15H91a2.29,2.29,0,0,0-.28.08Z"/><path class="cls-4" d="M88.89,1.09c.39.17.8.26,1.19.42.21.08.28.31.37.49a1.43,1.43,0,0,1-.31.24c-.41.27-.82.54-1.22.82a1.2,1.2,0,0,1,0-.38C88.89,2.15,88.88,1.62,88.89,1.09Zm25.55.42c.39-.16.8-.26,1.19-.42V2.77a1.43,1.43,0,0,1,0,.29l-1-.7a4.2,4.2,0,0,1-.5-.36c.09-.19.17-.41.38-.49Z"/><path class="cls-5" d="M95.59,1.69a.82.82,0,0,1,1,.82.84.84,0,0,1-1,.79,1,1,0,0,1-.5-.34.82.82,0,0,1-.06-.8.76.76,0,0,1,.57-.47ZM108.13,2a.84.84,0,0,1,.82-.27.86.86,0,0,1,.54.43.85.85,0,0,1-.33,1.09.88.88,0,0,1-1-.17A.86.86,0,0,1,108.13,2Z"/><path class="cls-6" d="M90.14,2.24A1.43,1.43,0,0,0,90.45,2l0,0c0,.23,0,.47,0,.69,0,.69,0,1.38,0,2.06H86.64c0-.14.09-.23.2-.29.64-.41,1.25-.86,1.89-1.27l.19-.16C89.32,2.78,89.73,2.51,90.14,2.24ZM114,2.15a.28.28,0,0,1,0-.15,4.2,4.2,0,0,0,.5.36l1,.7a.67.67,0,0,0,.15.14c.29.19.57.4.88.57A1.11,1.11,0,0,0,117,4c.29.18.56.4.86.55.08,0,0,.14.06.21H114a4.52,4.52,0,0,1,0-.52c0-.7,0-1.4,0-2.11Z"/><path class="cls-7" d="M117.87,4.78H114a4.52,4.52,0,0,1,0-.52c0-.7,0-1.4,0-2.11a.28.28,0,0,1,0-.15c.09-.19.17-.41.38-.49.39-.16.8-.26,1.19-.42a.24.24,0,0,0-.07-.24L114,.26a2.23,2.23,0,0,0-.52-.15H91a2.29,2.29,0,0,0-.28.08L89,.83c-.07,0-.11.08-.15.13s0,.1,0,.13c.39.17.8.26,1.19.42.21.08.28.31.37.49l0,0c0,.23,0,.47,0,.69,0,.69,0,1.38,0,2.06H86.64c0,.08,0,.15.1.13,1.38,0,2.76,0,4.14,0,2.05,0,4.1,0,6.15,0h0a1.29,1.29,0,0,0,.28,0c3.72,0,7.43,0,11.16,0,1.16,0,2.34,0,3.51,0,1.93,0,3.87,0,5.8,0q.09,0,.06-.12ZM95,2.16a.76.76,0,0,1,.57-.47.82.82,0,0,1,1,.82.84.84,0,0,1-1,.79,1,1,0,0,1-.5-.34.82.82,0,0,1-.06-.8ZM108.13,2a.84.84,0,0,1,.82-.27.86.86,0,0,1,.54.43.85.85,0,0,1-.33,1.09.88.88,0,0,1-1-.17A.86.86,0,0,1,108.13,2Z"/><path class="cls-8" d="M109.25,6.71c.06,0-.32-.37-.25-.38s.34-.2.66,0,.24.56.21.71a.86.86,0,0,1-.25.37.41.41,0,0,1-.22.1c0-.22-.09-.25-.1-.47Z"/><path class="cls-9" d="M95.2,7c0,.22-.13.25-.09.47a.48.48,0,0,1-.23-.1A.85.85,0,0,1,94.64,7c0-.15-.12-.54.21-.71s.59,0,.66,0-.31.4-.25.38L95.2,7Z"/><path class="cls-5" d="M108.67,9.53a.24.24,0,0,1,.2-.06,10.22,10.22,0,0,1-2.07,3.17l-.31.25-.31.22-.3.22a4.15,4.15,0,0,1-.75.4,6.38,6.38,0,0,1-1.6.52,3.51,3.51,0,0,1-.65.09,3.41,3.41,0,0,1-.84,0c-.16,0-.29-.06-.44,0l-.39-.07-.39-.09a6.71,6.71,0,0,1-4.56-4.24,2.09,2.09,0,0,1,0-.43c.06.13.12.25.19.37a6.43,6.43,0,0,0,4.36,3.61,4.68,4.68,0,0,0,.48.11,1.36,1.36,0,0,1,.4,0H103a1,1,0,0,0,.18,0,5.75,5.75,0,0,0,2.19-.55l.4-.2a2.33,2.33,0,0,0,.34-.2,3.62,3.62,0,0,0,.32-.22,7.18,7.18,0,0,0,2-2.44C108.52,9.83,108.6,9.67,108.67,9.53Z"/><path class="cls-10" d="M108,13.43a9.42,9.42,0,0,1,4.31-1.2,6.57,6.57,0,0,1,1.47,0,2,2,0,0,1,.89.38,2.53,2.53,0,0,1-.38-.07,6.7,6.7,0,0,0-1.1-.05,11.56,11.56,0,0,0-3.15.37,7.5,7.5,0,0,0-1.56.63,8,8,0,0,0-2.22,1.82,9.57,9.57,0,0,0-2,4.49c-.15.88-.32,1.75-.46,2.62a4.85,4.85,0,0,1-.66,0h-2.9c-.21,0-.41,0-.62,0H94.26l0,0c1.3-.13,2.61-.29,3.92-.42h5s.15,0,.15-.05c.14-.71.27-1.43.41-2.14a10.69,10.69,0,0,1,1-2.86A8.42,8.42,0,0,1,108,13.43Z"/><path class="cls-11" d="M110,12.89a11.56,11.56,0,0,1,3.15-.37,6.7,6.7,0,0,1,1.1.05,2.53,2.53,0,0,0,.38.07,1.41,1.41,0,0,1,.42.65,10.3,10.3,0,0,1,.41,1.81,1.33,1.33,0,0,1-.08.74.92.92,0,0,1-.6.39c-.85.22-1.74,0-2.58.22a3.18,3.18,0,0,0-1.8,1.1,5.09,5.09,0,0,0-1,2.26c-.12.72-.27,1.45-.39,2.17a4.19,4.19,0,0,0-.11.51h2.49c.32,0,.63,0,1,0a2.52,2.52,0,0,1,.08,1.28,4.88,4.88,0,0,1-.4,1.4,1.56,1.56,0,0,1-.89.84,1.64,1.64,0,0,1-.66.07c-.74,0-1.48,0-2.22,0-.12.54-.19,1.09-.3,1.64-.19,1.07-.38,2.14-.58,3.21v.15h-5.76s0-.05,0-.07,0-.07,0-.09,0,.1,0,.13.33.07.36-.1c.3-1.62.58-3.24.89-4.86a.77.77,0,0,0-.37,0,1.21,1.21,0,0,1,0,.18l0-.2H99a8.64,8.64,0,0,1-.88,0c-.49,0-1,0-1.49-.05s-1.23-.06-1.84-.06-1,0-1.46-.05c-.32,0-.64,0-1,0-.52-.06-1.06,0-1.58-.08s-1.11,0-1.66-.06c0,0,0,0,0,0l.55,0c.41-.05.82,0,1.23-.07s.85-.06,1.27-.06.76,0,1.14-.07.88-.06,1.32-.06.74,0,1.1-.07.85-.06,1.28-.06.84,0,1.26-.08c0-.16-.07-.32-.11-.49s-.15-.08-.23-.09l-2.85-.4c.06,0,.14,0,.21,0L97.48,24,98,24a7,7,0,0,0-.22-.69c-1.58-.24-3.16-.46-4.73-.71.41-.07.82-.1,1.23-.14h5.27c.21,0,.41,0,.62,0h2.9a4.85,4.85,0,0,0,.66,0c.14-.87.31-1.74.46-2.62a9.49,9.49,0,0,1,2.06-4.49,7.77,7.77,0,0,1,2.21-1.82A7.5,7.5,0,0,1,110,12.89Z"/><path class="cls-10" d="M109.06,22h2.52a.89.89,0,0,1,.81.51c-.32,0-.63,0-1,0H109a4.19,4.19,0,0,1,.11-.51Zm-6.48,4.12a.77.77,0,0,1,.37,0c-.31,1.62-.59,3.24-.89,4.86,0,.17-.24.11-.36.1s0-.1,0-.13c.27-1.55.54-3.1.84-4.65a1.21,1.21,0,0,0,0-.18Z"/><path class="cls-12" d="M109.45,6.83a.4.4,0,0,1,0-.22h0a.5.5,0,0,0-.42-.39c-.16,0-.36,0-.45.14s-.09.54-.1.81v.07a3.17,3.17,0,0,1-.05.53.33.33,0,0,0,0,.17,4.11,4.11,0,0,1-.43,1.2.34.34,0,0,0-.08.17,6.87,6.87,0,0,1-.45.65.23.23,0,0,0-.07.07,4.44,4.44,0,0,1-.37.38l-.08.06a2.63,2.63,0,0,1-.49.39.18.18,0,0,0-.07.05,7.75,7.75,0,0,1-7.11.37l-.08,0a5.05,5.05,0,0,1-.51-.28l-.11-.06a4.73,4.73,0,0,1-.46-.32,1.58,1.58,0,0,0-.15-.12,4.58,4.58,0,0,1-.46-.42l-.1-.11a4.29,4.29,0,0,1-1.05-1.76,5.34,5.34,0,0,1-.19-1.64.58.58,0,0,0-.75-.23c-.11.08-.13.22-.21.32a5.13,5.13,0,0,0,1.47,3.94.07.07,0,0,0,0,.07l.52.49.11.09c.17.14.36.28.55.41a.41.41,0,0,0,.11.07,5.24,5.24,0,0,0,.73.41l.06,0a8,8,0,0,0,2.66.76l.3,0c.44,0,.88,0,1.32,0a7.89,7.89,0,0,0,3.89-1.25l0,0a.43.43,0,0,1,.1-.09c.18-.13.35-.27.53-.42l.12-.1a5.09,5.09,0,0,0,.58-.65l0,0a.26.26,0,0,1,.05-.09c.15-.2.28-.41.42-.63l0,0v0l0-.07a5.11,5.11,0,0,0,.54-1.55.08.08,0,0,0,0-.07,3.15,3.15,0,0,0,0-.52,2.93,2.93,0,0,0,0-.66Z"/><g class="cls-13"><path class="cls-14" d="M94.75,6.69c.36.11,1.18-.17,1.41.08m-1.2,1c.34-.12,1.07-.4,1.37-.23m-1,1.31c.16.06.49-.23.65-.32a2.57,2.57,0,0,1,.75-.26M95.84,10a2.29,2.29,0,0,1,.62-.62c.24-.17.91-.62,1.19-.47m-1.32,1.91c.2-.16.28-.43.48-.59a3.77,3.77,0,0,1,.87-.35m-.52,1.54c.06-.42.49-.93.9-.9M97.8,12c.22,0,.4-.51.55-.68a1.48,1.48,0,0,1,.74-.41m0,1.61c0-.3.3-1.19.67-1.14m.27,1.44c0-.37.17-1.46.61-1.5m.35,2.08a1.9,1.9,0,0,1,.32-1.61m.88,1.73c0-.42-.46-1.28,0-1.61m1.29,1.32a2.42,2.42,0,0,1-.23-1.41m1.46,1.2a2.76,2.76,0,0,1-.4-.87c0-.2,0-.47,0-.62m1.44,1a1.54,1.54,0,0,1-.33-1.37m1.32.93a3.47,3.47,0,0,1-.5-1.49m1.47.56c-.37-.25-.85-.71-.79-1.21m1.81.41a3.15,3.15,0,0,1-1.58-1.08m2,.12c-.4-.09-1.75-.61-1.67-1.14m2.11.11a5.83,5.83,0,0,1-1.84-.79m2.13-.14a6.09,6.09,0,0,1-1.23-.21c-.4-.07-.77-.2-1.17-.29m2.05-.41a5.25,5.25,0,0,1-2-.41"/></g><path class="cls-15" d="M21.37,8.71A2.52,2.52,0,0,1,23.28,9a1.27,1.27,0,0,1,.43,1.12,1.91,1.91,0,0,1-.89,1.74,3,3,0,0,1-1.75.25,1.34,1.34,0,0,1-1-.62,2,2,0,0,1,1.3-2.73Zm-19,.76a.76.76,0,0,1,.73-.68c2.78,0,5.54,0,8.3,0a.8.8,0,0,1,.77.38c.21.36,0,.75,0,1.13s-.06,1.17-.65,1.37c-2,.06-4,0-6.05,0-.19,1.27-.37,2.53-.57,3.79,0,0,0,.16,0,.21H9.3a.74.74,0,0,1,.8.75c0,.45-.13.88-.19,1.33a.78.78,0,0,1-.6.63c-1.64,0-3.31,0-5,0-.26,1.81-.58,3.63-.85,5.44a.75.75,0,0,1-.69.68c-.68,0-1.37,0-2,0a.73.73,0,0,1-.69-.9Q1.18,16.56,2.32,9.47Zm12.2-.65c.63-.05,1.27,0,1.89,0a.77.77,0,0,1,.8.68,7.4,7.4,0,0,1-.12.93c-.5,3.22-1,6.44-1.52,9.66a3.92,3.92,0,0,0-.05,1.6c.18.53,1,.3,1.18.85a4,4,0,0,1-.05,1.37c0,.6-.72.73-1.19.87a3.19,3.19,0,0,1-3-.8A2.81,2.81,0,0,1,12,21.71c.64-4.09,1.28-8.17,1.93-12.27a.71.71,0,0,1,.58-.62Zm23.85.65a.76.76,0,0,1,.72-.68h1.82a.76.76,0,0,1,.72.92c-.42,2.66-.85,5.33-1.27,8a2.8,2.8,0,0,0,1.8-.74A11.12,11.12,0,0,0,44,14.14c.15-.4.24-1,.75-1.05.69,0,1.39,0,2.07,0a.72.72,0,0,1,.66.95,8.47,8.47,0,0,1-.79,1.79A13.69,13.69,0,0,1,44.19,19c.45,1.33,1,2.63,1.51,3.94.14.43.49.94.16,1.36s-1.07.25-1.58.31-1.32.21-1.62-.4c-.57-1.31-1-2.65-1.61-4a8.66,8.66,0,0,1-1,0,1.14,1.14,0,0,0-.1.19q-.27,1.8-.57,3.6a.72.72,0,0,1-.61.57c-.63,0-1.28,0-1.93,0a.75.75,0,0,1-.65-.42,1.3,1.3,0,0,1,0-.78q1.11-7,2.21-13.91Zm33.38,1.31a.75.75,0,0,1,.74-.56c.48,0,1,0,1.47,0a.71.71,0,0,1,.66.79c-.07.68-.24,1.37-.29,2.05h1.42a.74.74,0,0,1,.7.84c-.06.38-.15.74-.21,1.11a.78.78,0,0,1-.62.61c-.58,0-1.14,0-1.71,0-.24,1.61-.5,3.22-.76,4.83a1.69,1.69,0,0,0,.16,1.11c.32.4.89.26,1.35.3a.79.79,0,0,1,.52.87c-.06.41-.07.81-.16,1.21s-.66.53-1.06.64a4.16,4.16,0,0,1-3.33-.35,3,3,0,0,1-.95-2.81c.25-1.95.65-3.88.87-5.84-.34,0-.75.06-1-.24s-.14-.74-.1-1.12.06-.91.5-1.13a5.1,5.1,0,0,1,1.11-.08c.23-.77.45-1.54.69-2.29ZM65,14.67A6.61,6.61,0,0,1,67.68,13a.76.76,0,0,1,1,.69c-.08.66-.24,1.31-.35,2a.75.75,0,0,1-.65.63,5.72,5.72,0,0,0-3,1.76c-.21.25-.51.49-.54.84l-.78,5a.75.75,0,0,1-.72.69H60.83a.75.75,0,0,1-.74-.82c.52-3.33,1-6.64,1.57-10a.73.73,0,0,1,.61-.7c.45,0,.89,0,1.35,0a.72.72,0,0,1,.69.7c0,.52,0,1-.06,1.57a5.74,5.74,0,0,0,.71-.68Zm-44.9-1.53a14.41,14.41,0,0,1,2-.06.74.74,0,0,1,.83.57,4,4,0,0,1-.08,1q-.75,4.63-1.47,9.26a.74.74,0,0,1-.7.69c-.64,0-1.29,0-1.95,0a.76.76,0,0,1-.6-.92c.51-3.2,1-6.4,1.52-9.61A1,1,0,0,1,20.06,13.14Zm38.87.16a19.07,19.07,0,0,0-5.43-.4,6.29,6.29,0,0,0-4.25,2.27,8.37,8.37,0,0,0-1.54,6.3,4.3,4.3,0,0,0,1.48,2.75,3.68,3.68,0,0,0,2.82.54,6.85,6.85,0,0,0,3.43-2.09c0,.41,0,.81,0,1.21a.76.76,0,0,0,.74.7h1.22a.75.75,0,0,0,.69-.69c.51-3.25,1-6.5,1.53-9.74a.76.76,0,0,0-.66-.85ZM55.56,19a9.45,9.45,0,0,1-1.91,2.41,2,2,0,0,1-1.58.61c-.57-.12-.85-.72-1-1.23a5.28,5.28,0,0,1,.73-4,2.6,2.6,0,0,1,1.5-1.12,5.22,5.22,0,0,1,2.66.14l.05,0c-.11,1-.32,2.08-.47,3.13ZM35.35,17.15a5,5,0,0,0-1.17-3.36,3.06,3.06,0,0,0-2.29-.95,5.46,5.46,0,0,0-3.72,1.55c-.23.18-.38.45-.64.59,0-.4,0-.79,0-1.2a.72.72,0,0,0-.7-.7H25.64a.77.77,0,0,0-.73.71c-.75,4.81-1.52,9.61-2.28,14.42a.74.74,0,0,0,.74.88,16.82,16.82,0,0,0,2,0c.53-.15.52-.76.6-1.2.2-1.06.33-2.12.45-3.19,2.36.46,5.12.15,6.88-1.64a8.33,8.33,0,0,0,2-5.87ZM32,18.37a4.81,4.81,0,0,1-1.24,3c-1,.95-2.51.82-3.73.5a1.09,1.09,0,0,1-.08-.15c.2-1,.29-2.1.53-3.13a7.42,7.42,0,0,1,2.66-2.84,1.12,1.12,0,0,1,1.33.24A3.37,3.37,0,0,1,32,18.37Z"/></g></g></svg>