<svg xmlns="http://www.w3.org/2000/svg" viewBox="0 0 8.78 10.97"><g id="Layer_2" data-name="Layer 2"><g id="Layer_1-2" data-name="Layer 1"><path d="M8.75,6.2A.22.22,0,0,0,8.51,6H7.13V.27A.29.29,0,0,0,6.86,0a.72.72,0,0,0-.63.38C6.12.52,6.09.55,6,.55S6,.52,5.85.38A.78.78,0,0,0,5.21,0a.76.76,0,0,0-.63.38c-.11.14-.13.17-.19.17S4.31.52,4.2.38A.76.76,0,0,0,3.57,0a.76.76,0,0,0-.63.38c-.11.14-.14.17-.2.17s-.08,0-.19-.17A.72.72,0,0,0,1.92,0a.29.29,0,0,0-.27.27V6H.28A.24.24,0,0,0,0,6.2a.24.24,0,0,0,.05.3L4.2,10.89a.27.27,0,0,0,.38,0L8.7,6.5A.24.24,0,0,0,8.75,6.2ZM4.39,10.29.91,6.58h1a.29.29,0,0,0,.28-.27V.82a.66.66,0,0,0,.54.28A.76.76,0,0,0,3.38.71c.11-.13.13-.16.19-.16s.08,0,.19.16A.7.7,0,0,0,5,.71c.11-.13.14-.16.19-.16s.09,0,.2.16A.75.75,0,0,0,6,1.1.68.68,0,0,0,6.59.82V6.31a.28.28,0,0,0,.27.27h1Z"/><path d="M5.35,5.49A.69.69,0,1,1,6,4.8.68.68,0,0,1,5.35,5.49Zm0-.83a.14.14,0,1,0,.14.14A.14.14,0,0,0,5.35,4.66ZM3.43,3.57a.69.69,0,1,1,.69-.69A.69.69,0,0,1,3.43,3.57Zm0-.83a.14.14,0,1,0,.14.14A.14.14,0,0,0,3.43,2.74ZM3,5.49a.23.23,0,0,1-.19-.09.26.26,0,0,1,0-.38L5.57,2.28A.27.27,0,0,1,6,2.66L3.21,5.4A.23.23,0,0,1,3,5.49Z"/></g></g></svg>