<svg xmlns="http://www.w3.org/2000/svg" viewBox="0 0 31.24 6.66"><g id="Layer_2" data-name="Layer 2"><g id="Layer_1-2" data-name="Layer 1"><path d="M5.61,4.2a.24.24,0,0,0-.07.2l.23,2a.23.23,0,0,1-.23.26s-.06,0-.1,0l-1.8-.86a.14.14,0,0,0-.1,0l-.1,0-1.8.86a.14.14,0,0,1-.1,0c-.13,0-.27-.13-.23-.26l.23-2c0-.07,0-.13-.1-.17L.06,2.76a.25.25,0,0,1,.13-.4l2-.39a.19.19,0,0,0,.17-.1l1-1.74A.2.2,0,0,1,3.51,0,.25.25,0,0,1,3.7.13l1,1.74s.1.1.16.1l2,.39c.17,0,.26.26.17.36Z"/><path d="M13.65,4.23a.24.24,0,0,0-.07.2l.23,2a.23.23,0,0,1-.23.26s-.06,0-.1,0l-1.8-.86a.13.13,0,0,0-.1,0l-.1,0-1.8.86a.14.14,0,0,1-.1,0,.23.23,0,0,1-.23-.26l.23-2a.53.53,0,0,0-.07-.2L8.13,2.76a.25.25,0,0,1,.14-.4l2-.39a.18.18,0,0,0,.17-.1l1-1.74a.21.21,0,0,1,.2-.13.27.27,0,0,1,.2.13l1,1.74a.29.29,0,0,0,.17.1l2,.39a.24.24,0,0,1,.14.4Z"/><path d="M21.72,4.23a.24.24,0,0,0-.07.2l.23,2a.23.23,0,0,1-.23.26s-.06,0-.09,0l-1.81-.86a.12.12,0,0,0-.1,0s-.06,0-.1,0l-1.8.86a.13.13,0,0,1-.1,0,.23.23,0,0,1-.23-.26l.23-2a.51.51,0,0,0-.06-.2L16.21,2.76a.24.24,0,0,1,.13-.4l2-.39a.17.17,0,0,0,.16-.1l1-1.74A.19.19,0,0,1,19.65,0a.25.25,0,0,1,.2.13l1,1.74s.1.1.17.1l2,.39a.24.24,0,0,1,.13.4Z"/><path d="M29.79,4.23a.26.26,0,0,0-.06.2l.23,2a.23.23,0,0,1-.23.26l-.1,0-1.81-.86a.11.11,0,0,0-.09,0s-.07,0-.1,0l-1.81.86a.12.12,0,0,1-.1,0,.23.23,0,0,1-.23-.26l.23-2a.51.51,0,0,0-.06-.2L24.28,2.76a.25.25,0,0,1,.13-.4l2-.39a.16.16,0,0,0,.16-.1l1-1.74a.2.2,0,0,1,.2-.13.25.25,0,0,1,.19.13l1,1.74s.1.1.16.1l2,.39a.23.23,0,0,1,.13.4Z"/></g></g></svg>