<svg xmlns="http://www.w3.org/2000/svg" viewBox="0 0 30.18 30.18"><g id="Layer_2" data-name="Layer 2"><g id="Layer_1-2" data-name="Layer 1"><path d="M26.59,7.19A3.6,3.6,0,1,0,23,3.59,3.6,3.6,0,0,0,26.59,7.19Zm0-5.75a2.16,2.16,0,1,1-2.16,2.15A2.15,2.15,0,0,1,26.59,1.44Zm-15.81,23H10a5,5,0,1,0,0,1.44h.79a.72.72,0,1,0,0-1.44ZM5,28.74a3.59,3.59,0,1,1,3.59-3.59A3.59,3.59,0,0,1,5,28.74Zm25.15-8.31v.41A5.3,5.3,0,0,1,30,22a.72.72,0,0,1-.7.55l-.17,0a.73.73,0,0,1-.53-.87,3.47,3.47,0,0,0,.1-.85v-.41a.72.72,0,0,1,1.44,0Zm-1.8,3.35a.71.71,0,0,1-.12,1,4.72,4.72,0,0,1-1.46.8.67.67,0,0,1-.24,0,.72.72,0,0,1-.68-.48.71.71,0,0,1,.45-.91,3.66,3.66,0,0,0,1-.58A.73.73,0,0,1,28.38,23.78Zm.41-7.85a5.19,5.19,0,0,1,.94,1.38.72.72,0,0,1-.36,1,.63.63,0,0,1-.3.07.72.72,0,0,1-.65-.42,3.53,3.53,0,0,0-.67-1,.71.71,0,0,1,0-1,.7.7,0,0,1,1,0Zm-8.67,9.22a.72.72,0,0,1-.72.72H18a.72.72,0,0,1,0-1.44H19.4A.72.72,0,0,1,20.12,25.15Zm5.65-9.3h-.1a3,3,0,0,0-.52,0,.72.72,0,1,1,0-1.44,5.52,5.52,0,0,1,.71.05.72.72,0,0,1-.09,1.43Zm-1.34,9.3a.72.72,0,0,1-.72.72H22.28a.72.72,0,0,1,0-1.44h1.43A.72.72,0,0,1,24.43,25.15Zm-8.62,0a.72.72,0,0,1-.72.72H13.65a.72.72,0,0,1,0-1.44h1.44A.72.72,0,0,1,15.81,25.15ZM0,9.34A6.48,6.48,0,0,1,6.47,2.87h9.76L14.58,1.23a.72.72,0,0,1,1-1l2.87,2.88a.71.71,0,0,1,0,1L15.6,7a.72.72,0,1,1-1-1l1.65-1.65H6.47a5,5,0,0,0,0,10.06H22.28a.72.72,0,0,1,0,1.44H6.47A6.47,6.47,0,0,1,0,9.34Z"/></g></g></svg>