<?xml version="1.0" encoding="UTF-8"?>
<svg version="1.1" xmlns="http://www.w3.org/2000/svg" width="839" height="812">
<path d="M0 0 C0.3505089 81.7172452 0.67896023 163.43467282 1.12283063 414.93002319 C1.12398881 424.33702762 1.1271925 433.74402947 1.13157158 443.15103292 C1.13819172 457.46792795 1.13893923 471.78480942 1.13431931 486.10170555 C1.13285186 491.08494527 1.13353505 496.06817719 1.13615799 501.0514164 C1.13902118 506.77402505 1.13712068 512.49661171 1.13136959 518.21921802 C1.1300732 520.28788682 1.13045234 522.35655748 1.13267231 524.4252255 C1.13540927 527.23528635 1.13197146 530.04527516 1.12698364 532.85533142 C1.12921421 533.65751187 1.13144477 534.45969232 1.13374293 535.28618127 C1.11548944 540.59181209 0.659534 545.73451775 0 551 C7.19724845 547.33824202 13.46178632 542.82790161 19.9140625 538.0234375 C24.02072181 534.96865241 28.18805597 532.00592598 32.375 529.0625 C33.43859741 528.31395752 33.43859741 528.31395752 34.52368164 527.55029297 C36.68176084 526.03253907 38.8408148 524.51617995 41 523 C43.81371247 521.02255116 46.62622268 519.0434093 49.4375 517.0625 C50.13746094 516.56943359 50.83742188 516.07636719 51.55859375 515.56835938 C56.69504842 511.9417966 61.78856728 508.25875549 66.875 504.5625 C73.79478501 499.53776607 80.81508137 494.68103486 87.88964844 489.87744141 C94.13070267 485.62682581 100.26382234 481.24166508 106.37329102 476.8046875 C138.2021514 453.68933882 138.2021514 453.68933882 154.625 443.4375 C159.50323222 440.37996233 164.22461381 437.11687476 168.9375 433.8125 C170.03989014 433.04474243 170.03989014 433.04474243 171.16455078 432.26147461 C174.74319911 429.73442123 178.02795856 427.25139782 181 424 C180.33613281 423.78214844 179.67226563 423.56429688 178.98828125 423.33984375 C175.00998268 421.55610988 171.70667043 419.11595392 168.1875 416.5625 C166.66206607 415.47050471 165.13600994 414.37937813 163.609375 413.2890625 C162.83916016 412.73766602 162.06894531 412.18626953 161.27539062 411.61816406 C157.85563476 409.18617459 154.39993781 406.80816267 150.9375 404.4375 C150.27717773 403.9847168 149.61685547 403.53193359 148.93652344 403.06542969 C146.95821338 401.70950931 144.97913406 400.35471726 143 399 C132.79967826 392.01108661 122.63645647 384.97045597 112.48999023 377.90356445 C107.00505795 374.08506675 101.512301 370.27887301 96 366.5 C88.4744896 361.3410023 80.98800149 356.12647295 73.50146484 350.91113281 C67.88967658 347.00380319 62.26663461 343.11408442 56.625 339.25 C50.9338408 335.34721624 45.26991416 331.40689614 39.625 327.4375 C38.8923291 326.92413086 38.1596582 326.41076172 37.40478516 325.88183594 C36.38843994 325.16495605 36.38843994 325.16495605 35.3515625 324.43359375 C34.45171631 323.80022095 34.45171631 323.80022095 33.53369141 323.15405273 C32 322 32 322 30 320 C29.75708008 317.41796875 29.75708008 317.41796875 29.76953125 314.1875 C29.77146484 313.02992188 29.77339844 311.87234375 29.77539062 310.6796875 C29.78763672 309.46539062 29.79988281 308.25109375 29.8125 307 C29.8134668 305.17855469 29.8134668 305.17855469 29.81445312 303.3203125 C29.85975288 294.28049424 29.85975288 294.28049424 31 292 C34.36031759 292.63098082 36.59267146 293.87997191 39.39453125 295.81640625 C40.2561084 296.40776367 41.11768555 296.99912109 42.00537109 297.60839844 C42.93172363 298.25325195 43.85807617 298.89810547 44.8125 299.5625 C45.78010254 300.22926758 46.74770508 300.89603516 47.74462891 301.58300781 C50.83450721 303.71522781 53.91792671 305.85651638 57 308 C57.99789551 308.69270996 58.99579102 309.38541992 60.02392578 310.09912109 C64.90358844 313.4868207 69.77945851 316.87990384 74.65234375 320.27734375 C81.74457125 325.21942188 88.86988874 330.11281695 96 335 C106.19388583 341.98718214 116.35287979 349.02277019 126.49462891 356.08544922 C135.27258242 362.19583575 144.08096824 368.26079137 152.90478516 374.3046875 C161.83231901 380.42073805 170.71796774 386.5931746 179.57714844 392.80786133 C185.32435157 396.83630047 191.09627918 400.82629473 196.88671875 404.79223633 C205.63733131 410.79497017 214.31492564 416.90302419 223 423 C219.64876131 426.46700876 216.21045652 429.51789788 212.375 432.4375 C211.82215332 432.85870117 211.26930664 433.27990234 210.69970703 433.71386719 C203.35376874 439.28582038 195.91012283 444.72776648 188.47607422 450.18115234 C186.04487691 451.9670348 183.61743624 453.75788712 181.19140625 455.55078125 C164.74858968 467.70116084 148.16562409 479.62483328 131.39892578 491.32421875 C121.91578593 497.94871213 112.48357919 504.63818501 103.125 511.4375 C96.92456579 515.94084567 90.65286641 520.32108142 84.3125 524.625 C78.03555166 528.88605423 71.86133434 533.24891026 65.76831055 537.76831055 C58.10636156 543.43397262 50.26397575 548.84316153 42.44726562 554.29199219 C19.70144994 569.98934297 19.70144994 569.98934297 -2.21484375 586.796875 C-16.65582408 598.22003475 -31.79769374 608.96012543 -46.9375 619.4375 C-50.23211681 621.71883396 -53.46447787 624.07486338 -56.68359375 626.4609375 C-57.5351001 627.09201416 -58.38660645 627.72309082 -59.26391602 628.37329102 C-60.97880762 629.64691271 -62.69160682 630.92335756 -64.40209961 632.20288086 C-65.19495361 632.79206299 -65.98780762 633.38124512 -66.8046875 633.98828125 C-67.51608887 634.51977783 -68.22749023 635.05127441 -68.96044922 635.59887695 C-70.91494636 636.94157017 -72.87242016 637.9632907 -75 639 C-75.30816893 583.12561567 -75.59473505 527.2511479 -75.76217651 471.37614441 C-75.76466154 470.54901348 -75.76714657 469.72188254 -75.7697069 468.86968704 C-75.82358082 450.89335999 -75.87344386 432.91702391 -75.91917593 414.94067435 C-75.94162774 406.12491697 -75.96496574 397.30916203 -75.98876953 388.4934082 C-75.99230003 387.17750675 -75.99230003 387.17750675 -75.99590184 385.83502143 C-76.07258942 357.40647966 -76.20777926 328.9785824 -76.37334997 300.55043101 C-76.54320429 271.33368622 -76.65395322 242.11729802 -76.69046982 212.90006784 C-76.69565651 208.77218571 -76.70151797 204.64430479 -76.70779037 200.51642418 C-76.70900399 199.7040082 -76.7102176 198.89159221 -76.71146799 198.05455756 C-76.7327291 184.9831534 -76.8161842 171.91285271 -76.92297661 158.84189835 C-77.02904359 145.69693259 -77.06940109 132.55305925 -77.04302479 119.40768067 C-77.02934519 111.59926484 -77.06570151 103.79485068 -77.17435578 95.98715872 C-77.2500041 90.15181042 -77.23120887 84.31921347 -77.17618011 78.48355206 C-77.16858085 76.1265652 -77.19137236 73.76923966 -77.24789728 71.41291843 C-77.63449659 54.29944162 -77.63449659 54.29944162 -73.26025781 48.82114814 C-69.04616178 44.89574124 -64.3535168 42.0053746 -59.30244754 39.28230771 C-55.66778475 37.25804612 -52.32616477 34.84277825 -48.9375 32.4375 C-47.61755346 31.53271799 -46.29612858 30.63008553 -44.97265625 29.73046875 C-40.90804915 26.94836874 -36.89087091 24.10178866 -32.875 21.25 C-25.97404439 16.36352292 -19.03199543 11.53820296 -12.0625 6.75 C-11.09618652 6.08129883 -10.12987305 5.41259766 -9.13427734 4.72363281 C-7.7858374 3.8008252 -7.7858374 3.8008252 -6.41015625 2.859375 C-5.60715088 2.30733398 -4.80414551 1.75529297 -3.97680664 1.18652344 C-2 0 -2 0 0 0 Z " fill="#C8C8C8" transform="translate(562,60)"/>
<path d="M0 0 C2.82259505 34.24507412 2.82259505 34.24507412 -1.44433594 42.94482422 C-5.25905766 47.27918913 -10.12512743 49.51025868 -15.36083984 51.75830078 C-19.98877874 53.93570108 -23.95207269 57.0479464 -28.0625 60.0625 C-29.74555573 61.24407184 -31.43173326 62.42121014 -33.12109375 63.59375 C-43.43446226 70.79016229 -53.70067098 78.04571421 -63.875 85.4375 C-70.79698671 90.46369893 -77.81937244 95.32203749 -84.89624023 100.12695312 C-91.06429482 104.3276599 -97.12315223 108.66323826 -103.15795898 113.05249023 C-108.75199907 117.11528605 -114.39351753 121.10502119 -120.0625 125.0625 C-120.90143799 125.64821777 -121.74037598 126.23393555 -122.60473633 126.83740234 C-124.27010583 127.99978404 -125.93555067 129.1620578 -127.60107422 130.32421875 C-137.08421407 136.94871213 -146.51642081 143.63818501 -155.875 150.4375 C-162.86399104 155.51357071 -169.9576478 160.4155598 -177.10498047 165.26538086 C-182.59580567 169.00399514 -187.9672779 172.87360848 -193.29760742 176.83642578 C-198.27951988 180.51977963 -203.37311904 184.02204722 -208.5 187.5 C-214.83966211 191.8022963 -221.07777584 196.20361259 -227.23095703 200.76782227 C-234.89164991 206.432333 -242.73281264 211.84004732 -250.54833984 217.28759766 C-254.27040054 219.88733214 -257.97992544 222.50466412 -261.6875 225.125 C-262.3769873 225.61218506 -263.06647461 226.09937012 -263.77685547 226.60131836 C-265.15909731 227.57817403 -266.54125919 228.55514286 -267.92333984 229.53222656 C-272.15809884 232.52533391 -276.39547453 235.51473609 -280.63232422 238.50488281 C-284.13722329 240.97864556 -287.64155467 243.45320299 -291.14453125 245.9296875 C-294.6598438 248.41474941 -298.17850773 250.89502489 -301.69775391 253.37451172 C-304.20148866 255.14225997 -306.70023975 256.91694244 -309.19921875 258.69140625 C-310.96601729 259.94028604 -312.7329422 261.18898707 -314.5 262.4375 C-315.71876831 263.30640869 -315.71876831 263.30640869 -316.9621582 264.19287109 C-321.51436048 267.40064541 -326.11863639 270.24701075 -331.01708984 272.89379883 C-333.51803571 274.2889953 -335.78144864 275.89612301 -338.0625 277.625 C-342.74550792 281.10418385 -347.50126688 284.45203514 -352.3125 287.75 C-353.3171228 288.43956787 -353.3171228 288.43956787 -354.34204102 289.14306641 C-358.20906161 291.79112962 -362.09477441 294.4086255 -366 297 C-364.63179363 301.10461912 -361.84272151 302.4083036 -358.375 304.6875 C-356.92246019 305.66299587 -355.47068431 306.63962988 -354.01953125 307.6171875 C-353.22240723 308.15182617 -352.4252832 308.68646484 -351.60400391 309.23730469 C-346.72045938 312.5430605 -341.89621998 315.93450846 -337.0625 319.3125 C-334.2542197 321.27451719 -331.44488104 323.23396207 -328.62158203 325.17431641 C-326.88812233 326.38150691 -325.1747039 327.61805116 -323.48388672 328.88427734 C-322.3143042 329.73626709 -322.3143042 329.73626709 -321.12109375 330.60546875 C-320.44361084 331.1161792 -319.76612793 331.62688965 -319.06811523 332.15307617 C-316.95095354 333.26633377 -316.95095354 333.26633377 -314.44995117 332.29516602 C-312.36424415 331.19255757 -310.54279527 330.10750655 -308.6796875 328.671875 C-308.07213623 328.2092627 -307.46458496 327.74665039 -306.83862305 327.27001953 C-306.19062744 326.76841309 -305.54263184 326.26680664 -304.875 325.75 C-303.44204342 324.65801753 -302.00842187 323.56690726 -300.57421875 322.4765625 C-299.45152588 321.62046387 -299.45152588 321.62046387 -298.30615234 320.74707031 C-294.46161648 317.83456781 -290.57465639 314.98023183 -286.6875 312.125 C-285.07938098 310.94277104 -283.47130844 309.76047886 -281.86328125 308.578125 C-281.06100098 307.98837891 -280.2587207 307.39863281 -279.43212891 306.79101562 C-277.00755824 305.00556588 -274.58716526 303.21459807 -272.16796875 301.421875 C-263.95624069 295.34155622 -255.70524309 289.3320658 -247.33886719 283.46606445 C-242.23033106 279.88165806 -237.1720026 276.23289783 -232.125 272.5625 C-225.1362773 267.48607281 -218.04233891 262.58443119 -210.89501953 257.73461914 C-205.40419433 253.99600486 -200.0327221 250.12639152 -194.70239258 246.16357422 C-189.72048012 242.48022037 -184.62688096 238.97795278 -179.5 235.5 C-173.77846367 231.61718351 -168.11635437 227.68192522 -162.5625 223.5625 C-153.510744 216.84859835 -144.25290557 210.43233196 -135 204 C-133.75253369 203.13030941 -132.5051305 202.26052828 -131.2578125 201.390625 C-126.4128621 198.02123504 -121.54932178 194.68980994 -116.625 191.4375 C-110.51534687 187.38883652 -104.51067106 183.19381457 -98.5 179 C-85.26267176 169.77520699 -85.26267176 169.77520699 -79.6875 166 C-78.80449219 165.401875 -77.92148437 164.80375 -77.01171875 164.1875 C-75 163 -75 163 -73 163 C-70.1751609 196.36448849 -70.1751609 196.36448849 -74.46044922 204.91357422 C-78.30321261 209.23555985 -83.16963532 211.52581765 -88.41259766 213.79394531 C-92.79406965 215.83626194 -96.5796841 218.69704328 -100.5 221.5 C-102.09290508 222.58778607 -103.68795851 223.67243294 -105.28515625 224.75390625 C-110.64724156 228.42304952 -115.90388893 232.23108579 -121.15795898 236.05249023 C-129.22985179 241.9148816 -137.41542863 247.61163743 -145.59667969 253.31982422 C-151.38950611 257.36962424 -157.15649565 261.45615368 -162.92773438 265.53662109 C-165.0177979 267.0125684 -167.11013089 268.48524322 -169.203125 269.95703125 C-176.52606672 275.10980541 -183.81572206 280.30305484 -191.0625 285.5625 C-197.29450089 290.08399137 -203.58869457 294.49587728 -209.95239258 298.82958984 C-215.11748236 302.36006029 -220.19053293 306.00764695 -225.25 309.6875 C-241.52614906 321.50912405 -241.52614906 321.50912405 -249.234375 325.80078125 C-253.88774202 328.43396451 -258.20308583 331.53743027 -262.5625 334.625 C-263.43422852 335.24020508 -264.30595703 335.85541016 -265.20410156 336.48925781 C-266.965893 337.73344618 -268.72680999 338.97887378 -270.48681641 340.22558594 C-272.78974485 341.85155096 -275.10155051 343.46365289 -277.41796875 345.0703125 C-278.69545393 345.96333938 -279.97280749 346.85655459 -281.25 347.75 C-281.83982666 348.15557129 -282.42965332 348.56114258 -283.03735352 348.97900391 C-284.39483978 349.9360865 -285.70384884 350.96136232 -287 352 C-287 352.66 -287 353.32 -287 354 C-285.16208997 355.53243179 -285.16208997 355.53243179 -282.75 357.08984375 C-281.83976074 357.70351807 -280.92952148 358.31719238 -279.99169922 358.94946289 C-278.51080811 359.93354126 -278.51080811 359.93354126 -277 360.9375 C-274.96077752 362.30965811 -272.92171588 363.68205528 -270.8828125 365.0546875 C-269.87508789 365.72983398 -268.86736328 366.40498047 -267.82910156 367.10058594 C-264.16074324 369.56346372 -260.51372753 372.05612701 -256.875 374.5625 C-255.93720703 375.20723267 -255.93720703 375.20723267 -254.98046875 375.86499023 C-248.76963084 380.14281508 -242.59823416 384.4768376 -236.42358398 388.80664062 C-227.19323209 395.27488299 -217.90323829 401.65416784 -208.59375 408.0078125 C-198.87721507 414.64176101 -189.20026093 421.32938218 -179.54858398 428.05737305 C-173.55204409 432.23416964 -167.53735622 436.38245374 -161.5 440.5 C-146.5849893 450.67683424 -131.75906095 460.98633032 -117.05029297 471.45922852 C-113.63922852 473.91430258 -113.63922852 473.91430258 -110 476 C-110.01328213 475.1986154 -110.02656425 474.3972308 -110.04024887 473.57156181 C-110.35730661 454.02243228 -110.56252048 434.4750088 -110.64509201 414.92344475 C-110.6876895 405.46783091 -110.76735642 396.01530986 -110.93603516 386.56103516 C-111.08306101 378.31500468 -111.15876041 370.07183523 -111.15080285 361.82444584 C-111.14903195 357.46064436 -111.18160094 353.10351424 -111.29979706 348.74117661 C-111.98210626 322.30705318 -111.98210626 322.30705318 -107.07035828 315.21302032 C-102.49520406 310.70078476 -97.3596026 307.82328295 -91.53264618 305.21388626 C-87.51258551 303.28708872 -84.02276952 300.68875726 -80.4375 298.0625 C-78.32078192 296.56189863 -76.27594606 295.26647883 -74 294 C-73.01 294.33 -72.02 294.66 -71 295 C-70.97720595 326.17750714 -70.95949992 357.35501208 -70.94893467 388.53252556 C-70.94768391 392.21016028 -70.94638959 395.88779499 -70.94506836 399.56542969 C-70.94467489 400.66369368 -70.94467489 400.66369368 -70.94427348 401.78414483 C-70.93991769 413.65210558 -70.93203064 425.52006149 -70.9228472 437.38801937 C-70.91350814 449.55826228 -70.90794385 461.72850265 -70.90591151 473.89874899 C-70.90453681 481.4133553 -70.90018906 488.92794797 -70.89208353 496.44255008 C-70.88619149 502.19684585 -70.88554168 507.9511328 -70.88689232 513.70543098 C-70.886616 516.07182588 -70.88461102 518.43822128 -70.88079453 520.80461311 C-70.87585694 524.02254266 -70.87700198 527.24041273 -70.87974548 530.45834351 C-70.87683264 531.40580016 -70.8739198 532.3532568 -70.87091869 533.32942426 C-70.87290974 534.18683828 -70.87490079 535.04425229 -70.87695217 535.92764854 C-70.87657245 536.67114095 -70.87619273 537.41463336 -70.8758015 538.18065584 C-71 540 -71 540 -72 542 C-76.55366542 540.43305429 -80.1901013 538.0137575 -84.125 535.3125 C-85.47719405 534.39614518 -86.83006175 533.48078365 -88.18359375 532.56640625 C-88.84085449 532.12184082 -89.49811523 531.67727539 -90.17529297 531.21923828 C-92.48163799 529.67817767 -94.82976291 528.21097496 -97.1875 526.75 C-104.28688028 522.27062911 -111.09836257 517.36922519 -117.9609375 512.5390625 C-122.22517486 509.53854046 -126.51008559 506.57043458 -130.8125 503.625 C-136.18887255 499.94294565 -141.54263507 496.23003143 -146.88549805 492.49951172 C-157.13205423 485.34709587 -167.4386863 478.29088842 -177.78890991 471.28997803 C-186.87766564 465.14052823 -195.91249014 458.9190398 -204.91015625 452.63671875 C-210.75190528 448.55898101 -216.6138953 444.51342243 -222.5 440.5 C-230.58415321 434.98659029 -238.6201212 429.405746 -246.64868164 423.81176758 C-254.74260623 418.17377057 -262.86381878 412.57677229 -271 407 C-281.19690178 400.01075065 -291.35941142 392.97380129 -301.50341797 385.90795898 C-307.05205202 382.04482916 -312.61014014 378.19652435 -318.1875 374.375 C-324.15168721 370.28774127 -330.08063948 366.15188634 -336 362 C-344.63075858 355.94690884 -353.30232453 349.95640199 -362 344 C-373.17009257 336.35042031 -384.28210274 328.6217283 -395.36523438 320.84667969 C-398.1011159 318.92912892 -400.83930768 317.01491746 -403.578125 315.1015625 C-404.48594727 314.46710205 -405.39376953 313.8326416 -406.32910156 313.17895508 C-408.07031061 311.96217782 -409.81183205 310.74584744 -411.55371094 309.5300293 C-412.34036133 308.98000244 -413.12701172 308.42997559 -413.9375 307.86328125 C-414.62714844 307.38157471 -415.31679688 306.89986816 -416.02734375 306.40356445 C-418.04419535 304.96855457 -420.02610048 303.49339629 -422 302 C-420.61839226 298.7425081 -419.18026874 297.09226686 -416.31640625 295.0390625 C-415.56375488 294.49266113 -414.81110352 293.94625977 -414.03564453 293.38330078 C-413.21950684 292.80306152 -412.40336914 292.22282227 -411.5625 291.625 C-409.82150491 290.36473483 -408.08062253 289.10431394 -406.33984375 287.84375 C-405.44894043 287.20308594 -404.55803711 286.56242187 -403.64013672 285.90234375 C-399.61584405 283.00264998 -395.61873451 280.06657634 -391.625 277.125 C-390.84850098 276.55418701 -390.07200195 275.98337402 -389.27197266 275.39526367 C-383.27632686 270.97493238 -377.35090783 266.46702228 -371.4375 261.9375 C-362.79838706 255.32460137 -354.04294137 248.89909085 -345.19287109 242.57226562 C-342.98355207 240.98820701 -340.78168204 239.39432711 -338.58203125 237.796875 C-329.93624572 231.52016189 -321.22983668 225.34031744 -312.46362305 219.23291016 C-306.91203522 215.35845964 -301.41159152 211.4205166 -295.9375 207.4375 C-289.8005151 202.97411511 -283.59108035 198.63677076 -277.3125 194.375 C-271.03554165 190.11396211 -264.86133348 185.7510891 -258.76831055 181.23168945 C-251.10796244 175.56721115 -243.26694249 170.159782 -235.45166016 164.71240234 C-231.72959946 162.11266786 -228.02007456 159.49533588 -224.3125 156.875 C-223.6230127 156.38781494 -222.93352539 155.90062988 -222.22314453 155.39868164 C-220.84090269 154.42182597 -219.45874081 153.44485714 -218.07666016 152.46777344 C-214.55232484 149.97679014 -211.02605299 147.48855097 -207.5 145 C-206.08332432 144.00001278 -204.66665764 143.00001278 -203.25 142 C-194.75 136 -194.75 136 -192.62524414 134.50024414 C-191.20767346 133.49955812 -189.79019308 132.49874417 -188.37280273 131.49780273 C-184.84569428 129.00724549 -181.31707783 126.51888408 -177.78515625 124.03515625 C-170.46636606 118.88464553 -163.18057716 113.69404646 -155.9375 108.4375 C-149.67420248 103.89496247 -143.35221752 99.45401427 -136.96411133 95.08911133 C-126.31589506 87.80916809 -115.8133504 80.3270649 -105.375 72.75 C-96.5204581 66.3260021 -87.54010863 60.08879038 -78.55078125 53.85546875 C-71.67901244 49.08886273 -64.8488619 44.2644465 -58.02392578 39.43115234 C-55.95442381 37.9677723 -53.88194395 36.50870312 -51.80859375 35.05078125 C-44.48149845 29.89573977 -37.18812345 24.69964775 -29.9375 19.4375 C-3.14243401 0 -3.14243401 0 0 0 Z " fill="#C9C9C9" transform="translate(468,126)"/>
<path d="M0 0 C2.49577436 2.49577436 2.2410168 3.97056875 2.26587117 7.37595728 C2.26118883 8.13351414 2.2565065 8.891071 2.25168228 9.67158413 C2.2560426 10.87919629 2.2560426 10.87919629 2.26049101 12.11120465 C2.26785218 14.83791791 2.2608194 17.56441042 2.25396729 20.29112244 C2.25626931 22.25411662 2.25944408 24.21710995 2.26342177 26.18010145 C2.27181402 31.59696325 2.26762451 37.01375508 2.26144934 42.43061721 C2.25694383 48.26369138 2.26389913 54.0967531 2.26940918 59.92982483 C2.27832542 71.36606051 2.27637122 82.80227 2.2705839 94.23850673 C2.26607594 103.5295314 2.26545074 112.82054872 2.26763153 122.11157417 C2.267938 123.43150897 2.26824446 124.75144378 2.26856022 126.1113766 C2.26903607 128.12030779 2.2695185 130.12923898 2.270014 132.13817017 C2.27613693 157.26162521 2.2705774 182.38506594 2.2598202 207.50851877 C2.25032955 229.84382161 2.25117676 252.17910165 2.26074219 274.5144043 C2.27144495 299.5894026 2.27570165 324.66438825 2.26951766 349.73938853 C2.2688762 352.41112903 2.26825052 355.08286955 2.26763153 357.75461006 C2.26732298 359.06931444 2.26701443 360.38401881 2.26669653 361.73856271 C2.26496654 371.02260527 2.26789124 380.30663977 2.27259064 389.59068108 C2.27818854 400.89891201 2.27670611 412.20711515 2.26602915 423.51534288 C2.26075754 429.28977881 2.2587409 435.06416835 2.26532745 440.83860397 C2.27125842 446.11797029 2.2680593 451.39724694 2.25737235 456.67660505 C2.25512613 458.59313958 2.25630171 460.50968158 2.26112393 462.42621135 C2.26714923 465.01844231 2.26102512 467.6103605 2.25168228 470.20257473 C2.25636461 470.95779042 2.26104695 471.71300612 2.26587117 472.49110714 C2.23879447 476.21452244 2.12171924 477.81742114 0 481 C-14.08021909 471.44758515 -28.11147308 461.82971825 -42 452 C-43.1831674 451.47636777 -44.3663348 450.95273554 -45.58535576 450.41323566 C-48.38001733 448.37851936 -48.94332844 447.27224435 -49.65796208 443.83921754 C-49.92139713 439.47065392 -49.95301933 435.14773814 -49.915802 430.77348328 C-49.92672976 429.07130547 -49.9406965 427.36914491 -49.95744503 425.66701442 C-49.99450284 420.98462689 -49.98770128 416.30316533 -49.97370887 411.62068951 C-49.96611934 406.57275218 -49.9986422 401.52505082 -50.02587891 396.47720337 C-50.0724844 386.58570975 -50.08054956 376.6945427 -50.0740905 366.80295499 C-50.06922087 358.76391588 -50.07650749 350.72497724 -50.09246445 342.68595314 C-50.09469197 341.54271618 -50.09691949 340.39947922 -50.09921452 339.22159872 C-50.10374171 336.89925123 -50.10827403 334.57690375 -50.11281143 332.25455628 C-50.15348784 310.46356324 -50.14808061 288.67275703 -50.12907241 266.88174669 C-50.11315924 246.9412089 -50.15648834 227.00131195 -50.22762932 207.06091132 C-50.30008696 186.59387144 -50.33180906 166.1271366 -50.31966579 145.65996677 C-50.31359173 134.16606363 -50.32387257 122.67272658 -50.37698746 111.17893028 C-50.42178507 101.39310269 -50.42827871 91.60817198 -50.38510753 81.82232126 C-50.36413996 76.82842226 -50.36091431 71.8361788 -50.40546799 66.84239769 C-50.44579913 62.26996322 -50.4353161 57.70055907 -50.3843988 53.12825618 C-50.3748912 51.47484115 -50.38394458 49.82119304 -50.41346647 48.16801425 C-50.61893221 35.81155276 -50.61893221 35.81155276 -46.56953216 31.2803551 C-43.79551477 29.23764323 -41.05299935 27.58529168 -38 26 C-36.9697168 25.26797363 -35.93943359 24.53594727 -34.87792969 23.78173828 C-33.66218262 22.93458252 -33.66218262 22.93458252 -32.421875 22.0703125 C-31.49511963 21.42449219 -30.56836426 20.77867187 -29.61352539 20.11328125 C-28.19608032 19.12908203 -28.19608032 19.12908203 -26.75 18.125 C-25.75798584 17.43535156 -24.76597168 16.74570313 -23.74389648 16.03515625 C-15.89391889 10.59111443 -7.98318818 5.24645543 0 0 Z " fill="#C7C7C7" transform="translate(466,239)"/>
<path d="M0 0 C2.82259505 34.24507412 2.82259505 34.24507412 -1.44433594 42.94482422 C-5.25905766 47.27918913 -10.12512743 49.51025868 -15.36083984 51.75830078 C-19.98877874 53.93570108 -23.95207269 57.0479464 -28.0625 60.0625 C-29.74555573 61.24407184 -31.43173326 62.42121014 -33.12109375 63.59375 C-43.43446226 70.79016229 -53.70067098 78.04571421 -63.875 85.4375 C-70.79698671 90.46369893 -77.81937244 95.32203749 -84.89624023 100.12695312 C-91.06429482 104.3276599 -97.12315223 108.66323826 -103.15795898 113.05249023 C-108.75199907 117.11528605 -114.39351753 121.10502119 -120.0625 125.0625 C-120.90143799 125.64821777 -121.74037598 126.23393555 -122.60473633 126.83740234 C-124.27010583 127.99978404 -125.93555067 129.1620578 -127.60107422 130.32421875 C-137.08421407 136.94871213 -146.51642081 143.63818501 -155.875 150.4375 C-162.86399104 155.51357071 -169.9576478 160.4155598 -177.10498047 165.26538086 C-182.59580567 169.00399514 -187.9672779 172.87360848 -193.29760742 176.83642578 C-198.27951988 180.51977963 -203.37311904 184.02204722 -208.5 187.5 C-214.83966211 191.8022963 -221.07777584 196.20361259 -227.23095703 200.76782227 C-234.89164991 206.432333 -242.73281264 211.84004732 -250.54833984 217.28759766 C-254.27040054 219.88733214 -257.97992544 222.50466412 -261.6875 225.125 C-262.3769873 225.61218506 -263.06647461 226.09937012 -263.77685547 226.60131836 C-265.15909731 227.57817403 -266.54125919 228.55514286 -267.92333984 229.53222656 C-272.15809884 232.52533391 -276.39547453 235.51473609 -280.63232422 238.50488281 C-284.13722329 240.97864556 -287.64155467 243.45320299 -291.14453125 245.9296875 C-294.6598438 248.41474941 -298.17850773 250.89502489 -301.69775391 253.37451172 C-304.20148866 255.14225997 -306.70023975 256.91694244 -309.19921875 258.69140625 C-310.96601729 259.94028604 -312.7329422 261.18898707 -314.5 262.4375 C-315.71876831 263.30640869 -315.71876831 263.30640869 -316.9621582 264.19287109 C-321.51436048 267.40064541 -326.11863639 270.24701075 -331.01708984 272.89379883 C-333.51803571 274.2889953 -335.78144864 275.89612301 -338.0625 277.625 C-342.70942596 281.07419716 -347.42015289 284.40811452 -352.1875 287.6875 C-352.84049072 288.13883301 -353.49348145 288.59016602 -354.16625977 289.05517578 C-355.42215376 289.91752575 -356.68457359 290.77047881 -357.95449829 291.61203003 C-359.23535098 292.48114935 -360.49489129 293.38356239 -361.71833801 294.33178711 C-367.57399827 298.58156807 -372.64941217 298.66163224 -379.71875 298.48828125 C-380.81723267 298.48120651 -381.91571533 298.47413177 -383.04748535 298.46684265 C-386.53236975 298.43900737 -390.01560685 298.37628587 -393.5 298.3125 C-395.87237252 298.28740324 -398.24477039 298.2645925 -400.6171875 298.24414062 C-406.41201386 298.18921642 -412.20588921 298.10569871 -418 298 C-415.33667248 295.28590191 -412.73851357 292.64405786 -409.6796875 290.37890625 C-409.07229736 289.92612305 -408.46490723 289.47333984 -407.83911133 289.00683594 C-407.19095459 288.53020508 -406.54279785 288.05357422 -405.875 287.5625 C-404.83218872 286.7876123 -404.83218872 286.7876123 -403.76831055 285.99707031 C-400.00968207 283.20820882 -396.2369771 280.43852168 -392.46484375 277.66796875 C-390.91403846 276.52867855 -389.36325756 275.38935517 -387.8125 274.25 C-387.02705811 273.67354736 -386.24161621 273.09709473 -385.43237305 272.50317383 C-379.29716915 267.9877972 -373.23496519 263.38199671 -367.1875 258.75 C-359.82128562 253.11257742 -352.38222933 247.61989892 -344.80029297 242.27783203 C-342.06530316 240.33656045 -339.35368847 238.36337971 -336.6394043 236.39331055 C-328.63958651 230.5877285 -320.57479998 224.88383995 -312.46459961 219.23364258 C-306.91273115 215.35888426 -301.41192059 211.42075603 -295.9375 207.4375 C-289.8005151 202.97411511 -283.59108035 198.63677076 -277.3125 194.375 C-271.03554165 190.11396211 -264.86133348 185.7510891 -258.76831055 181.23168945 C-251.10796244 175.56721115 -243.26694249 170.159782 -235.45166016 164.71240234 C-231.72959946 162.11266786 -228.02007456 159.49533588 -224.3125 156.875 C-223.6230127 156.38781494 -222.93352539 155.90062988 -222.22314453 155.39868164 C-220.84090269 154.42182597 -219.45874081 153.44485714 -218.07666016 152.46777344 C-214.55232484 149.97679014 -211.02605299 147.48855097 -207.5 145 C-206.08332432 144.00001278 -204.66665764 143.00001278 -203.25 142 C-194.75 136 -194.75 136 -192.62524414 134.50024414 C-191.20767346 133.49955812 -189.79019308 132.49874417 -188.37280273 131.49780273 C-184.84569428 129.00724549 -181.31707783 126.51888408 -177.78515625 124.03515625 C-170.46636606 118.88464553 -163.18057716 113.69404646 -155.9375 108.4375 C-149.67420248 103.89496247 -143.35221752 99.45401427 -136.96411133 95.08911133 C-126.31589506 87.80916809 -115.8133504 80.3270649 -105.375 72.75 C-96.5204581 66.3260021 -87.54010863 60.08879038 -78.55078125 53.85546875 C-71.67901244 49.08886273 -64.8488619 44.2644465 -58.02392578 39.43115234 C-55.95442381 37.9677723 -53.88194395 36.50870312 -51.80859375 35.05078125 C-44.48149845 29.89573977 -37.18812345 24.69964775 -29.9375 19.4375 C-3.14243401 0 -3.14243401 0 0 0 Z " fill="#050505" transform="translate(468,126)"/>
<path d="M0 0 C0.18828578 55.74031462 0.36341468 111.48066046 0.46577454 167.22120667 C0.46729316 168.04607035 0.46881179 168.87093404 0.47037644 169.72079359 C0.50329776 187.6469326 0.53376986 205.57307499 0.56171862 223.49922242 C0.57543943 232.29009109 0.58970151 241.08095884 0.60424805 249.87182617 C0.6056864 250.74662716 0.60712475 251.62142815 0.60860668 252.52273825 C0.65548881 280.88201955 0.73811839 309.24105989 0.83926943 337.60019518 C0.94301919 366.74082069 1.01073775 395.88131283 1.03306489 425.02211992 C1.03623463 429.13722989 1.03981664 433.2523394 1.04364967 437.36744881 C1.04439133 438.17736818 1.04513298 438.98728756 1.04589711 439.82174994 C1.05890047 452.86386509 1.10993044 465.90556809 1.17515237 478.9475151 C1.23989869 492.05642336 1.26465147 505.16492268 1.24851515 518.27398526 C1.24014288 526.06448122 1.26249895 533.85348152 1.32877297 541.64370761 C1.37486779 547.45883776 1.36358333 553.27293226 1.32988784 559.08817912 C1.32523029 561.44233479 1.33927179 563.79661566 1.37371501 566.15052395 C1.62903859 584.67416238 1.62903859 584.67416238 -2.40084493 589.33000195 C-5.17348235 591.64128226 -7.80762057 593.33712395 -11 595 C-12.30844009 595.92959011 -13.60507412 596.87629749 -14.8828125 597.84765625 C-15.95273437 598.57855469 -17.02265625 599.30945313 -18.125 600.0625 C-18.68703125 600.45115234 -19.2490625 600.83980469 -19.828125 601.24023438 C-23.85825893 604 -23.85825893 604 -25 604 C-25.30816893 548.12561567 -25.59473505 492.2511479 -25.76217651 436.37614441 C-25.76466154 435.54901348 -25.76714657 434.72188254 -25.7697069 433.86968704 C-25.82358082 415.89335999 -25.87344386 397.91702391 -25.91917593 379.94067435 C-25.94162774 371.12491697 -25.96496574 362.30916203 -25.98876953 353.4934082 C-25.99230003 352.17750675 -25.99230003 352.17750675 -25.99590184 350.83502143 C-26.07258942 322.40647966 -26.20777926 293.9785824 -26.37334997 265.55043101 C-26.54320429 236.33368622 -26.65395322 207.11729802 -26.69046982 177.90006784 C-26.69565651 173.77218571 -26.70151797 169.64430479 -26.70779037 165.51642418 C-26.70900399 164.7040082 -26.7102176 163.89159221 -26.71146799 163.05455756 C-26.7327291 149.9831534 -26.8161842 136.91285271 -26.92297661 123.84189835 C-27.02904359 110.69693259 -27.06940109 97.55305925 -27.04302479 84.40768067 C-27.02934519 76.59926484 -27.06570151 68.79485068 -27.17435578 60.98715872 C-27.2500041 55.15181042 -27.23120887 49.31921347 -27.17618011 43.48355206 C-27.16858085 41.1265652 -27.19137236 38.76923966 -27.24789728 36.41291843 C-27.63516031 19.27006096 -27.63516031 19.27006096 -23.21091089 13.77985786 C-18.34789018 9.26226866 -12.84411569 6.07181723 -7 3 C-6.02696997 2.39786094 -5.05393994 1.79572188 -4.05142415 1.17533618 C-2 0 -2 0 0 0 Z " fill="#000000" transform="translate(512,95)"/>
<path d="M0 0 C2.8248391 33.36448849 2.8248391 33.36448849 -1.46044922 41.91357422 C-5.30321261 46.23555985 -10.16963532 48.52581765 -15.41259766 50.79394531 C-19.79406965 52.83626194 -23.5796841 55.69704328 -27.5 58.5 C-29.09290508 59.58778607 -30.68795851 60.67243294 -32.28515625 61.75390625 C-37.64724156 65.42304952 -42.90388893 69.23108579 -48.15795898 73.05249023 C-56.22985179 78.9148816 -64.41542863 84.61163743 -72.59667969 90.31982422 C-78.38950611 94.36962424 -84.15649565 98.45615368 -89.92773438 102.53662109 C-92.0177979 104.0125684 -94.11013089 105.48524322 -96.203125 106.95703125 C-103.52606672 112.10980541 -110.81572206 117.30305484 -118.0625 122.5625 C-124.29450089 127.08399137 -130.58869457 131.49587728 -136.95239258 135.82958984 C-142.11748236 139.36006029 -147.19053293 143.00764695 -152.25 146.6875 C-168.52975523 158.51174327 -168.52975523 158.51174327 -176.2421875 162.8046875 C-180.85401339 165.41419929 -185.11973167 168.49922124 -189.4375 171.5625 C-190.30769775 172.17222656 -191.17789551 172.78195312 -192.07446289 173.41015625 C-196.30938443 176.37796329 -200.52022007 179.37146361 -204.6875 182.43359375 C-205.40752197 182.95300537 -206.12754395 183.47241699 -206.86938477 184.00756836 C-208.21931686 184.98173137 -209.55899691 185.97030726 -210.88647461 186.97485352 C-215.28649516 190.11873253 -215.28649516 190.11873253 -218.51171875 189.58203125 C-221.71033222 187.54837591 -224.82402319 185.43436904 -227.875 183.1875 C-228.46152344 182.76146484 -229.04804688 182.33542969 -229.65234375 181.89648438 C-230.83494105 181.03747689 -232.01433232 180.17403784 -233.19042969 179.30615234 C-234.44418621 178.40118778 -235.71741536 177.52282968 -237.00488281 176.66650391 C-238.71950785 175.51493515 -240.36638228 174.26386026 -242 173 C-242 172.01 -242 171.02 -242 170 C-240.61743164 168.67236328 -240.61743164 168.67236328 -238.66015625 167.3203125 C-237.57299316 166.55521362 -237.57299316 166.55521362 -236.46386719 165.7746582 C-235.67141602 165.230271 -234.87896484 164.68588379 -234.0625 164.125 C-232.40082537 162.95658349 -230.74070558 161.78595307 -229.08203125 160.61328125 C-228.23334473 160.01467285 -227.3846582 159.41606445 -226.51025391 158.79931641 C-222.68759321 156.05928438 -218.96801758 153.19208638 -215.25 150.3125 C-209.72254984 146.04929698 -204.14061729 141.8960283 -198.43725586 137.87158203 C-194.32250562 134.96274914 -190.26539301 131.98362542 -186.22119141 128.97753906 C-178.21330353 123.02641055 -170.10332769 117.27685317 -161.84277344 111.68212891 C-157.01025734 108.40085248 -152.25383968 105.04238897 -147.5625 101.5625 C-139.31114683 95.44190442 -130.8793083 89.58661099 -122.45166016 83.71240234 C-118.72959946 81.11266786 -115.02007456 78.49533588 -111.3125 75.875 C-110.6230127 75.38781494 -109.93352539 74.90062988 -109.22314453 74.39868164 C-107.84090269 73.42182597 -106.45874081 72.44485714 -105.07666016 71.46777344 C-102.26260166 69.47881039 -99.44727504 67.49164676 -96.63183594 65.50463867 C-95.21178781 64.50237612 -93.7918657 63.49993499 -92.37207031 62.49731445 C-88.84522401 60.00689439 -85.31683792 57.51871538 -81.78515625 55.03515625 C-80.37749071 54.04443202 -78.96993875 53.05354638 -77.5625 52.0625 C-76.51775513 51.32713013 -76.51775513 51.32713013 -75.4519043 50.5769043 C-70.97818841 47.4197435 -66.54052553 44.21666826 -62.11621094 40.99072266 C-55.19103993 35.94582805 -48.21442636 31.14612338 -40.96484375 26.578125 C-35.66557903 23.18277933 -30.53230418 19.54300157 -25.375 15.9375 C-11.96791034 6.57335368 -11.96791034 6.57335368 -6.6875 3 C-5.80449219 2.401875 -4.92148437 1.80375 -4.01171875 1.1875 C-2 0 -2 0 0 0 Z " fill="#050505" transform="translate(395,289)"/>
<path d="M0 0 C0 142.89 0 285.78 0 433 C-6.26145413 430.49541835 -11.51550667 428.16679459 -16 423 C-17.6351644 417.49156391 -17.48866187 412.09731723 -17.39682007 406.41271973 C-17.40950152 404.70793332 -17.42697666 403.003177 -17.44881976 401.29848337 C-17.49470899 396.6223321 -17.47206513 391.94865234 -17.43797135 387.27249265 C-17.41307829 382.22659202 -17.45150056 377.18111592 -17.48175049 372.13529968 C-17.53066993 362.25402693 -17.52009678 352.37367309 -17.48821144 342.49236429 C-17.46337115 334.46193993 -17.45999906 326.43177316 -17.47197342 318.40132141 C-17.47365898 317.25849092 -17.47534455 316.11566043 -17.47708119 314.93819872 C-17.48059816 312.61657576 -17.4841645 310.29495288 -17.48777969 307.97333008 C-17.5191485 286.20221214 -17.48307907 264.43160364 -17.42397566 242.66056925 C-17.37482969 223.97902411 -17.38336592 205.2982308 -17.43408203 186.61669922 C-17.49294611 164.92365879 -17.51612724 143.23106489 -17.48234713 121.53795576 C-17.47884308 119.22486344 -17.475385 116.91177105 -17.47197342 114.59867859 C-17.47027639 113.46058665 -17.46857936 112.32249471 -17.4668309 111.14991513 C-17.45733229 103.12891257 -17.4733662 95.1081932 -17.4992485 87.0872345 C-17.53009689 77.31238923 -17.52176035 67.53851558 -17.46316032 57.76378167 C-17.43424396 52.77598482 -17.42293517 47.78980787 -17.45930099 42.80202293 C-17.49209423 38.23517909 -17.47406157 33.67145511 -17.41554792 29.10489434 C-17.40326454 27.45362023 -17.40950593 25.80208223 -17.43618159 24.15097791 C-17.62022233 11.81286163 -17.62022233 11.81286163 -13.56359601 7.27391529 C-10.79070706 5.22880225 -8.06008814 3.57289508 -5 2 C-2 0 -2 0 0 0 Z " fill="#020202" transform="translate(433,263)"/>
<path d="M0 0 C3.36031759 0.63098082 5.59267146 1.87997191 8.39453125 3.81640625 C9.2561084 4.40776367 10.11768555 4.99912109 11.00537109 5.60839844 C11.93172363 6.25325195 12.85807617 6.89810547 13.8125 7.5625 C14.78010254 8.22926758 15.74770508 8.89603516 16.74462891 9.58300781 C19.83450721 11.71522781 22.91792671 13.85651638 26 16 C26.99789551 16.69270996 27.99579102 17.38541992 29.02392578 18.09912109 C33.90358844 21.4868207 38.77945851 24.87990384 43.65234375 28.27734375 C50.74457125 33.21942188 57.86988874 38.11281695 65 43 C75.19388583 49.98718214 85.35287979 57.02277019 95.49462891 64.08544922 C104.27258242 70.19583575 113.08096824 76.26079137 121.90478516 82.3046875 C130.83231901 88.42073805 139.71796774 94.5931746 148.57714844 100.80786133 C154.32435157 104.83630047 160.09627918 108.82629473 165.88671875 112.79223633 C174.63733131 118.79497017 183.31492564 124.90302419 192 131 C191.67 131.66 191.34 132.32 191 133 C185.38090176 133.19964 179.76392155 133.34379494 174.14208984 133.43945312 C172.23514802 133.47937559 170.32844614 133.53373673 168.42236328 133.60351562 C155.83556311 134.05233703 147.92398064 133.51448236 138 125 C136.16862811 123.70568351 134.32346549 122.43065313 132.46484375 121.17578125 C130.62170397 119.88901127 128.77927247 118.60122627 126.9375 117.3125 C119.81397632 112.34174029 112.67711904 107.3930712 105.5 102.5 C97.41060818 96.98309346 89.36932529 91.3988507 81.3359375 85.80078125 C75.90281884 82.01583013 70.46158863 78.24374466 65 74.5 C57.47446378 69.3410404 49.9880011 64.12647268 42.50146484 58.91113281 C36.88967658 55.00380319 31.26663461 51.11408442 25.625 47.25 C19.9338408 43.34721624 14.26991416 39.40689614 8.625 35.4375 C7.8923291 34.92413086 7.1596582 34.41076172 6.40478516 33.88183594 C5.72722168 33.40391602 5.0496582 32.92599609 4.3515625 32.43359375 C3.75166504 32.01134521 3.15176758 31.58909668 2.53369141 31.15405273 C1 30 1 30 -1 28 C-1.24291992 25.41796875 -1.24291992 25.41796875 -1.23046875 22.1875 C-1.22853516 21.02992188 -1.22660156 19.87234375 -1.22460938 18.6796875 C-1.21236328 17.46539062 -1.20011719 16.25109375 -1.1875 15 C-1.18685547 13.78570312 -1.18621094 12.57140625 -1.18554688 11.3203125 C-1.14024712 2.28049424 -1.14024712 2.28049424 0 0 Z " fill="#060606" transform="translate(593,352)"/>
<path d="M0 0 C0 55.77 0 111.54 0 169 C-7 165 -7 165 -8 164 C-8.10997629 161.94639328 -8.14859075 159.88895738 -8.16062927 157.83244324 C-8.16571709 157.1810427 -8.17080491 156.52964216 -8.17604691 155.85850221 C-8.19183444 153.65982076 -8.20031293 151.46117231 -8.20874023 149.26245117 C-8.21827359 147.69245695 -8.22816451 146.12246486 -8.23838806 144.55247498 C-8.26983194 139.38266511 -8.29004579 134.21283885 -8.30859375 129.04296875 C-8.31189107 128.16445826 -8.31518839 127.28594777 -8.31858563 126.38081574 C-8.34936798 118.10085484 -8.37608552 109.82089042 -8.39300442 101.54088879 C-8.4149245 90.93619541 -8.45691536 80.33200756 -8.52644199 69.72751635 C-8.5736272 62.27866577 -8.5979306 54.82995185 -8.6052013 47.38095647 C-8.61016588 42.92829476 -8.62532204 38.47620217 -8.6649456 34.02370262 C-8.7017293 29.8350029 -8.71024945 25.64719922 -8.69693947 21.4583683 C-8.69699356 19.92001898 -8.70734676 18.3816308 -8.7286911 16.84342957 C-8.75626786 14.74403303 -8.74691866 12.6479284 -8.72825623 10.54850769 C-8.73248816 9.37359866 -8.7367201 8.19868963 -8.74108028 6.9881773 C-8 4 -8 4 -5.07948399 1.59071827 C-2 0 -2 0 0 0 Z " fill="#0A0A0A" transform="translate(367,440)"/>
</svg>
