<?xml version="1.0" standalone="no"?>
<!DOCTYPE svg PUBLIC "-//W3C//DTD SVG 20010904//EN"
 "http://www.w3.org/TR/2001/REC-SVG-20010904/DTD/svg10.dtd">
<svg version="1.0" xmlns="http://www.w3.org/2000/svg"
 width="839.000000pt" height="812.000000pt" viewBox="0 0 839.000000 812.000000"
 preserveAspectRatio="xMidYMid meet">

<g transform="translate(0.000000,812.000000) scale(0.100000,-0.100000)"
fill="#000000" stroke="none">
<path d="M4988 7084 l-118 -85 0 -2930 c0 -1612 4 -2929 8 -2927 4 2 61 41
125 88 l117 85 0 2927 c0 1611 -3 2928 -7 2927 -5 0 -61 -39 -125 -85z"/>
<path d="M4285 6586 c-203 -144 -653 -463 -1000 -708 -346 -244 -945 -667
-1330 -940 -385 -272 -870 -621 -1078 -776 l-377 -281 254 -3 c140 -2 252 0
250 3 -4 7 389 282 416 291 8 3 254 174 545 380 438 309 1550 1095 2508 1771
l197 140 0 194 c0 106 -3 193 -7 192 -5 0 -174 -118 -378 -263z"/>
<path d="M4253 5439 c-40 -28 -73 -58 -74 -67 -1 -24 -1 -4063 0 -4088 1 -14
25 -37 76 -73 l75 -52 0 2165 c0 1192 -1 2166 -2 2166 -2 0 -36 -23 -75 -51z"/>
<path d="M3629 5012 c-341 -234 -1424 -997 -1654 -1166 -347 -256 -445 -330
-445 -337 0 -4 57 -47 126 -94 l126 -87 21 20 c32 28 382 271 404 279 22 9 12
2 966 675 l777 549 0 185 c0 101 -4 184 -8 184 -5 0 -145 -94 -313 -208z"/>
<path d="M5937 4593 c-4 -3 -7 -66 -7 -138 0 -113 3 -134 18 -148 18 -16 144
-104 962 -669 283 -195 525 -361 538 -367 30 -16 366 -11 382 5 8 8 -22 34
-112 95 -197 136 -1752 1211 -1764 1220 -6 5 -14 6 -17 2z"/>
<path d="M3633 3699 l-33 -21 0 -802 0 -802 31 -23 c17 -13 32 -21 35 -18 2 2
3 382 2 845 l-3 841 -32 -20z"/>
</g>
</svg>
