<?xml version="1.0" encoding="UTF-8"?>
<svg version="1.1" xmlns="http://www.w3.org/2000/svg" width="3840" height="2160">
<path d="M0 0 C1242.12 0 2484.24 0 3764 0 C3764 451.11 3764 902.22 3764 1367 C2521.88 1367 1279.76 1367 0 1367 C0 915.89 0 464.78 0 0 Z " fill="#008FCA" transform="translate(38,397)"/>
<path d="M0 0 C6.270786 5.31578556 11.85763649 10.89480882 16.46386719 17.74414062 C19.5265987 11.89587847 21.9475334 6.02442877 24.15136719 -0.19335938 C24.75698029 -1.89085355 25.36492554 -3.58751813 25.97558594 -5.28320312 C26.23815186 -6.02304443 26.50071777 -6.76288574 26.77124023 -7.52514648 C27.46386719 -9.25585938 27.46386719 -9.25585938 28.46386719 -10.25585938 C31.0574604 -10.34437467 33.6242641 -10.37111882 36.21777344 -10.35351562 C36.99322006 -10.35210068 37.76866669 -10.35068573 38.56761169 -10.34922791 C41.05390213 -10.34361283 43.54010379 -10.33105784 46.02636719 -10.31835938 C47.70800652 -10.31334631 49.38964725 -10.30878307 51.07128906 -10.3046875 C55.20218285 -10.29363851 59.33300995 -10.27636382 63.46386719 -10.25585938 C63.50974324 28.22485312 63.54493629 66.70556146 63.56599785 105.18629581 C63.56849897 109.73943163 63.57108764 114.29256739 63.57373047 118.84570312 C63.57425509 119.7520698 63.57477971 120.65843648 63.57532023 121.59226881 C63.58399957 136.22733047 63.59975579 150.86237627 63.61817278 165.49742855 C63.63694084 180.53799885 63.64799844 195.57856089 63.65204418 210.61914241 C63.65477498 219.88414378 63.66336882 229.14910028 63.67970012 238.41408782 C63.69035246 244.78569564 63.69344936 251.15728059 63.69086994 257.52889664 C63.68960134 261.19333496 63.69140845 264.85769541 63.70227814 268.52211952 C63.8100227 306.8836423 61.90216433 342.86531908 33.46386719 371.74414062 C9.97405019 395.27737688 -24.49208595 401.68870592 -56.53613281 402.05664062 C-83.08534216 401.95648328 -110.52343732 397.81307115 -135.53613281 388.74414062 C-136.17921387 388.53305664 -136.82229492 388.32197266 -137.48486328 388.10449219 C-139.40722656 387.40820312 -139.40722656 387.40820312 -142.53613281 385.74414062 C-143.87521036 381.62211472 -143.66562207 377.32996867 -143.63378906 373.03710938 C-143.63237411 372.31171463 -143.63095917 371.58631989 -143.62950134 370.83894348 C-143.62393212 368.53646613 -143.61138542 366.23408828 -143.59863281 363.93164062 C-143.59361383 362.36458474 -143.58905162 360.79752733 -143.58496094 359.23046875 C-143.57397279 355.40165474 -143.55672954 351.57291452 -143.53613281 347.74414062 C-141.53613281 346.74414062 -141.53613281 346.74414062 -139.47436523 347.36157227 C-138.62205322 347.70567139 -137.76974121 348.04977051 -136.89160156 348.40429688 C-103.62024912 361.36934539 -56.85018852 372.95405211 -22.36035156 357.97851562 C-6.73518181 350.80026276 5.75998356 340.18250657 12.38310242 323.85780334 C16.08231472 313.20044316 16.91762453 302.35674433 16.97558594 291.15429688 C16.99353714 289.84375839 17.01148834 288.53321991 17.02998352 287.18296814 C17.07677669 283.75551177 17.10703682 280.32811772 17.13342285 276.90045166 C17.16359269 273.38012353 17.209994 269.86000951 17.25488281 266.33984375 C17.34010734 259.47473292 17.40780437 252.60955009 17.46386719 245.74414062 C14.25019682 247.25969482 12.41967787 248.6761033 10.15136719 251.43164062 C-5.19823468 269.39325458 -25.71489851 282.03485861 -49.53613281 284.74414062 C-80.5799521 286.63592553 -111.17345461 277.12145258 -134.66113281 256.36914062 C-136.29517571 254.837062 -137.92016002 253.295267 -139.53613281 251.74414062 C-140.37015625 250.97328125 -141.20417969 250.20242188 -142.06347656 249.40820312 C-167.63092534 225.06200383 -180.10738081 186.9940533 -181.64228821 152.34799194 C-181.69874753 149.93144521 -181.72677706 147.5167801 -181.73925781 145.09960938 C-181.74495789 144.20913406 -181.75065796 143.31865875 -181.75653076 142.40119934 C-181.76591208 140.52472087 -181.77248712 138.64822643 -181.77636719 136.77172852 C-181.78597887 133.97641137 -181.81702975 131.18186121 -181.84863281 128.38671875 C-182.09233002 86.70462039 -170.27870955 45.86803245 -140.53613281 15.74414062 C-106.27235493 -18.57472372 -39.80846143 -32.545252 0 0 Z " fill="#FDFEFE" transform="translate(1194.5361328125,941.255859375)"/>
<path d="M0 0 C0.70391876 0.00045319 1.40783752 0.00090637 2.13308716 0.00137329 C3.24039436 -0.00366463 3.24039436 -0.00366463 4.37007141 -0.00880432 C6.82242492 -0.01834185 9.27471037 -0.02025883 11.7270813 -0.02133179 C13.42479989 -0.02454243 15.12251821 -0.02790635 16.82023621 -0.03141785 C20.38383628 -0.03741614 23.94741208 -0.03925703 27.51101685 -0.03866577 C32.08566799 -0.03856411 36.66016405 -0.05221724 41.2347784 -0.06943798 C44.74255595 -0.08053648 48.25029575 -0.08258564 51.75808907 -0.08205605 C53.445049 -0.08323938 55.13200982 -0.08768082 56.81895256 -0.09538841 C59.1750778 -0.10514513 61.53086313 -0.10232757 63.88699341 -0.09628296 C64.58888794 -0.10190247 65.29078247 -0.10752197 66.01394653 -0.11331177 C70.84642177 -0.08167881 70.84642177 -0.08167881 73.07473755 2.14663696 C73.78326416 3.94496155 73.78326416 3.94496155 74.44631958 6.1835022 C74.83377098 7.47394188 74.83377098 7.47394188 75.22904968 8.79045105 C75.65153236 10.23326698 75.65153236 10.23326698 76.08255005 11.70523071 C76.39107407 12.73933578 76.69959808 13.77344086 77.01747131 14.83888245 C77.7091194 17.16031992 78.3977114 19.48266937 79.08380127 21.80575562 C80.23584914 25.70640503 81.39532651 29.60477876 82.55691528 33.50259399 C84.1195725 38.74842806 85.6799447 43.99493355 87.23809719 49.24210739 C90.88622902 61.52592948 94.55480426 73.80360814 98.2270813 86.08023071 C98.54232002 87.13411358 98.85755875 88.18799644 99.18235016 89.27381516 C100.49015464 93.64579829 101.79804784 98.01775487 103.10609436 102.3896656 C105.48573125 110.34320917 107.86421254 118.29709768 110.24221802 126.25112915 C123.99618996 172.25308123 137.79399809 218.24186506 151.59736538 264.22901535 C155.40859847 276.92649616 159.21861399 289.62434191 163.02786255 302.32241821 C163.28945915 303.19444571 163.55105576 304.0664732 163.82057953 304.96492577 C165.23867367 309.69215039 166.65672632 314.41938746 168.07473755 319.14663696 C183.83872926 267.03454414 199.57201206 214.91361892 215.15499115 162.74707413 C220.79160365 143.87927505 226.43270292 125.01281526 232.07473755 106.14663696 C232.42975594 104.95942802 232.78477432 103.77221909 233.15055084 102.54903412 C237.53048017 87.90294015 241.91445613 73.25807189 246.30887699 58.6163187 C248.04439321 52.83354856 249.77822393 47.05028693 251.50762939 41.26568604 C253.11056152 35.90431302 254.71818131 30.54436918 256.32954979 25.18552589 C256.92008548 23.21863442 257.50889421 21.25122353 258.09588051 19.28326988 C258.89587562 16.60219015 259.70202253 13.92303783 260.50979614 11.24429321 C260.74228593 10.45978444 260.97477571 9.67527567 261.21431065 8.8669939 C262.21137015 5.58167928 263.15567244 3.02523462 265.07473755 0.14663696 C268.11784363 -0.22085571 268.11784363 -0.22085571 272.07888794 -0.20980835 C273.15956291 -0.21287491 273.15956291 -0.21287491 274.2620697 -0.21600342 C276.64910057 -0.21901743 279.03544478 -0.20051803 281.4223938 -0.18148804 C283.07623625 -0.17843166 284.73008128 -0.17655462 286.38392639 -0.17581177 C289.85168287 -0.17120498 293.3192076 -0.15676381 296.78689575 -0.13461304 C301.24163917 -0.10630827 305.69620002 -0.09539984 310.15102482 -0.09093094 C313.5661249 -0.08678299 316.98118773 -0.07697114 320.39626884 -0.06505585 C322.03938942 -0.05934153 323.6825136 -0.05458669 325.32563972 -0.05078888 C327.61715178 -0.04394735 329.90851636 -0.03032574 332.19998169 -0.01449585 C334.15950523 -0.00425385 334.15950523 -0.00425385 336.15861511 0.00619507 C339.07473755 0.14663696 339.07473755 0.14663696 340.07473755 1.14663696 C340.17360687 3.25151732 340.2002948 5.35978653 340.20057869 7.46698761 C340.20203213 8.13812621 340.20348557 8.80926481 340.20498306 9.50074095 C340.20866872 11.77778858 340.20514485 14.05477034 340.20172119 16.33181763 C340.202872 17.96951409 340.20445925 19.60721029 340.20644844 21.24490595 C340.21064732 25.76714773 340.20854856 30.28936858 340.20546222 34.81161046 C340.2032106 39.68009796 340.20668654 44.54858171 340.20944214 49.41706848 C340.21390139 58.96311355 340.21292268 68.50915078 340.2100295 78.05519617 C340.20777607 85.80974223 340.20746268 93.5642861 340.20855331 101.3188324 C340.20870655 102.4202266 340.20885978 103.5216208 340.20901766 104.65639058 C340.20933736 106.89347231 340.20966158 109.13055405 340.20999025 111.36763579 C340.21284549 132.37147077 340.20955732 153.3753014 340.20418988 174.37913567 C340.1997218 192.42256927 340.20049772 210.46599644 340.20510864 228.50942993 C340.21045362 249.4353329 340.2125708 270.36123205 340.20949638 291.2871356 C340.20917781 293.51623758 340.20886344 295.74533955 340.20855331 297.97444153 C340.20839904 299.0713576 340.20824476 300.16827368 340.20808581 301.29842964 C340.20722043 309.04851762 340.208684 316.79860319 340.21103287 324.5486908 C340.21383022 333.98648226 340.21309399 343.4242654 340.20775212 352.8620559 C340.20511422 357.68232566 340.20411153 362.50258151 340.20740128 367.32285118 C340.21036243 371.72811349 340.20877447 376.13334889 340.20342372 380.53860873 C340.20229876 382.1395279 340.20289245 383.74044931 340.20529951 385.34136707 C340.20830251 387.50303999 340.20526007 389.66461849 340.20057869 391.82628632 C340.20041634 393.03135629 340.20025398 394.23642627 340.20008671 395.47801352 C340.07473755 398.14663696 340.07473755 398.14663696 339.07473755 399.14663696 C324.22473755 399.14663696 309.37473755 399.14663696 294.07473755 399.14663696 C293.74473755 281.33663696 293.41473755 163.52663696 293.07473755 42.14663696 C284.82473755 69.86663696 276.57473755 97.58663696 268.07473755 126.14663696 C259.19973755 155.89663696 259.19973755 155.89663696 255.1567688 169.44741821 C249.9239962 186.99871878 244.71430775 204.55686647 239.50418091 222.11489868 C238.69698314 224.83511724 237.8897726 227.55533201 237.08255005 230.27554321 C236.88036676 230.95687569 236.67818348 231.63820816 236.46987343 232.34018707 C233.23411571 243.24392864 229.99528553 254.14675477 226.75442505 265.04898071 C226.52991858 265.80424105 226.3054121 266.55950138 226.0741024 267.33764839 C223.786234 275.03407377 221.49784164 282.73034288 219.2079916 290.42617893 C218.05795424 294.29128681 216.90810101 298.15644945 215.7583313 302.02163696 C215.52923883 302.79175047 215.30014637 303.56186398 215.06411171 304.35531425 C211.8418132 315.18867704 208.62910805 326.02484835 205.42308044 336.86303711 C203.63259581 342.91581152 201.83971777 348.96787622 200.04630947 355.01978493 C198.57973991 359.9696059 197.11641572 364.9203713 195.65546322 369.87185287 C194.75431239 372.9231812 193.85007102 375.97358708 192.94495964 379.02374268 C192.52565636 380.43912062 192.10765393 381.85488468 191.69104195 383.27105713 C191.12153625 385.20634869 190.54699492 387.14015628 189.97219849 389.07388306 C189.65216858 390.1564035 189.33213867 391.23892395 189.00241089 392.35424805 C188.07473755 395.14663696 188.07473755 395.14663696 186.07473755 399.14663696 C174.19473755 399.14663696 162.31473755 399.14663696 150.07473755 399.14663696 C148.12165659 393.93842106 146.27187752 388.80110424 144.6411438 383.49819946 C144.41202301 382.75942062 144.18290222 382.02064178 143.94683838 381.25947571 C143.17420593 378.76437508 142.40554054 376.26807392 141.63723755 373.77163696 C141.22316147 372.43013077 141.22316147 372.43013077 140.80072021 371.06152344 C133.4091463 347.11292776 126.17062627 323.11750041 118.91277313 299.12813759 C113.58788763 281.52860017 108.24485458 263.93458406 102.89907074 246.34138489 C102.13639755 243.83137246 101.37378117 241.32134277 100.61117554 238.81130981 C93.89793961 216.71592138 87.17798368 194.62258339 80.45281982 172.53082275 C77.06249691 161.39376883 73.67295236 150.25647797 70.28366089 139.11911011 C69.48168491 136.48379522 68.6796384 133.84850181 67.87753296 131.21322632 C65.58618736 123.68494643 63.29612847 116.15627666 61.0078125 108.6270752 C60.32765171 106.38975012 59.64712028 104.15253767 58.96612549 101.91546631 C52.90995158 82.019278 47.00165779 62.08264141 41.07473755 42.14663696 C40.74473755 159.95663696 40.41473755 277.76663696 40.07473755 399.14663696 C24.89473755 399.14663696 9.71473755 399.14663696 -5.92526245 399.14663696 C-5.94784563 348.46081182 -5.96575951 297.77498789 -5.97632778 247.08915872 C-5.97757856 241.11198023 -5.97887288 235.13480176 -5.98019409 229.15762329 C-5.9804564 227.96762092 -5.98071871 226.77761855 -5.98098897 225.55155551 C-5.98534617 206.25611455 -5.993234 186.96067657 -6.00241525 167.66523737 C-6.01175039 147.88210564 -6.01731776 128.09897546 -6.01935095 108.31584162 C-6.02072646 96.09808008 -6.0250786 83.88032692 -6.03317892 71.66256797 C-6.03844466 63.29656485 -6.04006714 54.93056609 -6.03876383 46.56456143 C-6.03812018 41.73012067 -6.03914098 36.89569459 -6.04446793 32.06125641 C-6.04930104 27.64300316 -6.04960169 23.22477461 -6.04616135 18.80652028 C-6.04573556 17.20085985 -6.04703204 15.59519793 -6.05014563 13.98954047 C-6.05410827 11.82146206 -6.0520267 9.65347503 -6.04831028 7.48539829 C-6.04869 6.27674848 -6.04906972 5.06809867 -6.04946095 3.82282311 C-5.8379983 -0.73370065 -4.10083838 0.02741553 0 0 Z " fill="#FCFEFE" transform="translate(141.92526245117188,824.8533630371094)"/>
<path d="M0 0 C1.53416322 1.31797383 3.05514349 2.65144961 4.5625 4 C5.40167969 4.70898438 6.24085938 5.41796875 7.10546875 6.1484375 C35.55119078 30.67803139 49.19272811 71.63713403 52.39916992 108.12084961 C52.77951283 114.82545926 52.80739353 121.5364646 52.8125 128.25 C52.81317474 129.04857422 52.81384949 129.84714844 52.81454468 130.66992188 C52.79717242 143.64813695 52.1661019 156.24850092 49.5625 169 C49.39621094 169.82242187 49.22992187 170.64484375 49.05859375 171.4921875 C41.78927692 206.06182752 26.56475967 239.38259369 -3.54296875 259.55078125 C-33.74418117 278.93621871 -67.7043052 284.40197989 -102.95605469 277.54785156 C-124.41942653 272.80918505 -142.68323221 262.24026232 -158.4375 247 C-159.17613281 246.28714844 -159.91476562 245.57429688 -160.67578125 244.83984375 C-190.82612868 213.61843603 -200.14131317 164.11748904 -199.41381836 122.43041992 C-198.27983485 87.53378522 -189.19140373 44.30364051 -164.4375 18 C-163.94266113 17.46568359 -163.44782227 16.93136719 -162.93798828 16.38085938 C-122.65129417 -26.7979076 -48.06446082 -37.64174623 0 0 Z " fill="#FDFEFE" transform="translate(742.4375,946)"/>
<path d="M0 0 C15.43750631 13.30469294 25.33230727 31.72685791 27.19326973 52.11768341 C27.35166991 54.51116987 27.47229945 56.90332822 27.57641602 59.29980469 C27.61761094 60.2389912 27.65880587 61.17817772 27.70124912 62.14582443 C28.21041604 75.41915541 28.09473714 88.70452964 28.04459953 101.98499298 C28.02597571 106.92942122 28.01662434 111.87384293 28.00868225 116.81829834 C27.98476786 130.85887788 27.94851055 144.89941256 27.90405273 158.93994141 C27.87944647 166.73658412 27.86212525 174.53321031 27.85249335 182.3298862 C27.84599486 187.23619701 27.83053616 192.14236832 27.80817592 197.04863119 C27.7963848 200.10067807 27.79307519 203.15269191 27.79207802 206.2047596 C27.78994536 207.60996278 27.78440542 209.01516595 27.7750473 210.42033958 C27.33976096 223.81461228 27.33976096 223.81461228 32.0625 235.9375 C35.72651222 238.71939968 35.72651222 238.71939968 44 241 C44 251.23 44 261.46 44 272 C31.54795753 276.15068082 16.41044058 276.93779131 4.078125 271.77734375 C-5.25114251 266.94519552 -13.10851508 261.03593479 -17 251 C-17.90071964 247.35467916 -18.53356571 243.72451265 -19 240 C-19.70125 240.78503906 -20.4025 241.57007813 -21.125 242.37890625 C-42.45288879 266.08663385 -68.61022814 277.94411485 -100.359375 279.84375 C-127.25828407 280.90434601 -153.38194332 272.2768443 -174 254.9375 C-188.04747091 241.93704555 -198.03936474 221.97814305 -199.12426758 202.80371094 C-199.99675982 175.62949435 -193.15154989 154.07999561 -175.3125 133.375 C-141.12456571 97.07669939 -88.19532049 89.29072051 -41.12573242 82.73608398 C-33.56145941 81.65560807 -26.30814753 80.24682603 -19 78 C-18.46436662 59.16767977 -18.06410544 39.26944796 -31.8125 24.5625 C-45.17058168 12.36599064 -64.01214996 9.4851966 -81.5078125 9.81640625 C-104.29532343 11.01440738 -123.52893219 18.37426923 -139.1875 35.375 C-144.27425603 41.38662076 -147.75577145 47.84795069 -151 55 C-163.19424053 49.33791027 -175.17754579 43.40319863 -187 37 C-178.57247765 13.09244975 -152.80615199 -4.53941099 -131.10791016 -15.03808594 C-89.6629993 -33.95086666 -35.75611091 -28.33763945 0 0 Z " fill="#FCFEFE" transform="translate(2658,949)"/>
<path d="M0 0 C16.10105744 13.84011728 24.66990894 30.99192347 27.29296875 51.87890625 C27.38319889 54.33999339 27.42602346 56.80310303 27.43099976 59.26583862 C27.43382104 59.97600762 27.43664232 60.68617661 27.43954909 61.41786587 C27.4478322 63.77972789 27.44922789 66.14154266 27.45068359 68.50341797 C27.45535638 70.20411306 27.46050071 71.90480691 27.46607971 73.60549927 C27.4773285 77.2596716 27.48577807 80.91383592 27.49219894 84.56801987 C27.50291243 90.35113276 27.5231654 96.13418786 27.5453186 101.91726685 C27.60713294 118.35936845 27.66125274 134.80146592 27.69433594 151.24365234 C27.71270002 160.33084735 27.74165493 169.41794473 27.78234065 178.50506794 C27.80337362 183.3091374 27.81886274 188.11308407 27.82114792 192.917202 C27.82330043 197.43662588 27.83923117 201.95579378 27.86553764 206.47513962 C27.87270803 208.12905972 27.87484262 209.78301092 27.87143517 211.43694305 C27.82267724 223.4571158 27.82267724 223.4571158 31.29296875 234.87890625 C35.45877716 238.58184706 37.59684329 238.92955201 43.29296875 239.87890625 C43.29296875 250.76890625 43.29296875 261.65890625 43.29296875 272.87890625 C26.48096573 275.46536825 10.27466367 277.14992737 -4.30078125 266.8828125 C-11.77503761 260.65831004 -15.58033313 253.33676868 -17.70703125 243.87890625 C-17.8046875 241.01953125 -17.8046875 241.01953125 -17.70703125 238.87890625 C-18.36703125 238.87890625 -19.02703125 238.87890625 -19.70703125 238.87890625 C-19.97386719 239.4615625 -20.24070312 240.04421875 -20.515625 240.64453125 C-29.89713575 258.23870879 -52.29990264 269.17485456 -70.33203125 275.0625 C-99.88294114 283.32827705 -131.71826232 280.64624267 -158.81152344 265.97460938 C-163.81628747 263.08159276 -168.31599566 259.63597773 -172.70703125 255.87890625 C-173.43148438 255.26660156 -174.1559375 254.65429688 -174.90234375 254.0234375 C-189.54318811 240.55960219 -198.12095297 219.81206963 -199.0234375 200.22265625 C-199.7865387 172.86841311 -191.0980187 151.40296741 -172.99609375 130.9453125 C-138.65866485 94.68163758 -82.60565275 88.71996078 -36.00593567 81.83802795 C-30.21601379 80.97498559 -24.45463225 79.9917566 -18.70703125 78.87890625 C-18.75192191 74.98618966 -18.82248552 71.09477369 -18.91455078 67.20288086 C-18.95588865 65.2455092 -18.97821492 63.28776503 -19 61.33007812 C-19.37397524 46.63285103 -23.02136723 32.97357752 -33.89453125 22.56640625 C-44.0830504 14.11572816 -57.65535215 10.56913928 -70.70703125 9.87890625 C-72.19203125 9.79962891 -72.19203125 9.79962891 -73.70703125 9.71875 C-94.2135849 9.17285795 -112.88652268 13.8601497 -129.70703125 25.87890625 C-130.73828125 26.60078125 -131.76953125 27.32265625 -132.83203125 28.06640625 C-140.95955011 35.25432755 -146.30058901 45.13289283 -150.70703125 54.87890625 C-160.09542009 50.47044541 -169.47509693 46.04543366 -178.76953125 41.44140625 C-179.44113281 41.11205078 -180.11273437 40.78269531 -180.8046875 40.44335938 C-183.46192879 39.11750669 -185.59216119 37.99377631 -187.70703125 35.87890625 C-182.81326983 28.49777201 -177.83529302 21.57090055 -171.75 15.09765625 C-169.6558687 12.88488349 -169.6558687 12.88488349 -167.75 10.36328125 C-150.68372248 -10.39035642 -119.85100429 -21.8850943 -94.08422852 -24.92480469 C-60.36040809 -27.70943564 -26.57561175 -22.07354857 0 0 Z " fill="#FDFEFE" transform="translate(1513.70703125,949.12109375)"/>
<path d="M0 0 C25.72049792 22.44698 34.64226603 53.71119543 37.390625 86.8125 C37.80260812 95.45496305 37.68087684 104.10139725 37.578125 112.75 C37.56301995 115.00585023 37.54934205 117.26171049 37.53710938 119.51757812 C37.50463631 124.94944404 37.45491812 130.38092209 37.390625 135.8125 C32.30531343 136.65025794 27.37841342 136.95331448 22.22181702 136.93275452 C21.42771044 136.93360894 20.63360386 136.93446337 19.81543344 136.93534368 C17.16998238 136.93698317 14.52459555 136.9315023 11.87915039 136.92602539 C9.97666424 136.92574316 8.07417798 136.92590195 6.17169189 136.9264679 C1.01730255 136.92675448 -4.13706347 136.92088018 -9.2914474 136.91389394 C-14.68197304 136.90763729 -20.07249924 136.90705477 -25.46302795 136.90586853 C-35.66614016 136.90276203 -45.86924164 136.89455782 -56.07234913 136.88451904 C-67.69018498 136.87333675 -79.30802135 136.86784212 -90.92586124 136.86282361 C-114.82037177 136.85237465 -138.71487278 136.83478839 -162.609375 136.8125 C-162.62242411 139.03863986 -162.6317013 141.26480202 -162.6394043 143.4909668 C-162.64776558 145.3505024 -162.64776558 145.3505024 -162.65629578 147.24760437 C-162.59657594 151.78493276 -162.14267377 156.15099598 -161.421875 160.625 C-161.2880542 161.46973877 -161.1542334 162.31447754 -161.01635742 163.18481445 C-157.20311615 185.84545213 -148.1647804 210.87777962 -129.00097656 224.99755859 C-108.5797618 239.20236626 -86.17181341 245.91594925 -61.31738281 241.9921875 C-40.14575166 238.14466052 -23.19322365 227.01922998 -10.84082031 209.63867188 C-7.42200999 204.56874698 -4.49887168 199.1960036 -1.609375 193.8125 C2.97839923 195.22560634 7.22118485 197.07425214 11.50390625 199.21875 C12.15892624 199.54411743 12.81394623 199.86948486 13.48881531 200.20471191 C14.86212732 200.88851328 16.23441425 201.57437694 17.60571289 202.26220703 C19.71075708 203.31632181 21.82094196 204.3596062 23.93164062 205.40234375 C25.26855281 206.0696645 26.60515284 206.73761108 27.94140625 207.40625 C28.57363602 207.71776001 29.20586578 208.02927002 29.85725403 208.35021973 C34.27601446 210.58327891 34.27601446 210.58327891 35.390625 212.8125 C34.23111821 215.48546827 33.01092015 217.99874902 31.640625 220.5625 C31.03142212 221.70344116 31.03142212 221.70344116 30.40991211 222.86743164 C16.3567467 248.37822612 -6.87932441 266.81491554 -34.7434082 275.11108398 C-72.54932909 285.59736856 -112.8906122 281.5225834 -147.24609375 262.3984375 C-153.09489726 259.01248803 -158.40509035 255.13042992 -163.609375 250.8125 C-164.33125 250.24144531 -165.053125 249.67039062 -165.796875 249.08203125 C-193.81024092 226.04760341 -205.01787239 187.54666286 -208.92626953 153.01245117 C-209.74420679 144.39484562 -209.85246378 135.77398008 -209.859375 127.125 C-209.86004974 126.35926666 -209.86072449 125.59353333 -209.86141968 124.80459595 C-209.80904699 87.10947723 -202.85864828 47.45741206 -179.609375 16.8125 C-178.92746094 15.90757812 -178.24554687 15.00265625 -177.54296875 14.0703125 C-160.23031055 -8.22269942 -132.53696552 -21.79795698 -104.66796875 -25.71875 C-67.90023634 -29.74224486 -28.96634351 -24.28316223 0 0 Z " fill="#FDFEFE" transform="translate(3398.609375,950.1875)"/>
<path d="M0 0 C20.93024454 18.2210929 35.56007004 43.36735051 42.8125 70.125 C42.8125 70.785 42.8125 71.445 42.8125 72.125 C38.15439504 72.70236854 33.49539817 73.27169216 28.83544922 73.83398438 C27.25445874 74.02585371 25.67372068 74.21981618 24.09326172 74.41601562 C15.62397183 75.46597187 7.36561751 76.39924826 -1.1875 76.125 C-1.68378906 74.96484375 -2.18007812 73.8046875 -2.69140625 72.609375 C-14.0951852 46.24573916 -29.04778128 26.23367659 -56.1875 15.125 C-60.47396351 13.49993892 -64.7308215 12.19415267 -69.1875 11.125 C-70.56421875 10.78855469 -70.56421875 10.78855469 -71.96875 10.4453125 C-93.18716352 6.28148404 -120.62697527 6.81750099 -139.453125 18.53515625 C-141.46639383 19.97594978 -143.33006648 21.48916917 -145.1875 23.125 C-146.09435547 23.91003906 -146.09435547 23.91003906 -147.01953125 24.7109375 C-157.57576327 34.50822473 -163.91086528 49.47042769 -164.48828125 63.80859375 C-164.50766077 65.39311547 -164.51129092 66.97789999 -164.5 68.5625 C-164.49436035 69.39652344 -164.4887207 70.23054687 -164.48291016 71.08984375 C-164.36229439 77.20422737 -163.74703181 82.5077069 -161.1875 88.125 C-160.80851562 89.00027344 -160.42953125 89.87554688 -160.0390625 90.77734375 C-144.47405647 122.85205271 -97.14483289 134.73068823 -66.7109375 145.4609375 C29.23730344 179.32653284 29.23730344 179.32653284 51.02856445 222.86767578 C62.60426587 247.1872424 61.43185 277.49298649 53.625 302.8125 C47.51100653 319.68494488 38.56001809 335.26708101 24.8125 347.125 C23.93851563 347.87910156 23.06453125 348.63320312 22.1640625 349.41015625 C-10.83168483 376.76281085 -57.12101379 381.95306681 -98.43530273 378.1809082 C-113.39470645 376.64354334 -128.47294788 373.40230744 -142.1875 367.125 C-142.81849609 366.83753906 -143.44949219 366.55007813 -144.09960938 366.25390625 C-153.16757411 362.07136175 -161.39600399 357.43501437 -169.1875 351.125 C-169.73116211 350.69203613 -170.27482422 350.25907227 -170.83496094 349.81298828 C-190.32617745 334.19718654 -203.57565434 314.04330736 -215.1875 292.125 C-215.60757324 291.33931641 -216.02764648 290.55363281 -216.46044922 289.74414062 C-217.76116274 287.29607913 -219.04048764 284.83808073 -220.3125 282.375 C-220.9171106 281.2303125 -220.9171106 281.2303125 -221.53393555 280.0625 C-221.89656494 279.34578125 -222.25919434 278.6290625 -222.6328125 277.890625 C-222.95781738 277.25930664 -223.28282227 276.62798828 -223.61767578 275.97753906 C-224.32476318 273.67874763 -223.83447024 272.40095218 -223.1875 270.125 C-217.87095477 268.66859482 -212.55079648 267.22655916 -207.22680664 265.79760742 C-205.41682667 265.30966314 -203.60788952 264.81783311 -201.80004883 264.32202148 C-199.19878393 263.60933638 -196.59406841 262.91078607 -193.98828125 262.21484375 C-192.78018547 261.87899513 -192.78018547 261.87899513 -191.54768372 261.53636169 C-184.15230398 259.58850801 -184.15230398 259.58850801 -180.1875 261.125 C-178.73828125 263.6875 -178.73828125 263.6875 -177.5 267.125 C-166.79454347 294.58697859 -146.51012776 318.16829283 -119.57617188 330.49487305 C-92.85884948 342.12196748 -60.30288206 342.26054652 -33.125 331.96484375 C-17.48639428 325.20983489 -3.89017859 314.22347983 2.62207031 298.12353516 C5.35281981 290.68320678 7.5837886 283.08701548 7.8125 275.125 C7.874375 274.25230469 7.93625 273.37960937 8 272.48046875 C8.66282367 257.00767881 3.64433883 243.74576474 -6.375 232.0625 C-24.35478661 212.9477767 -49.67407669 202.56033251 -73.94519043 193.77838135 C-92.28151783 187.13205765 -110.30006744 179.89317992 -128.1875 172.125 C-129.16074219 171.70524902 -130.13398438 171.28549805 -131.13671875 170.85302734 C-165.28731901 156.07351471 -194.77416134 138.08001328 -209.1875 102.125 C-217.3341844 77.98445727 -214.03503222 51.97441404 -203.30859375 29.26416016 C-198.564155 19.76244596 -192.30414417 11.93069898 -185.1875 4.125 C-184.59324219 3.44824219 -183.99898437 2.77148438 -183.38671875 2.07421875 C-138.41162184 -46.47210174 -47.32319633 -40.00725868 0 0 Z " fill="#FDFEFE" transform="translate(2187.1875,851.875)"/>
<path d="M0 0 C0.89460938 0.391875 1.78921875 0.78375 2.7109375 1.1875 C8.81109963 4.04049891 13.82834793 7.72035769 19 12 C19.99 12.721875 20.98 13.44375 22 14.1875 C37.08747093 27.10170642 43.71562324 47.96370926 46 67 C46.13356589 70.09073553 46.13093759 73.17652195 46.12025452 76.26976013 C46.12153615 77.63855453 46.12153615 77.63855453 46.12284368 79.03500134 C46.12448586 82.08121576 46.11899781 85.12737466 46.11352539 88.17358398 C46.11324322 90.36178079 46.11340184 92.54997769 46.1139679 94.73817444 C46.11425471 100.6714633 46.10837672 106.60473192 46.10139394 112.53801608 C46.09514109 118.74133117 46.09455507 124.94464672 46.09336853 131.14796448 C46.09043755 142.22417425 46.08321674 153.30037566 46.07372581 164.37658162 C46.0651573 174.42968351 46.05891459 184.48278391 46.05493164 194.53588867 C46.05466892 195.19716263 46.05440619 195.85843658 46.05413551 196.53974914 C46.05283043 199.8573185 46.05156899 203.17488788 46.05032361 206.49245727 C46.03987212 233.99497668 46.02228369 261.49748782 46 289 C42.86746742 289.65095004 39.97792668 290.12573735 36.77636719 290.12939453 C35.97914246 290.13254669 35.18191772 290.13569885 34.36053467 290.13894653 C33.51452698 290.1369223 32.66851929 290.13489807 31.796875 290.1328125 C30.91847961 290.13376923 30.04008423 290.13472595 29.1350708 290.13571167 C27.28601001 290.13639019 25.4369468 290.13455885 23.58789062 290.13037109 C20.7460401 290.12499251 17.90434579 290.1303403 15.0625 290.13671875 C13.26562465 290.13605841 11.4687494 290.13477817 9.671875 290.1328125 C8.81777039 290.13483673 7.96366577 290.13686096 7.0836792 290.13894653 C1.1149675 290.1149675 1.1149675 290.1149675 0 289 C-0.10368683 286.15930545 -0.14157729 283.3426252 -0.13803101 280.50128174 C-0.14085229 279.59896749 -0.14367357 278.69665325 -0.14658034 277.76699615 C-0.15496744 274.71867903 -0.15626813 271.67039805 -0.15771484 268.62207031 C-0.16238033 266.4459981 -0.16752345 264.26992686 -0.17311096 262.09385681 C-0.18441713 257.39354798 -0.19283938 252.69324559 -0.19923019 247.99292755 C-0.20989236 240.55415982 -0.23013509 233.11543787 -0.25234985 225.67669678 C-0.28292407 215.23873366 -0.31214055 204.80076921 -0.33789062 194.36279297 C-0.33952881 193.69986141 -0.34116699 193.03692985 -0.34285481 192.35390946 C-0.36744813 182.3031659 -0.38561863 172.25242104 -0.40136719 162.20166016 C-0.41974142 150.52667261 -0.44871827 138.85176088 -0.4893719 127.1768291 C-0.51040586 120.99873891 -0.52589396 114.82074415 -0.52817917 108.64261627 C-0.53033456 102.82153408 -0.54629477 97.00065011 -0.57256889 91.17962837 C-0.5797312 89.05007332 -0.58187786 86.92049416 -0.57846642 84.79092979 C-0.53815328 60.84559882 -0.53815328 60.84559882 -11.6640625 40.125 C-22.66959584 30.07428462 -35.95837188 29.3502416 -50.16015625 29.62890625 C-72.94219751 30.66261424 -95.10546501 45.78368247 -111.82654285 60.20049667 C-114 62 -114 62 -117.17048931 64.19552994 C-122.44272021 68.09533752 -126.94001177 71.89021785 -128.19983864 78.5767746 C-128.80396022 84.17043862 -128.67613007 89.75761405 -128.56762695 95.37402344 C-128.57383081 97.52357267 -128.58575556 99.67311179 -128.60293579 101.82260132 C-128.63326794 107.62865966 -128.58404615 113.43158754 -128.52005029 119.2372694 C-128.46674211 125.31513188 -128.48726172 131.39274512 -128.49980164 137.47076416 C-128.51237835 148.9669181 -128.45898643 160.46177197 -128.38163012 171.95763421 C-128.29675709 185.05077928 -128.2858238 198.14366367 -128.28096449 211.23704481 C-128.26932378 238.15854056 -128.16527341 265.07903987 -128 292 C-134.39037231 292.02527062 -140.78073183 292.04283317 -147.17114258 292.05493164 C-149.34692873 292.05997308 -151.52271147 292.06680607 -153.69848633 292.07543945 C-156.81853067 292.08751338 -159.93853038 292.09323005 -163.05859375 292.09765625 C-164.52733192 292.10539818 -164.52733192 292.10539818 -166.02574158 292.11329651 C-166.92659988 292.11337204 -167.82745819 292.11344757 -168.75561523 292.11352539 C-169.95141457 292.11685631 -169.95141457 292.11685631 -171.17137146 292.12025452 C-173 292 -173 292 -174 291 C-174.09695905 289.44136748 -174.12371663 287.87832522 -174.12304783 286.31667995 C-174.12503888 285.2975374 -174.12702993 284.27839484 -174.12908131 283.22836918 C-174.12616847 282.09512512 -174.12325563 280.96188105 -174.12025452 279.79429626 C-174.12110894 278.60104455 -174.12196337 277.40779284 -174.12284368 276.17838198 C-174.12421188 272.85136008 -174.12106437 269.52439628 -174.11606562 266.19738138 C-174.11176446 262.61522505 -174.11320731 259.03307066 -174.1139679 255.45091248 C-174.11449334 249.23962411 -174.11134437 243.02834621 -174.10573006 236.81706047 C-174.09761787 227.83648162 -174.09500013 218.85590786 -174.09374207 209.87532575 C-174.0915511 195.30644802 -174.08488982 180.73757587 -174.07543945 166.16870117 C-174.06626648 152.01277698 -174.05918509 137.8568543 -174.05493164 123.70092773 C-174.05466892 122.82898775 -174.05440619 121.95704776 -174.05413551 121.05868535 C-174.05283051 116.68460719 -174.05156679 112.31052902 -174.05032361 107.93645084 C-174.03994961 71.62429646 -174.02205571 35.31214903 -174 -1 C-158.82 -1 -143.64 -1 -128 -1 C-127.67 11.21 -127.34 23.42 -127 36 C-122.71 31.71 -118.42 27.42 -114 23 C-111.20254394 20.61572164 -108.49896617 18.36253833 -105.5625 16.1875 C-104.49165161 15.38397095 -104.49165161 15.38397095 -103.39916992 14.56420898 C-72.84557418 -7.95951457 -35.41648996 -15.69913011 0 0 Z " fill="#FCFDFE" transform="translate(2937,932)"/>
<path d="M0 0 C1.00482422 0.00563965 2.00964844 0.0112793 3.04492188 0.01708984 C17.36467322 0.24812737 29.88681277 3.36080247 42.875 9.3125 C43.85210938 9.75335937 44.82921875 10.19421875 45.8359375 10.6484375 C53.73717793 14.56509823 59.68687332 20.15104628 65.875 26.3125 C66.88046875 27.26576172 66.88046875 27.26576172 67.90625 28.23828125 C86.38174437 47.17566298 87.19390585 76.29550732 87.10205078 101.02709961 C87.10148552 103.17706802 87.10180546 105.32703682 87.10293579 107.477005 C87.10350583 113.26935491 87.09180837 119.06162072 87.07778788 124.85395122 C87.06522199 130.92375297 87.06410542 136.99355699 87.06173706 143.06336975 C87.05553943 154.53766205 87.03915198 166.0119159 87.01903808 177.48619133 C86.99662546 190.55762731 86.9856722 203.6290652 86.97564721 216.70051563 C86.95478413 243.57119834 86.91964175 270.44184701 86.875 297.3125 C83.74246742 297.96345004 80.85292668 298.43823735 77.65136719 298.44189453 C76.85414246 298.44504669 76.05691772 298.44819885 75.23553467 298.45144653 C74.38952698 298.4494223 73.54351929 298.44739807 72.671875 298.4453125 C71.79347961 298.44626923 70.91508423 298.44722595 70.0100708 298.44821167 C68.16101001 298.44889019 66.3119468 298.44705885 64.46289062 298.44287109 C61.6210401 298.43749251 58.77934579 298.4428403 55.9375 298.44921875 C54.14062465 298.44855841 52.3437494 298.44727817 50.546875 298.4453125 C49.69277039 298.44733673 48.83866577 298.44936096 47.9586792 298.45144653 C41.9899675 298.4274675 41.9899675 298.4274675 40.875 297.3125 C40.77133531 294.51413606 40.73342149 291.74015126 40.73696899 288.94113159 C40.73414771 288.05247913 40.73132643 287.16382668 40.72841966 286.24824536 C40.7200326 283.24605468 40.71873186 280.24390068 40.71728516 277.24169922 C40.71261959 275.0984283 40.70747646 272.95515837 40.70188904 270.81188965 C40.69058231 266.18197599 40.68216027 261.55206886 40.67576981 256.92214584 C40.6651049 249.59204451 40.64486072 242.2619896 40.62265015 234.93191528 C40.56068607 214.08239893 40.5068103 193.23288423 40.47363281 172.38330078 C40.45524549 160.87895852 40.42625111 149.37469302 40.3856281 137.87040722 C40.36461354 131.7839149 40.34910884 125.69751912 40.34682083 119.61098862 C40.34466188 113.87361835 40.32866589 108.13644851 40.30243111 102.3991394 C40.29528185 100.30267571 40.29311569 98.20618761 40.29653358 96.10971451 C40.35854225 70.18949257 40.35854225 70.18949257 28.578125 47.6875 C16.0495731 37.57270581 0.17977805 36.99539819 -15.125 38.3125 C-42.38306622 42.66805206 -67.23648094 63.42398094 -86.125 82.3125 C-86.33074979 85.18254116 -86.41006875 87.95723889 -86.4034729 90.82913208 C-86.4092653 91.72105534 -86.4150577 92.61297861 -86.42102563 93.53192985 C-86.43811151 96.5384124 -86.44090949 99.54474225 -86.44384766 102.55126953 C-86.45313991 104.69932434 -86.46330752 106.84737552 -86.47428894 108.99542236 C-86.50168223 114.84221717 -86.5167659 120.68898777 -86.52971697 126.53583002 C-86.54530683 132.64044136 -86.57211016 138.74500294 -86.5977478 144.84957886 C-86.64460921 156.41634852 -86.68131762 167.98312748 -86.71442068 179.5499438 C-86.75259016 192.71542941 -86.80201379 205.88086514 -86.85240483 219.04630876 C-86.95583417 246.135007 -87.04357281 273.22372607 -87.125 300.3125 C-102.305 300.3125 -117.485 300.3125 -133.125 300.3125 C-133.125 203.6225 -133.125 106.9325 -133.125 7.3125 C-117.945 7.3125 -102.765 7.3125 -87.125 7.3125 C-86.795 19.5225 -86.465 31.7325 -86.125 44.3125 C-84.02125 42.105625 -81.9175 39.89875 -79.75 37.625 C-58.74696324 16.31158503 -30.58334953 -0.18142665 0 0 Z " fill="#FCFEFE" transform="translate(1752.125,923.6875)"/>
<path d="M0 0 C15.18 0 30.36 0 46 0 C56.11368246 27.89690745 66.16022476 55.8138612 76.08097839 83.77972412 C79.56113455 93.58720495 83.06049322 103.38780422 86.5625 113.1875 C86.87028381 114.0488858 87.17806763 114.91027161 87.49517822 115.79776001 C89.04363366 120.13135439 90.59230219 124.46487256 92.14111328 128.79833984 C94.32375122 134.905508 96.50519704 141.01310174 98.68612671 147.12088013 C100.23882967 151.46922483 101.79207498 155.81737386 103.34667969 160.16503906 C106.28998893 168.39828311 109.22705299 176.63362793 112.14590454 184.87557983 C113.53171598 188.78766443 114.9205217 192.69868297 116.30957031 196.60961914 C116.97367186 198.48213333 117.63629056 200.35517414 118.29736328 202.22875977 C119.21147138 204.81919934 120.13057785 207.40781434 121.05078125 209.99609375 C121.3209053 210.76586044 121.59102936 211.53562714 121.86933899 212.32872009 C123.00723078 215.51570261 124.11266964 218.16900445 126 221 C136.81137494 184.89394896 147.56180853 148.77032559 158.23293686 112.62256622 C159.61387134 107.94478203 160.99506347 103.2670739 162.3762207 98.58935547 C162.64822642 97.6681126 162.92023214 96.74686974 163.20048046 95.79771042 C164.01906369 93.02529457 164.83765671 90.25288162 165.65625 87.48046875 C165.92410498 86.57327591 166.19195995 85.66608307 166.46793175 84.73139954 C171.57583424 67.43190501 176.68739337 50.13350088 181.81369019 32.83944702 C182.64085001 30.04871323 183.46709648 27.25771167 184.29251099 24.46646118 C185.4129812 20.67754446 186.5363784 16.8894996 187.66015625 13.1015625 C188.15189331 11.43659477 188.15189331 11.43659477 188.65356445 9.73799133 C188.95101562 8.73729111 189.2484668 7.73659088 189.55493164 6.70556641 C189.81182266 5.83848053 190.06871368 4.97139465 190.33338928 4.07803345 C191 2 191 2 192 0 C207.18 0 222.36 0 238 0 C230.41834006 24.20650463 222.61015513 48.32085204 214.5625 72.375 C214.09951985 73.75904065 213.63654788 75.14308404 213.17358398 76.52713013 C212.94391434 77.21373372 212.71424469 77.90033731 212.47761536 78.60774708 C211.33378217 82.02747596 210.19019287 85.4472863 209.046875 88.8671875 C208.82388733 89.53413824 208.60089966 90.20108898 208.37115479 90.88825035 C204.63200932 102.07518649 200.94659612 113.27852647 197.3125 124.5 C190.85251681 144.43675439 184.30538155 164.34445885 177.75 184.25 C177.47444023 185.0867778 177.19888046 185.9235556 176.9149704 186.78569031 C174.36359269 194.53327016 171.811964 202.28076734 169.25994873 210.02813721 C165.41855774 221.69016122 161.58025794 233.35319892 157.74409866 245.01694489 C156.85911395 247.70766706 155.97405115 250.39836354 155.08895874 253.08905029 C154.79989592 253.96780445 154.51083309 254.84655861 154.21301079 255.75194168 C153.63484334 257.50956921 153.05667385 259.26719606 152.47850227 261.02482224 C151.0871925 265.25446516 149.69604888 269.48416258 148.30529785 273.71398926 C145.55488334 282.07870686 142.80232912 290.44270754 140.04296494 298.80447769 C138.70590188 302.85672684 137.37248542 306.91014831 136.04219723 310.96462631 C135.04054724 314.01396486 134.03353555 317.06153267 133.02734375 320.109375 C132.68050034 321.1702533 132.33365692 322.23113159 131.9763031 323.32415771 C124.68821001 345.3244458 113.90800649 366.19321447 99 384 C98.27296875 384.89074219 97.5459375 385.78148437 96.796875 386.69921875 C88.06295147 396.95686635 77.60905857 404.26326371 65 409 C64.14857422 409.34345459 63.29714844 409.68690918 62.41992188 410.04077148 C52.98621712 413.45268863 44.04423453 413.58187972 34.10644531 413.46655273 C31.37243245 413.43747269 28.64035323 413.44600914 25.90625 413.45898438 C24.13280327 413.45274781 22.35936253 413.44435751 20.5859375 413.43359375 C19.7866684 413.43652939 18.98739929 413.43946503 18.16390991 413.44248962 C11.38614372 413.33199639 6.9781357 411.90312792 0 410 C0 398.45 0 386.9 0 375 C4.62 375.33 9.24 375.66 14 376 C33.54128904 376.86253157 52.11306705 375.35929082 67.8125 362.25 C83.83824194 346.9435463 92.74904559 323.35974179 99.5625 302.75 C99.82635498 301.97615967 100.09020996 301.20231934 100.36206055 300.4050293 C100.59449463 299.66808838 100.82692871 298.93114746 101.06640625 298.171875 C101.27209229 297.5334668 101.47777832 296.89505859 101.68969727 296.23730469 C102.67642564 289.12292325 99.53951423 282.27993882 97.1953125 275.7109375 C96.80480209 274.60071732 96.41429169 273.49049713 96.01194763 272.34663391 C94.94566298 269.31998621 93.87350174 266.29550249 92.79851151 263.27193832 C91.89031044 260.71399924 90.98713617 258.15429761 90.08399296 255.59456921 C83.59007036 237.19031941 77.00697992 218.8179899 70.39910889 200.45437622 C63.91805808 182.4408922 57.55839047 164.38694511 51.25 146.3125 C44.74912707 127.68719873 38.20418479 109.07958642 31.5456543 90.51000977 C25.74869465 74.33749652 20.03828949 58.13469163 14.33911133 41.92749023 C13.62340064 39.89430124 12.90750213 37.86117836 12.19140625 35.828125 C11.84644608 34.84812027 11.5014859 33.86811554 11.14607239 32.8584137 C9.35457476 27.78369082 7.53857989 22.71915464 5.68701172 17.66601562 C5.31422592 16.64852234 4.94144012 15.63102905 4.55735779 14.58270264 C3.84420395 12.64182137 3.12807934 10.70202837 2.40858459 8.76348877 C2.0919133 7.90277771 1.775242 7.04206665 1.44897461 6.15527344 C1.1683165 5.39841248 0.88765839 4.64155151 0.59849548 3.86175537 C0 2 0 2 0 0 Z " fill="#FDFEFE" transform="translate(3466,931)"/>
<path d="M0 0 C0.68578125 0.52078125 1.3715625 1.0415625 2.078125 1.578125 C2.74328125 2.07828125 3.4084375 2.5784375 4.09375 3.09375 C26.47366297 21.24438807 33.44178034 52.95587736 36.671875 80.13671875 C37.37436819 87.82193392 37.32242066 95.55432933 37.328125 103.265625 C37.32879974 104.08593201 37.32947449 104.90623901 37.33016968 105.75140381 C37.2872942 138.65492707 32.07560691 176.56557481 8.2890625 201.52734375 C-5.47635673 214.2956213 -21.26642523 221.36637599 -40.046875 221.890625 C-59.69294382 221.10215401 -77.81307571 215.09608369 -91.38671875 200.421875 C-112.80805195 174.69447228 -118.31528311 140.68919117 -118.23754883 108.15307617 C-118.23439828 105.41088671 -118.25792053 102.66979097 -118.28320312 99.92773438 C-118.40135441 67.05484915 -111.69160575 31.51909079 -88.359375 6.890625 C-64.46814554 -15.77541321 -27.16477005 -19.34757004 0 0 Z " fill="#008FCA" transform="translate(709.921875,970.421875)"/>
<path d="M0 0 C4.05350923 3.47541963 7.88128137 7.19490391 11.6875 10.9375 C12.50963989 11.74513794 12.50963989 11.74513794 13.34838867 12.5690918 C13.87021729 13.09543213 14.3920459 13.62177246 14.9296875 14.1640625 C15.38972168 14.62635254 15.84975586 15.08864258 16.32373047 15.56494141 C16.81502441 16.14163574 17.30631836 16.71833008 17.8125 17.3125 C18.49122162 18.06845459 19.16994324 18.82440918 19.86923218 19.60327148 C23.14031586 24.60757887 22.40194918 30.64839474 22.39355469 36.40771484 C22.4055356 37.7422434 22.41914909 39.07675815 22.43426514 40.41125488 C22.46952124 44.02763559 22.47897375 47.64363736 22.48152828 51.26017332 C22.4843792 53.52677648 22.49293371 55.79328458 22.50351715 58.05986404 C22.54051457 65.98870149 22.55686108 73.91727052 22.55371094 81.84619141 C22.55131632 89.20030166 22.59335608 96.55323014 22.65668559 103.90704191 C22.70930256 110.24626929 22.73043313 116.58511469 22.7278893 122.92455828 C22.72687734 126.69918597 22.73782447 130.47276594 22.7806015 134.24717331 C23.09876471 164.40337603 23.09876471 164.40337603 13.8125 177.3125 C13.118078 178.29286224 12.42365601 179.27322449 11.70819092 180.28329468 C9.86321253 182.76586099 7.90295975 185.03417867 5.8125 187.3125 C5.14863281 188.06789063 4.48476562 188.82328125 3.80078125 189.6015625 C-8.82638243 203.18568314 -26.8523622 211.92356037 -45.30078125 213.4921875 C-63.64607472 214.11406186 -82.36192379 209.19290338 -96.375 197.0625 C-120.17059456 174.39465874 -126.36182367 141.27747975 -127.29760742 109.58325195 C-127.35686253 105.61766037 -127.38136377 101.65342555 -127.375 97.6875 C-127.37439575 96.98695496 -127.3737915 96.28640991 -127.37316895 95.56463623 C-127.29834699 63.49430338 -122.6096974 27.87431616 -99.046875 4.00390625 C-71.78942276 -21.65235686 -29.49490538 -22.53811025 0 0 Z " fill="#008FCA" transform="translate(1190.1875,978.6875)"/>
<path d="M0 0 C15.18 0 30.36 0 46 0 C46 31.68 46 63.36 46 96 C62.5 96 79 96 96 96 C96 107.88 96 119.76 96 132 C88.12299561 133.12528634 88.12299561 133.12528634 84.47338867 133.12939453 C83.65952194 133.13254669 82.84565521 133.13569885 82.00712585 133.13894653 C80.72549309 133.13591019 80.72549309 133.13591019 79.41796875 133.1328125 C78.52257889 133.13376923 77.62718903 133.13472595 76.70466614 133.13571167 C74.82467579 133.1363887 72.94468305 133.13456785 71.06469727 133.13037109 C68.17914655 133.12498441 65.29374925 133.13034835 62.40820312 133.13671875 C60.57812466 133.1360585 58.74804628 133.13477845 56.91796875 133.1328125 C56.05342575 133.13483673 55.18888275 133.13686096 54.29814148 133.13894653 C48.22995987 133.11497994 48.22995987 133.11497994 46 132 C46.06053042 159.24250109 46.13802757 186.48490821 46.23571491 213.72730255 C46.28067755 226.37646146 46.32009121 239.02559217 46.34643555 251.67480469 C46.36941175 262.7000469 46.40280569 273.72519995 46.44870156 284.75037146 C46.47263872 290.58793301 46.49136433 296.42540623 46.49761391 302.26301575 C46.50366243 307.75905887 46.52365427 313.25487597 46.55427551 318.75083542 C46.56305939 320.76638088 46.5667776 322.78195586 46.56500816 324.79751968 C46.56335266 327.55379074 46.58007843 330.30937505 46.60127258 333.06555176 C46.59642501 333.85934817 46.59157743 334.65314458 46.58658296 335.47099543 C46.66612061 341.75762127 47.72989225 347.52958862 52.125 352.3125 C61.98048926 358.0972437 72.8186066 358.17645237 83.9375 358.5625 C87.918125 358.706875 91.89875 358.85125 96 359 C96 369.56 96 380.12 96 391 C72.10536194 396.97365952 44.27389069 399.94693951 21.6875 387.72265625 C12.66016289 381.93623813 5.56464025 372.49171013 3 362 C2.11169524 356.59830763 1.70986302 351.2679557 1.47265625 345.80859375 C1.43133072 344.86463242 1.39000519 343.92067108 1.34742737 342.94810486 C0.76870944 328.52690872 0.63336544 314.09264225 0.46757126 299.66200256 C0.43719071 297.03576338 0.40534189 294.40954485 0.37332153 291.7833252 C-0.27322768 237.85921999 -0.08922833 183.92685957 0 130 C-14.19 130 -28.38 130 -43 130 C-43.6476314 125.46658017 -44.12749488 121.64931413 -44.1328125 117.171875 C-44.13410156 116.12515625 -44.13539063 115.0784375 -44.13671875 114 C-44.13285156 112.9275 -44.12898438 111.855 -44.125 110.75 C-44.12886719 109.66203125 -44.13273437 108.5740625 -44.13671875 107.453125 C-44.13542969 106.4115625 -44.13414062 105.37 -44.1328125 104.296875 C-44.13168457 103.35166992 -44.13055664 102.40646484 -44.12939453 101.43261719 C-44 99 -44 99 -43 96 C-28.81 96 -14.62 96 0 96 C0 64.32 0 32.64 0 0 Z " fill="#FCFEFE" transform="translate(2317,835)"/>
<path d="M0 0 C0.79719955 0.00222061 1.59439911 0.00444122 2.41575623 0.00672913 C3.31661453 0.00680466 4.21747284 0.00688019 5.14562988 0.00695801 C6.12478867 0.01211929 7.10394745 0.01728058 8.11277771 0.02259827 C9.11018478 0.02401321 10.10759186 0.02542816 11.13522339 0.02688599 C14.3348027 0.03250337 17.53431315 0.04505881 20.73387146 0.05775452 C22.89728191 0.06276728 25.06069345 0.06733057 27.22410583 0.07142639 C32.53988471 0.08247845 37.85562317 0.09923348 43.17137146 0.12025452 C43.20395802 14.28690916 43.22304677 28.45356683 43.23387146 42.62025452 C43.23472748 43.74039696 43.2355835 44.8605394 43.23646545 46.01462555 C43.26415919 87.48997047 43.04243651 128.96117372 42.74201965 170.43522644 C42.22447093 239.99452255 42.22447093 239.99452255 41.93919373 309.55500793 C41.92896822 313.93580309 41.91168793 318.31647762 41.88792419 322.69721985 C41.86102344 327.70780524 41.84822912 332.71821266 41.84729767 337.72886848 C41.84464209 339.52431799 41.8369738 341.31976864 41.82375336 343.11517143 C41.80679987 345.53514001 41.80844749 347.954402 41.81492615 350.37440491 C41.80570885 351.0645978 41.79649155 351.75479069 41.78699493 352.46589851 C41.8393265 358.55049574 43.54235468 362.93126322 47.17137146 367.80775452 C56.9680348 375.35934917 69.41792347 375.18068699 81.23387146 375.68275452 C84.51324646 375.82712952 87.79262146 375.97150452 91.17137146 376.12025452 C91.17137146 386.68025452 91.17137146 397.24025452 91.17137146 408.12025452 C69.47734192 413.33987065 41.00166312 416.9857226 20.15184021 406.33900452 C10.07443578 400.13752487 1.95532876 391.65129475 -1.42833501 380.06712443 C-3.12512287 372.34339813 -3.10548558 364.71470944 -3.0758667 356.83984375 C-3.07745707 355.30162384 -3.07992293 353.76340464 -3.08318311 352.22518736 C-3.08956798 348.01969317 -3.08355084 343.81429594 -3.07541883 339.60880816 C-3.06881975 335.0656337 -3.07379497 330.52246968 -3.07730103 325.97929382 C-3.08233361 317.09020043 -3.07671407 308.20114434 -3.06745072 299.31205558 C-3.05705588 288.9649225 -3.05713717 278.61779743 -3.0576233 268.27066011 C-3.05812351 249.81792915 -3.04897152 231.36521555 -3.03443909 212.91249084 C-3.02033404 194.9932168 -3.01326913 177.07395802 -3.01393127 159.15467834 C-3.01397123 158.04969562 -3.01401119 156.9447129 -3.01405235 155.80624586 C-3.01409271 154.7031973 -3.01413306 153.60014875 -3.01417464 152.46367449 C-3.01486355 132.07148228 -3.00898221 111.67929657 -3.00002142 91.28710647 C-2.99700014 84.06741055 -2.9959413 76.84771582 -2.99548912 69.62801933 C-2.99480865 60.84188481 -2.99036691 52.05576125 -2.98115631 43.26963138 C-2.97652456 38.78346885 -2.97349789 34.2973204 -2.97475052 29.81115532 C-2.97583976 25.71156911 -2.97236299 21.61201412 -2.96510199 17.51243443 C-2.96327803 16.02282072 -2.96316859 14.5332038 -2.96486928 13.04358994 C-2.96691288 11.03219731 -2.96229776 9.02080109 -2.95726299 7.00941372 C-2.95655857 5.88820423 -2.95585414 4.76699473 -2.95512837 3.61180919 C-2.78103703 0.18288693 -2.78103703 0.18288693 0 0 Z " fill="#FCFDFE" transform="translate(3067.828628540039,815.8797454833984)"/>
<path d="M0 0 C0 13.53 0 27.06 0 41 C-4.31737117 41.61676731 -8.56639121 42.16648609 -12.89672852 42.59423828 C-36.35714838 45.02878446 -57.45901553 53.69615917 -73.25 71.625 C-80.88867068 81.34356804 -86.48581093 91.93890706 -90.8125 103.5 C-91.07828857 104.20970947 -91.34407715 104.91941895 -91.61791992 105.65063477 C-96.46523164 119.33922363 -98.59689394 131.91208667 -98.54589844 146.33007812 C-98.55465954 147.99745129 -98.56515401 149.66481609 -98.57722473 151.33216858 C-98.60479523 155.80428748 -98.60849591 160.27612815 -98.60750484 164.74831963 C-98.61065916 169.44217856 -98.63632912 174.13591672 -98.65948486 178.82971191 C-98.69985712 187.69379419 -98.72034114 196.55780325 -98.73345876 205.42196321 C-98.74939283 215.52377924 -98.78783502 225.62547179 -98.82805204 235.72721577 C-98.9101937 256.48476965 -98.96444609 277.24231742 -99 298 C-105.39037231 298.02527062 -111.78073183 298.04283317 -118.17114258 298.05493164 C-120.34692873 298.05997308 -122.52271147 298.06680607 -124.69848633 298.07543945 C-127.81853067 298.08751338 -130.93853038 298.09323005 -134.05859375 298.09765625 C-135.52733192 298.10539818 -135.52733192 298.10539818 -137.02574158 298.11329651 C-137.92659988 298.11337204 -138.82745819 298.11344757 -139.75561523 298.11352539 C-140.95141457 298.11685631 -140.95141457 298.11685631 -142.17137146 298.12025452 C-144 298 -144 298 -145 297 C-145.09695905 295.44136748 -145.12371663 293.87832522 -145.12304783 292.31667995 C-145.12503888 291.2975374 -145.12702993 290.27839484 -145.12908131 289.22836918 C-145.12616847 288.09512512 -145.12325563 286.96188105 -145.12025452 285.79429626 C-145.12110894 284.60104455 -145.12196337 283.40779284 -145.12284368 282.17838198 C-145.12421188 278.85136008 -145.12106437 275.52439628 -145.11606562 272.19738138 C-145.11176446 268.61522505 -145.11320731 265.03307066 -145.1139679 261.45091248 C-145.11449334 255.23962411 -145.11134437 249.02834621 -145.10573006 242.81706047 C-145.09761787 233.83648162 -145.09500013 224.85590786 -145.09374207 215.87532575 C-145.0915511 201.30644802 -145.08488982 186.73757587 -145.07543945 172.16870117 C-145.06626648 158.01277698 -145.05918509 143.8568543 -145.05493164 129.70092773 C-145.05466892 128.82898775 -145.05440619 127.95704776 -145.05413551 127.05868535 C-145.05283051 122.68460719 -145.05156679 118.31052902 -145.05032361 113.93645084 C-145.03994961 77.62429646 -145.02205571 41.31214903 -145 5 C-129.82 5 -114.64 5 -99 5 C-98.67 23.15 -98.34 41.3 -98 60 C-94.7 54.72 -91.4 49.44 -88 44 C-84.42196978 39.52746223 -80.85668333 35.21025996 -77 31 C-76.21109375 30.11699219 -75.4221875 29.23398437 -74.609375 28.32421875 C-54.88600036 7.32731496 -28.03003431 0 0 0 Z " fill="#FCFEFE" transform="translate(997,926)"/>
<path d="M0 0 C0 23.43 0 46.86 0 71 C0.66 71 1.32 71 2 71 C0.84046878 84.91437461 -9.23026842 94.04378653 -19.28515625 102.84375 C-38.83936495 118.37457475 -64.04088108 127.41666826 -89 126 C-102.54127152 123.80924652 -114.84918513 116.69852178 -123.25 105.875 C-132.45912122 92.5300459 -134.64557941 77.41157349 -132.5390625 61.5234375 C-129.74968707 47.77345744 -122.6553791 36.3214713 -111.00317383 28.42553711 C-84.84027582 11.48667011 -53.41576383 7.41272338 -23.00390625 4.43115234 C-15.51163789 3.6752074 -7.16280629 0 0 0 Z " fill="#008FCA" transform="translate(1493,1068)"/>
<path d="M0 0 C0 23.43 0 46.86 0 71 C0.99 71.33 1.98 71.66 3 72 C-2.99718214 92.3983103 -18.68372687 103.99831199 -36.48046875 113.9453125 C-54.75608684 123.48580466 -75.71028504 129.67355425 -96.25 124.4375 C-108.90560745 120.356887 -120.23931875 111.86825082 -126.94140625 100.2265625 C-130.46486122 92.81560556 -132.64937175 85.1959353 -133 77 C-133.0515625 76.24589844 -133.103125 75.49179688 -133.15625 74.71484375 C-133.6949615 60.91036144 -129.70111735 48.12270554 -120.625 37.75 C-119.09887729 36.15167899 -117.55853928 34.56672776 -116 33 C-115.22076172 32.16855469 -115.22076172 32.16855469 -114.42578125 31.3203125 C-92.68463026 10.20685878 -52.28069087 7.32793753 -23.89453125 4.4765625 C-16.14193166 3.69492018 -7.40532726 0 0 0 Z " fill="#008FCA" transform="translate(2637,1068)"/>
<path d="M0 0 C17.04814772 12.76565301 23.61584434 31.21306726 27.0625 51.5625 C27.96323499 60.26960494 27.8125 69.0589293 27.8125 77.8125 C-22.6775 77.8125 -73.1675 77.8125 -125.1875 77.8125 C-124.57484978 69.84804711 -123.99301234 62.47435191 -122.375 54.75 C-122.19686768 53.89003418 -122.01873535 53.03006836 -121.83520508 52.14404297 C-118.37002912 35.92231574 -112.36767231 21.27233059 -101.1875 8.8125 C-100.66929687 8.18988281 -100.15109375 7.56726563 -99.6171875 6.92578125 C-76.85992846 -18.5188928 -26.74140019 -17.48476166 0 0 Z " fill="#008FCA" transform="translate(3362.1875,972.1875)"/>
</svg>
