<svg xmlns="http://www.w3.org/2000/svg" viewBox="0 0 117.94 17.42"><g id="Layer_2" data-name="Layer 2"><g id="Layer_1-2" data-name="Layer 1"><path id="path813" d="M96.76,0V12.1a1.36,1.36,0,0,0,.64,1.17,2.78,2.78,0,0,0,1.54.35,4.83,4.83,0,0,0,1-.15V12.39l-.49,0c-1,0-1.17-.4-1.17-.84V0Zm-32,.12a4.33,4.33,0,0,0-2.9,1,3.18,3.18,0,0,0-1.11,2.43A2.9,2.9,0,0,0,62,6,11.09,11.09,0,0,0,64.8,7.31c1.71.6,3.3,1.16,3.3,2.7a2.18,2.18,0,0,1-.68,1.68,3,3,0,0,1-2.1.66,3.57,3.57,0,0,1-3.46-2.64l-1.46.38A7.23,7.23,0,0,0,62,12.51a4.6,4.6,0,0,0,3.21,1.13,4.75,4.75,0,0,0,3.53-1.21,3.83,3.83,0,0,0,1-2.66,3,3,0,0,0-1.37-2.56,10.74,10.74,0,0,0-2.85-1.29c-1.64-.56-3.21-1.1-3.19-2.48A1.88,1.88,0,0,1,63,2a2.59,2.59,0,0,1,1.76-.54,3.25,3.25,0,0,1,2,.66,3,3,0,0,1,1,1.64l1.42-.19A4.37,4.37,0,0,0,64.76.12ZM0,.31V13.45H1.52v-12l0,0,3.6,12H6.33L10,1.47l0,0v12h1.52V.31H9L5.75,10.87v0l0,0L2.52.31ZM72.13.57V3.73H70.68v1.2h1.45V12.1a1.33,1.33,0,0,0,.6,1.17,2.75,2.75,0,0,0,1.53.35,5.15,5.15,0,0,0,1-.15V12.39l-.52,0c-1,0-1.12-.4-1.12-.84V4.93h1.64V3.73H73.65V.57Zm-54.5,3A3.82,3.82,0,0,0,14.52,5a5.78,5.78,0,0,0-1.09,3.56,5.8,5.8,0,0,0,1.09,3.56,3.82,3.82,0,0,0,3.11,1.48,3.82,3.82,0,0,0,3.11-1.48,5.8,5.8,0,0,0,1.09-3.56A5.78,5.78,0,0,0,20.74,5,3.82,3.82,0,0,0,17.63,3.54Zm87.41,0a4.29,4.29,0,0,0-1.76.35,3.52,3.52,0,0,0-1.29,1A5.87,5.87,0,0,0,100.9,8.6a5.28,5.28,0,0,0,1.39,3.91,4.25,4.25,0,0,0,3,1.11A3.69,3.69,0,0,0,109,11.36l-1.21-.59a2.61,2.61,0,0,1-2.48,1.66,2.51,2.51,0,0,1-2.07-1,4.16,4.16,0,0,1-.75-2.54h6.63V8a4.59,4.59,0,0,0-1.21-3.5A4,4,0,0,0,105,3.56Zm-71.89,0c-1.71,0-4.14,1.15-4.14,5s2.42,5,4.06,5a3.12,3.12,0,0,0,2.41-1.29l.09,0v1.84a2.18,2.18,0,0,1-2.32,2.09,7.21,7.21,0,0,1-3-.62v1.31a7.94,7.94,0,0,0,2.85.49c2.69,0,4-1.48,4-3.62v-10H35.91l-.32,1A2.89,2.89,0,0,0,33.15,3.58Zm9.79,0a3.9,3.9,0,0,0-3.61,2.09l1.21.64A2.41,2.41,0,0,1,43,4.79c1.29,0,1.94.57,1.94,1.7v.35a.27.27,0,0,1,0,.14c-.05.06-.18.11-.51.15a8.93,8.93,0,0,0-3.89,1.06,3.06,3.06,0,0,0-1.56,2.66,2.9,2.9,0,0,0,.94,2.07,2.94,2.94,0,0,0,1.93.74,3.48,3.48,0,0,0,3.15-1.4,1.15,1.15,0,0,0,.66,1.07,2.23,2.23,0,0,0,1.33.1v-1a.52.52,0,0,1-.55-.6V6.51a2.64,2.64,0,0,0-1.11-2.27,4,4,0,0,0-2.33-.66Zm10.42,0a3.87,3.87,0,0,0-2.85,1.48V3.77H49v9.7h1.51V6.27a4.42,4.42,0,0,1,2.73-1.48c1,0,1.51.52,1.51,1.68v7h1.52v-7A2.68,2.68,0,0,0,53.36,3.58Zm27.41,0a3.88,3.88,0,0,0-3.6,2.09l1.21.64a2.41,2.41,0,0,1,2.41-1.52c1.29,0,1.95.57,1.95,1.7v.35a.38.38,0,0,1,0,.14c0,.06-.16.11-.49.15a8.93,8.93,0,0,0-3.89,1.06,3.06,3.06,0,0,0-1.56,2.66,2.9,2.9,0,0,0,.94,2.07,2.94,2.94,0,0,0,1.93.74,3.48,3.48,0,0,0,3.15-1.4,1.15,1.15,0,0,0,.66,1.07,2.23,2.23,0,0,0,1.33.1v-1a.53.53,0,0,1-.56-.6V6.51a2.67,2.67,0,0,0-1.12-2.27,4,4,0,0,0-2.32-.66Zm10.43,0a3.87,3.87,0,0,0-2.85,1.48V3.77H86.83v9.7h1.52V6.27a4.42,4.42,0,0,1,2.72-1.48c1.06,0,1.52.52,1.52,1.68v7H94.1v-7A2.67,2.67,0,0,0,91.2,3.58Zm-62.76,0a3.34,3.34,0,0,0-3.24,2V3.77H23.69v9.68H25.2V8C25.58,6,26.63,5,28.44,5Zm81.67.13,3.38,9.62v.08a4.6,4.6,0,0,1-1.31,2.42,2.33,2.33,0,0,1-1.35.35,4.4,4.4,0,0,1-.74-.11v1.17a5.47,5.47,0,0,0,1,.14,3,3,0,0,0,1.84-.55,5.92,5.92,0,0,0,1.62-2.6l3.38-10.52h-1.48l-2.21,7.45,0,.16,0-.16-2.6-7.45Zm-92.48,1c1.63,0,2.6,1.43,2.6,3.83s-1,3.83-2.6,3.83S15,11,15,8.58,16,4.75,17.63,4.75Zm15.62,0A2.88,2.88,0,0,1,35.57,6v4.63a2.7,2.7,0,0,1-2.32,1.76c-1.56,0-2.64-1-2.64-3.89C30.61,6.06,31.58,4.77,33.25,4.77Zm71.83,0c1.73,0,2.51.92,2.52,2.91h-5.1C102.63,5.69,103.46,4.77,105.08,4.77ZM44.94,8.19v2.46c-.07.85-1.65,1.87-2.95,1.8a1.6,1.6,0,0,1-1.47-1.56c-.12-1.57,1.06-2.23,3.71-2.52A2,2,0,0,0,44.94,8.19Zm37.84,0v2.46c-.07.84-1.65,1.87-3,1.8a1.61,1.61,0,0,1-1.47-1.56c-.12-1.57,1.06-2.23,3.7-2.52A2.06,2.06,0,0,0,82.78,8.19Z"/></g></g></svg>