<?xml version="1.0" encoding="UTF-8"?>
<svg version="1.1" xmlns="http://www.w3.org/2000/svg" width="1200" height="482">
<path d="M0 0 C5.49351891 4.48475327 6.88278793 9.18806756 8 16 C8.23965211 19.28803868 8.23531402 22.55233099 8.1953125 25.84765625 C8.1924826 26.74495956 8.18965271 27.64226288 8.18673706 28.5667572 C8.17564979 31.39881414 8.15056747 34.23054061 8.125 37.0625 C8.11495537 38.99674019 8.10583213 40.93098539 8.09765625 42.86523438 C8.07574814 47.5769479 8.04129901 52.28841816 8 57 C8.61085953 56.99333817 9.22171906 56.98667633 9.85108948 56.97981262 C16.22660035 56.91328343 22.60201209 56.86812644 28.9777832 56.83520508 C31.35510262 56.82014748 33.73239439 56.79969711 36.10961914 56.77368164 C39.53278439 56.73716597 42.95558132 56.72024291 46.37890625 56.70703125 C47.43646622 56.69154739 48.49402618 56.67606354 49.58363342 56.66011047 C56.99754409 56.65843139 61.78574875 57.57145461 67.8125 62.125 C71.19333235 66.56837966 72.40663558 70.82927192 71.69140625 76.40625 C70.31722124 81.52743637 68.25364644 84.26610699 63.81640625 87.125 C60.22527719 88.85492024 56.90957178 89.12350902 52.95605469 89.11352539 C51.95531921 89.11344986 50.95458374 89.11337433 49.92352295 89.11329651 C48.85047913 89.10813522 47.7774353 89.10297394 46.671875 89.09765625 C45.56773254 89.0962413 44.46359009 89.09482635 43.32598877 89.09336853 C39.80063158 89.08777258 36.27533798 89.07522079 32.75 89.0625 C30.35937592 89.05748448 27.96875084 89.05292166 25.578125 89.04882812 C19.71872832 89.03780447 13.8593687 89.02107033 8 89 C8.06065839 104.60385778 8.13824517 120.20753497 8.23571491 135.8112011 C8.2805867 143.05706193 8.32002095 150.30287456 8.34643555 157.54882812 C8.36948574 163.86801981 8.40296138 170.18705783 8.44870156 176.50612748 C8.47254005 179.84881319 8.48977408 183.19120831 8.49761391 186.53399277 C8.50727453 190.27533142 8.53535913 194.01612146 8.56762695 197.75732422 C8.56619186 198.85281082 8.56475677 199.94829742 8.5632782 201.07698059 C8.68975347 211.48559031 10.84295123 221.11009438 18 229 C24.70134697 234.17429804 33.25868523 236.59526417 41.70703125 236.30859375 C52.41640841 234.86729768 61.22733978 230.94521398 68.03515625 222.46484375 C69.78805128 220.02086895 71.44395646 217.57329084 73 215 C73.41378906 214.36449219 73.82757813 213.72898437 74.25390625 213.07421875 C76.25140634 207.52095933 72.6992119 200.49289317 71.03515625 195.12109375 C68.23607337 184.80756015 67.63782246 174.38738125 67.6875 163.75 C67.69313965 162.47729248 67.6987793 161.20458496 67.70458984 159.89331055 C67.82805556 150.29293398 68.46159747 141.28466909 71 132 C71.19867676 131.27312988 71.39735352 130.54625977 71.60205078 129.79736328 C75.90803896 114.6473809 82.30522043 100.73999363 93 89 C93.87269531 88.03449219 94.74539062 87.06898438 95.64453125 86.07421875 C112.9958644 67.50805524 137.44767242 55.94376689 162.9753418 54.87548828 C187.22712418 54.31789643 217.42556498 54.5414503 236.9375 71.5625 C241.00976741 76.37517966 241.43610804 80.10135497 241.3203125 86.3046875 C240.75430725 91.06741463 238.4344371 93.73943406 234.9375 96.8125 C229.97690801 99.85286284 224.61619437 99.61341929 219 99 C215.46056488 97.96628647 212.07467928 96.70631145 208.63671875 95.375 C188.47180483 87.75088647 165.79057826 85.2524345 145.70336914 94.25732422 C138.34945126 97.74721928 132.643994 102.19358891 127 108 C126.36578125 108.61359375 125.7315625 109.2271875 125.078125 109.859375 C109.81573258 125.6620291 107.47649396 148.53819436 107.73046875 169.35546875 C108.26791365 188.0866149 115.3814792 206.77955904 129 220 C145.47230785 233.52931198 164.94827443 238.58149037 186 237 C205.64401846 234.96579707 222.37063937 224.7966005 234.76806641 209.61132812 C245.48687659 195.59148127 252.0649721 178.83369457 257.4375 162.1875 C257.91188055 160.74376882 258.38690814 159.30025011 258.86254883 157.85693359 C261.41996745 150.06112858 263.85813266 142.2353634 266.21289062 134.37573242 C274.22640332 107.64729516 285.50956185 75.80682225 311.625 61.6875 C333.1385405 51.92345317 358.97106006 52.09454796 381.08276367 60.05273438 C387.80634856 62.63305207 394.19943187 65.48850458 398.14453125 71.84375 C399.82312932 76.07473691 399.52373416 80.53856088 399 85 C396.7835819 89.59701532 394.47622416 91.69327427 390 94 C380.04732742 96.0509501 370.25840145 91.92313381 361.0078125 88.66430664 C351.64444887 85.56633577 339.98414233 85.46888637 330.9921875 89.72265625 C326.92813837 92.32842893 324.54105604 95.37683189 323 100 C322.31234615 107.60928444 322.56418362 113.65543839 327 120 C327.40476562 120.6084375 327.80953125 121.216875 328.2265625 121.84375 C333.55821038 128.80055258 341.24038772 133.35915385 348.39892578 138.22851562 C352.25188173 140.85260502 356.08634599 143.50308505 359.91796875 146.15820312 C361.87717631 147.51545494 363.83925532 148.86857467 365.8046875 150.21679688 C383.50354908 162.4421676 399.84223423 175.68024839 404.5859375 197.72265625 C406.90099165 216.04652823 404.64829869 233.13249205 393.3125 248.125 C381.99515059 261.59602411 366.32698333 268.87427416 349 271 C328.3471685 272.6320535 299.92784374 271.43759503 283.125 257.375 C280.09947666 254.48515035 278.2594501 251.82821816 277.6640625 247.6328125 C277.57451668 241.88397057 278.0515695 238.49682363 282 234 C285.89944511 230.5732149 289.36482546 229.68275813 294.56103516 229.75048828 C299.59627692 230.26560511 304.37393724 231.93491566 309.1875 233.4375 C311.30546101 234.08376605 313.4239333 234.72835942 315.54296875 235.37109375 C316.47133545 235.65911865 317.39970215 235.94714355 318.35620117 236.24389648 C328.80677477 239.23266982 342.99534416 240.27686574 352.92578125 235.3203125 C359.86766959 230.90155872 364.9986377 226.21677315 367 218 C368.16723945 209.14009676 367.03085409 202.38760373 362 195 C356.86867038 189.09017437 350.95217462 184.55328228 344.5 180.1875 C343.19603271 179.289104 343.19603271 179.289104 341.86572266 178.37255859 C339.24984967 176.57268109 336.62647036 174.784369 334 173 C321.83795215 164.72909115 310.29928776 156.6456226 300.03125 146.00390625 C298.1600498 143.95094489 298.1600498 143.95094489 296 143 C295.78601563 144.2890625 295.57203125 145.578125 295.3515625 146.90625 C293.73167477 154.97448242 290.99508283 162.71330293 288.375 170.5 C288.10577728 171.30369019 287.83655457 172.10738037 287.55917358 172.9354248 C283.64774097 184.57490972 279.65363121 196.07077479 274 207 C273.4730957 208.02528809 273.4730957 208.02528809 272.93554688 209.07128906 C259.03505275 235.7322897 238.42408492 257.97241855 209.1875 267.4375 C198.54799797 270.54381441 187.90994936 271.3638424 176.875 271.3125 C174.96303833 271.30404053 174.96303833 271.30404053 173.01245117 271.29541016 C145.13576243 270.93853766 121.70050989 262.6021799 100 245 C98.33355425 243.66639056 96.66696558 242.33295961 95 241 C94.52691406 241.6290625 94.05382812 242.258125 93.56640625 242.90625 C81.72246311 258.23642202 66.7465356 267.90517361 47.34765625 270.68359375 C27.9609488 272.515943 7.26728777 270.56007002 -8.875 258.6875 C-22.0713277 247.47429391 -29.54490407 232.95918345 -31.22794533 215.65659714 C-31.59011054 209.54423344 -31.54541644 203.42915315 -31.51757812 197.30859375 C-31.52301115 195.27982585 -31.53014037 193.25106191 -31.53881836 191.2223053 C-31.55690499 185.76204572 -31.55004779 180.30209165 -31.53730202 174.84182739 C-31.5271089 169.10808546 -31.53658408 163.37436806 -31.54284668 157.640625 C-31.5501001 148.02452944 -31.54059118 138.40855726 -31.52148438 128.79248047 C-31.49967054 117.68594176 -31.50680906 106.5796963 -31.52879 95.47316456 C-31.54695071 85.91268565 -31.5495005 76.35229489 -31.53903532 66.79180431 C-31.53281049 61.09193804 -31.53193805 55.39220963 -31.54518127 49.69235229 C-31.55675061 44.34051721 -31.54869403 38.98906045 -31.52560425 33.63726616 C-31.52032512 31.67652451 -31.52181726 29.71575089 -31.53065491 27.75502205 C-31.54162425 25.0738847 -31.52783097 22.39395172 -31.50793457 19.71289062 C-31.51685746 18.94168097 -31.52578034 18.17047132 -31.53497362 17.37589169 C-31.43920074 10.6997494 -29.37832551 5.37832551 -24.625 0.625 C-16.85725847 -4.1836019 -7.93877487 -4.60908211 0 0 Z " fill="#DC1F71" transform="translate(136,107)"/>
<path d="M0 0 C5.49351891 4.48475327 6.88278793 9.18806756 8 16 C8.23965211 19.28803868 8.23531402 22.55233099 8.1953125 25.84765625 C8.1924826 26.74495956 8.18965271 27.64226288 8.18673706 28.5667572 C8.17564979 31.39881414 8.15056747 34.23054061 8.125 37.0625 C8.11495537 38.99674019 8.10583213 40.93098539 8.09765625 42.86523438 C8.07574814 47.5769479 8.04129901 52.28841816 8 57 C8.61085953 56.99333817 9.22171906 56.98667633 9.85108948 56.97981262 C16.22660035 56.91328343 22.60201209 56.86812644 28.9777832 56.83520508 C31.35510262 56.82014748 33.73239439 56.79969711 36.10961914 56.77368164 C39.53278439 56.73716597 42.95558132 56.72024291 46.37890625 56.70703125 C47.43646622 56.69154739 48.49402618 56.67606354 49.58363342 56.66011047 C56.99754409 56.65843139 61.78574875 57.57145461 67.8125 62.125 C71.19333235 66.56837966 72.40663558 70.82927192 71.69140625 76.40625 C70.31722124 81.52743637 68.25364644 84.26610699 63.81640625 87.125 C60.22527719 88.85492024 56.90957178 89.12350902 52.95605469 89.11352539 C51.95531921 89.11344986 50.95458374 89.11337433 49.92352295 89.11329651 C48.85047913 89.10813522 47.7774353 89.10297394 46.671875 89.09765625 C45.56773254 89.0962413 44.46359009 89.09482635 43.32598877 89.09336853 C39.80063158 89.08777258 36.27533798 89.07522079 32.75 89.0625 C30.35937592 89.05748448 27.96875084 89.05292166 25.578125 89.04882812 C19.71872832 89.03780447 13.8593687 89.02107033 8 89 C8.06065839 104.60385778 8.13824517 120.20753497 8.23571491 135.8112011 C8.2805867 143.05706193 8.32002095 150.30287456 8.34643555 157.54882812 C8.36948574 163.86801981 8.40296138 170.18705783 8.44870156 176.50612748 C8.47254005 179.84881319 8.48977408 183.19120831 8.49761391 186.53399277 C8.50727453 190.27533142 8.53535913 194.01612146 8.56762695 197.75732422 C8.56619186 198.85281082 8.56475677 199.94829742 8.5632782 201.07698059 C8.68975347 211.48559031 10.84295123 221.11009438 18 229 C24.70134697 234.17429804 33.25868523 236.59526417 41.70703125 236.30859375 C52.35759553 234.87521287 61.33450106 230.99589513 68 222.4296875 C69.19627563 220.72001024 70.3638204 218.98961271 71.4921875 217.234375 C72.85057954 215.221421 74.22132619 213.64021417 76 212 C78.97837763 214.55289511 80.29394232 217.51370822 82 221 C82.66 221.66 83.32 222.32 84 223 C84.9052805 224.64291646 85.80951289 226.28642404 86.70703125 227.93359375 C88.72746037 231.16261794 91.27355872 233.95050917 93.8046875 236.7890625 C95 239 95 239 94.5 241.41015625 C86.16583471 255.7996135 71.64939603 264.59247341 56 269 C36.30206089 273.97002163 13.89995701 271.62972371 -4 262 C-18.61592438 252.79329235 -26.36801105 239.17547416 -30.17173767 222.60916138 C-31.84029179 214.27170732 -31.55607892 205.77341618 -31.51757812 197.30859375 C-31.52301115 195.27982585 -31.53014037 193.25106191 -31.53881836 191.2223053 C-31.55690499 185.76204572 -31.55004779 180.30209165 -31.53730202 174.84182739 C-31.5271089 169.10808546 -31.53658408 163.37436806 -31.54284668 157.640625 C-31.5501001 148.02452944 -31.54059118 138.40855726 -31.52148438 128.79248047 C-31.49967054 117.68594176 -31.50680906 106.5796963 -31.52879 95.47316456 C-31.54695071 85.91268565 -31.5495005 76.35229489 -31.53903532 66.79180431 C-31.53281049 61.09193804 -31.53193805 55.39220963 -31.54518127 49.69235229 C-31.55675061 44.34051721 -31.54869403 38.98906045 -31.52560425 33.63726616 C-31.52032512 31.67652451 -31.52181726 29.71575089 -31.53065491 27.75502205 C-31.54162425 25.0738847 -31.52783097 22.39395172 -31.50793457 19.71289062 C-31.51685746 18.94168097 -31.52578034 18.17047132 -31.53497362 17.37589169 C-31.43920074 10.6997494 -29.37832551 5.37832551 -24.625 0.625 C-16.85725847 -4.1836019 -7.93877487 -4.60908211 0 0 Z " fill="#E71E59" transform="translate(136,107)"/>
<path d="M0 0 C3.94673055 3.44289261 6.64988535 6.30493138 7.3359375 11.5859375 C7.41996981 17.58584459 7.19483258 21.33907492 3 26 C-1.5711915 30.01710768 -5.88362142 30.39812273 -11.78125 30.3515625 C-16.62305963 29.82272407 -20.84212854 28.12576541 -25.36328125 26.375 C-36.74607383 22.07130184 -47.5070063 19.80326607 -59.625 19.8125 C-61.09779419 19.81262085 -61.09779419 19.81262085 -62.6003418 19.81274414 C-68.61627993 19.86003534 -74.3684578 20.19831765 -80.26953125 21.46484375 C-82.60867471 21.92330248 -84.82249216 22.16944811 -87.19140625 22.375 C-92.40918946 22.93217602 -97.16977929 24.37945588 -102.125 26.0625 C-103.03862305 26.37123047 -103.95224609 26.67996094 -104.89355469 26.99804688 C-126.07246701 34.40658333 -148.59725823 49.53651803 -158.875 70.125 C-162.2934543 77.43282276 -163.90156885 85.03637414 -165 93 C-165.33 93 -165.66 93 -166 93 C-167.15823249 68.33393764 -159.43732395 41.42406572 -143.23828125 22.45703125 C-142.13033203 21.24080078 -142.13033203 21.24080078 -141 20 C-140.12730469 19.03449219 -139.25460938 18.06898438 -138.35546875 17.07421875 C-106.43287117 -17.08339676 -39.39916083 -28.32382069 0 0 Z " fill="#FC7703" transform="translate(370,176)"/>
<path d="M0 0 C3.89067817 3.17524355 6.26514311 6.00873606 6.9140625 11.00390625 C6.99772554 16.97744744 6.82683666 20.82476696 2.578125 25.41796875 C-3.04897125 29.34275017 -7.74616392 29.3099218 -14.421875 28.41796875 C-20.1886182 26.97808281 -25.81130517 25.05603273 -31.4140625 23.08227539 C-40.77742613 19.98430452 -52.43773267 19.88685512 -61.4296875 24.140625 C-65.49373663 26.74639768 -67.88081896 29.79480064 -69.421875 34.41796875 C-70.23213061 43.38391199 -69.33321363 49.48115155 -63.73828125 56.54296875 C-60.79287813 59.98877369 -57.69270116 63.27797564 -54.421875 66.41796875 C-58.77852702 64.9971507 -61.42074475 62.86187332 -64.734375 59.73046875 C-67.90698975 56.74713686 -71.09721922 53.84548501 -74.484375 51.10546875 C-83.54665089 43.19928567 -93.45930145 30.59903512 -94.625 18.26953125 C-94.77247407 11.26451284 -92.89863519 6.27668884 -88.1640625 0.92578125 C-66.69893237 -17.65166321 -22.77994271 -14.88044645 0 0 Z " fill="#F8911B" transform="translate(528.421875,172.58203125)"/>
<path d="M0 0 C5.49584835 4.48665496 6.87579436 9.18798413 8 16 C8.24888684 19.27563806 8.25831917 22.52868739 8.23046875 25.8125 C8.23001053 26.70743164 8.22955231 27.60236328 8.2290802 28.52441406 C8.22608217 30.3966608 8.21827036 32.2689056 8.20581055 34.14111328 C8.18737225 37.01994535 8.18530245 39.89845835 8.18554688 42.77734375 C8.18063757 44.6015653 8.17481184 46.42578467 8.16796875 48.25 C8.16685593 49.11343018 8.1657431 49.97686035 8.16459656 50.86645508 C8.1161071 56.8838929 8.1161071 56.8838929 7 58 C5.10950675 58.29327964 3.21827119 58.58250686 1.32373047 58.84838867 C-10.04773213 60.50787192 -17.10348768 63.98758146 -24.55859375 72.96484375 C-26.60259916 75.85082429 -27.82139973 78.67218747 -29 82 C-29.66 82 -30.32 82 -31 82 C-31.09291788 72.88098422 -31.16387492 63.76213287 -31.20724869 54.64274597 C-31.22807209 50.40765593 -31.25629279 46.17289116 -31.30175781 41.93798828 C-31.34540424 37.84660674 -31.36917653 33.75553693 -31.37950897 29.66394043 C-31.3868668 28.10749407 -31.40123476 26.55106365 -31.42292023 24.99475098 C-31.62591709 9.81445441 -31.62591709 9.81445441 -27 3 C-19.67709996 -4.32290004 -8.82133193 -5.12147577 0 0 Z " fill="#FAA215" transform="translate(136,107)"/>
<path d="M0 0 C2.33837891 -0.34057617 2.33837891 -0.34057617 5.2265625 -0.29296875 C6.7734375 -0.2784668 6.7734375 -0.2784668 8.3515625 -0.26367188 C9.43179688 -0.23853516 10.51203125 -0.21339844 11.625 -0.1875 C12.71296875 -0.17396484 13.8009375 -0.16042969 14.921875 -0.14648438 C17.61507409 -0.11104754 20.30729374 -0.06164331 23 0 C25.85297937 7.36717709 28.70077687 14.73634147 31.54492188 22.10693359 C32.5133948 24.61601094 33.48353414 27.12443447 34.45507812 29.63232422 C35.84818776 33.23024309 37.23701987 36.82978722 38.625 40.4296875 C39.28121338 42.12035843 39.28121338 42.12035843 39.95068359 43.84518433 C40.35109863 44.88611237 40.75151367 45.92704041 41.1640625 46.99951172 C41.51936035 47.91884491 41.8746582 48.8381781 42.24072266 49.78536987 C43 52 43 52 43 54 C35.74 54 28.48 54 21 54 C20.04287109 51.21949219 20.04287109 51.21949219 19.06640625 48.3828125 C18.231843 45.96351677 17.39720365 43.54424729 16.5625 41.125 C16.14162109 39.90167969 15.72074219 38.67835938 15.28710938 37.41796875 C14.88427734 36.25136719 14.48144531 35.08476562 14.06640625 33.8828125 C13.69459229 32.80402832 13.32277832 31.72524414 12.93969727 30.61376953 C12.08094322 28.06335186 12.08094322 28.06335186 11 26 C7.7 35.24 4.4 44.48 1 54 C-5.93 54 -12.86 54 -20 54 C-19.3177957 49.9067742 -18.76829649 46.96709138 -17.35766602 43.2355957 C-17.02384415 42.34479813 -16.69002228 41.45400055 -16.34608459 40.53620911 C-15.98566574 39.59226791 -15.62524689 38.64832672 -15.25390625 37.67578125 C-14.69714455 36.20095528 -14.69714455 36.20095528 -14.12913513 34.69633484 C-13.34583379 32.62524186 -12.55981097 30.55517637 -11.77124023 28.48608398 C-10.56369293 25.31563208 -9.36618427 22.14152156 -8.16992188 18.96679688 C-7.40684254 16.95290038 -6.64319031 14.93922085 -5.87890625 12.92578125 C-5.34131432 11.50076042 -5.34131432 11.50076042 -4.79286194 10.04695129 C-4.45588791 9.1656102 -4.11891388 8.2842691 -3.77172852 7.3762207 C-3.47718277 6.6015596 -3.18263702 5.8268985 -2.87916565 5.02876282 C-2 3 -2 3 0 0 Z " fill="#007CC5" transform="translate(766,166)"/>
<path d="M0 0 C7.59 0 15.18 0 23 0 C28.27928418 13.09711777 33.51353574 26.21135611 38.625 39.375 C39.28121338 41.04925049 39.28121338 41.04925049 39.95068359 42.75732422 C40.35109863 43.7938916 40.75151367 44.83045898 41.1640625 45.8984375 C41.51936035 46.81286621 41.8746582 47.72729492 42.24072266 48.66943359 C43 51 43 51 43 54 C36.07 54 29.14 54 22 54 C18.33260564 45.11362137 15.1587433 36.0761224 12 27 C10.11033205 29.83450193 9.17160409 32.0895051 8.08984375 35.2890625 C7.73986328 36.31257813 7.38988281 37.33609375 7.02929688 38.390625 C6.66900391 39.45796875 6.30871094 40.5253125 5.9375 41.625 C5.22004821 43.74307007 4.5001305 45.86030703 3.77734375 47.9765625 C3.46015381 48.91580566 3.14296387 49.85504883 2.81616211 50.82275391 C2 53 2 53 1 54 C-0.56172745 54.08685603 -2.12729344 54.10702219 -3.69140625 54.09765625 C-4.63564453 54.09443359 -5.57988281 54.09121094 -6.55273438 54.08789062 C-7.54595703 54.07951172 -8.53917969 54.07113281 -9.5625 54.0625 C-10.55958984 54.05798828 -11.55667969 54.05347656 -12.58398438 54.04882812 C-15.05604849 54.03700007 -17.52799518 54.02051849 -20 54 C-19.39556975 50.63781177 -18.56608934 47.5583209 -17.35766602 44.36499023 C-17.02384415 43.47734482 -16.69002228 42.5896994 -16.34608459 41.67515564 C-15.98566574 40.72919022 -15.62524689 39.78322479 -15.25390625 38.80859375 C-14.88273178 37.82633316 -14.51155731 36.84407257 -14.12913513 35.83204651 C-13.34502023 33.75948182 -12.55901164 31.68763271 -11.77124023 29.61645508 C-10.56618892 26.44720176 -9.3675858 23.27556701 -8.16992188 20.10351562 C-7.40663008 18.08839766 -6.6429706 16.07341892 -5.87890625 14.05859375 C-5.34131432 12.63660927 -5.34131432 12.63660927 -4.79286194 11.18589783 C-4.45588791 10.30140457 -4.11891388 9.41691132 -3.77172852 8.50561523 C-3.47718277 7.73015854 -3.18263702 6.95470184 -2.87916565 6.15574646 C-2.02373861 4.05820794 -1.01305708 2.02611416 0 0 Z " fill="#007CC5" transform="translate(663,166)"/>
<path d="M0 0 C17.16 0 34.32 0 52 0 C52 5.28 52 10.56 52 16 C47.05 16 42.1 16 37 16 C37 28.54 37 41.08 37 54 C29.74 54 22.48 54 15 54 C15 41.46 15 28.92 15 16 C10.05 16 5.1 16 0 16 C0 10.72 0 5.44 0 0 Z " fill="#007CC4" transform="translate(700,166)"/>
<path d="M0 0 C17.16 0 34.32 0 52 0 C52 5.28 52 10.56 52 16 C47.05 16 42.1 16 37 16 C37 28.54 37 41.08 37 54 C29.74 54 22.48 54 15 54 C15 41.46 15 28.92 15 16 C10.05 16 5.1 16 0 16 C0 10.72 0 5.44 0 0 Z " fill="#007CC4" transform="translate(597,166)"/>
<path d="M0 0 C13 0 13 0 16.00463867 2.59863281 C17.01347351 4.31890869 17.01347351 4.31890869 17.91796875 6.203125 C18.27216385 6.83732361 18.62635895 7.47152222 18.99128723 8.12493896 C20.10511174 10.14450628 21.14532762 12.19270584 22.1875 14.25 C22.92578426 15.61575298 23.66858892 16.97907258 24.41601562 18.33984375 C27.0501895 23.17459939 29.53765337 28.07530673 32 33 C32.33 22.11 32.66 11.22 33 0 C36.3 0 39.6 0 43 0 C43 17.49 43 34.98 43 53 C39.37 53 35.74 53 32 53 C29.29744604 49.86247878 27.80179844 47.6016234 26 44 C24.97204131 42.24186561 23.93674646 40.4880021 22.89453125 38.73828125 C21.86382311 36.93160273 20.83649774 35.12299031 19.8125 33.3125 C19.29236328 32.40177734 18.77222656 31.49105469 18.23632812 30.55273438 C15.6919149 26.07807663 13.30567435 21.61134869 11 17 C10.67 28.88 10.34 40.76 10 53 C6.7 53 3.4 53 0 53 C0 35.51 0 18.02 0 0 Z " fill="#007CC5" transform="translate(698,245)"/>
<path d="M0 0 C3.96 0 7.92 0 12 0 C14.92659039 3.02089164 16.37962494 4.96285806 18.25 8.5625 C18.92675781 9.73329102 18.92675781 9.73329102 19.6171875 10.92773438 C21.1344302 13.5871472 22.56423657 16.29572831 24 19 C26.64 23.95 29.28 28.9 32 34 C32.33 22.78 32.66 11.56 33 0 C35.97 0 38.94 0 42 0 C42 17.49 42 34.98 42 53 C31 53 31 53 28.57714844 51.00317383 C28.0927832 50.08044678 27.60841797 49.15771973 27.109375 48.20703125 C26.54476562 47.18287109 25.98015625 46.15871094 25.3984375 45.10351562 C24.85445312 44.01748047 24.31046875 42.93144531 23.75 41.8125 C22.91082031 40.25885742 22.91082031 40.25885742 22.0546875 38.67382812 C20.33227173 35.46910294 18.66649273 32.23415856 17 29 C14.69 24.71 12.38 20.42 10 16 C10 28.21 10 40.42 10 53 C6.7 53 3.4 53 0 53 C0 35.51 0 18.02 0 0 Z " fill="#007CC5" transform="translate(958,245)"/>
<path d="M0 0 C5.4523861 4.25936853 8.35440389 10.11815657 10.16015625 16.6875 C11.09359863 27.02810196 10.55001774 35.87731518 3.84765625 44.0625 C-1.62064348 49.85314161 -7.3819657 51.63147484 -15.15234375 51.9375 C-22.80095198 51.79820415 -28.51478901 49.05142946 -34.07421875 43.8203125 C-39.5758982 37.17447848 -40.46934417 29.1325112 -40.15234375 20.76171875 C-39.29526313 12.33018817 -36.30381137 6.28034698 -29.83984375 0.6875 C-20.98784079 -5.45011924 -9.20768572 -5.27009004 0 0 Z M-22.83984375 7.6875 C-27.62729526 12.47495151 -28.93785126 17.37987939 -29.21484375 24 C-29.0933856 29.57189284 -27.95107449 34.0303161 -24.83984375 38.6875 C-21.60223453 41.70436314 -19.12882567 42.91193309 -14.77734375 43.125 C-10.70480574 42.67249578 -8.91522406 42.33574416 -5.83984375 39.6875 C-1.30266043 33.34157468 -0.14920936 27.32214922 -0.83984375 19.6875 C-2.0974712 14.14205613 -4.2656646 10.22209298 -8.83984375 6.6875 C-14.49382571 4.17461913 -17.52474356 4.57866781 -22.83984375 7.6875 Z " fill="#007CC5" transform="translate(680.83984375,247.3125)"/>
<path d="M0 0 C2.64715739 2.15081538 4.45471713 3.74165491 5.8125 6.875 C5.874375 7.57625 5.93625 8.2775 6 9 C6.1546875 10.6396875 6.1546875 10.6396875 6.3125 12.3125 C5.83754589 17.91695849 3.35175475 22.30100846 -1 26 C-0.09507812 27.19496094 -0.09507812 27.19496094 0.828125 28.4140625 C3.50961122 32.43629183 4.5725139 36.73170574 5.75 41.375 C5.97042969 42.20644531 6.19085937 43.03789062 6.41796875 43.89453125 C6.95530699 45.92707154 7.47905644 47.96319608 8 50 C4.37 50 0.74 50 -3 50 C-3.4125 48.906875 -3.825 47.81375 -4.25 46.6875 C-4.53230469 45.96691406 -4.81460938 45.24632812 -5.10546875 44.50390625 C-6 42 -6 42 -6.73828125 39.08984375 C-7.01027344 38.11144531 -7.28226563 37.13304687 -7.5625 36.125 C-7.79066406 35.19945312 -8.01882813 34.27390625 -8.25390625 33.3203125 C-10.54741112 29.73682667 -10.54741112 29.73682667 -20 29 C-20 35.93 -20 42.86 -20 50 C-23.3 50 -26.6 50 -30 50 C-30 32.84 -30 15.68 -30 -2 C-20.27630773 -3.62061538 -9.00463067 -4.91161673 0 0 Z M-20 6 C-20 10.95 -20 15.9 -20 21 C-12.47362495 21.46852221 -12.47362495 21.46852221 -6 18 C-4.57958179 15.15916359 -4.68547728 13.14522722 -5 10 C-6.3284596 7.50279176 -6.3284596 7.50279176 -9 6 C-14.61059581 4.70358659 -14.61059581 4.70358659 -20 6 Z " fill="#007CC5" transform="translate(710,326)"/>
<path d="M0 0 C3.63 0 7.26 0 11 0 C11.01981934 1.09465576 11.03963867 2.18931152 11.06005859 3.31713867 C11.13629437 7.38947029 11.2249838 11.46145296 11.31738281 15.53344727 C11.35559841 17.29379371 11.39046413 19.05421626 11.421875 20.81469727 C11.46768714 23.34939725 11.52565417 25.88357664 11.5859375 28.41796875 C11.59748871 29.20149216 11.60903992 29.98501556 11.62094116 30.7922821 C11.73166102 34.9179577 11.97400049 38.35720349 14 42 C17.7373856 44.4915904 19.57331583 44.45793285 24 44 C27.38939556 41.86320715 28.72582557 40.8225233 30 37 C30.1539263 34.19839498 30.25738045 31.41701575 30.31640625 28.61328125 C30.33718735 27.79627243 30.35796844 26.97926361 30.37937927 26.13749695 C30.44473079 23.52924966 30.50369273 20.92090225 30.5625 18.3125 C30.60569892 16.54360946 30.64931365 14.77472903 30.69335938 13.00585938 C30.80039743 8.67067537 30.90170544 4.33539071 31 0 C34.63 0 38.26 0 42 0 C42.09988492 4.92547891 42.17194055 9.85035096 42.21972656 14.77661133 C42.239675 16.44761442 42.26684401 18.11854924 42.30175781 19.78930664 C42.73404123 41.02840788 42.73404123 41.02840788 36.65795898 48.69287109 C31.52438967 53.4744291 25.01515641 54.44880581 18.265625 54.2421875 C11.64302063 53.53425393 7.52072173 51.14721544 3.2265625 46.109375 C-0.08200732 40.41947786 -0.28077001 34.62375741 -0.1953125 28.22265625 C-0.1924826 27.41130722 -0.18965271 26.59995819 -0.18673706 25.76402283 C-0.17562663 23.19669247 -0.15053971 20.62972322 -0.125 18.0625 C-0.11495836 16.31185403 -0.10583459 14.56120254 -0.09765625 12.81054688 C-0.07571734 8.54022746 -0.0412516 4.27017475 0 0 Z " fill="#007CC5" transform="translate(791,245)"/>
<path d="M0 0 C4.62 0 9.24 0 14 0 C15.62154886 4.81429996 17.23873152 9.63003922 18.85229492 14.44702148 C19.39901828 16.07728309 19.94682773 17.70718095 20.49584961 19.33666992 C24.25249302 30.48952785 27.76410338 41.68478265 31 53 C27.04 53 23.08 53 19 53 C18.32779649 51.06441401 17.66241923 49.12645628 17 47.1875 C16.62875 46.10855469 16.2575 45.02960938 15.875 43.91796875 C15 41 15 41 15 38 C9.72 38 4.44 38 -1 38 C-1.474375 39.918125 -1.94875 41.83625 -2.4375 43.8125 C-3.20682713 46.92325754 -3.98651324 49.95953973 -5 53 C-8.63 53 -12.26 53 -16 53 C-14.71744025 45.99271005 -12.99040973 39.37118896 -10.7421875 32.6171875 C-10.43427277 31.67690704 -10.12635803 30.73662659 -9.80911255 29.76785278 C-8.83645159 26.80176943 -7.85587629 23.8383754 -6.875 20.875 C-6.2091076 18.84913175 -5.54373811 16.82309154 -4.87890625 14.796875 C-3.2586373 9.86257651 -1.63127127 4.93067152 0 0 Z M6 11 C5.16338138 13.7907207 4.33057263 16.58248012 3.5 19.375 C3.26152344 20.1690625 3.02304687 20.963125 2.77734375 21.78125 C2.43896484 22.92207031 2.43896484 22.92207031 2.09375 24.0859375 C1.88427734 24.7876709 1.67480469 25.4894043 1.45898438 26.21240234 C0.91710213 28.01526378 0.91710213 28.01526378 1 30 C4.96 30 8.92 30 13 30 C11.02 23.73 9.04 17.46 7 11 C6.67 11 6.34 11 6 11 Z " fill="#007CC5" transform="translate(921,245)"/>
<path d="M0 0 C10.56 0 21.12 0 32 0 C32 2.97 32 5.94 32 9 C25.07 9 18.14 9 11 9 C11 12.96 11 16.92 11 21 C17.6 21 24.2 21 31 21 C31 23.97 31 26.94 31 30 C24.4 30 17.8 30 11 30 C11 34.95 11 39.9 11 45 C18.26 45 25.52 45 33 45 C33 47.64 33 50.28 33 53 C22.11 53 11.22 53 0 53 C0 35.51 0 18.02 0 0 Z " fill="#007CC5" transform="translate(837,323)"/>
<path d="M0 0 C10.23 0 20.46 0 31 0 C31 2.97 31 5.94 31 9 C24.4 9 17.8 9 11 9 C11 12.96 11 16.92 11 21 C17.27 21 23.54 21 30 21 C30 23.97 30 26.94 30 30 C23.73 30 17.46 30 11 30 C11 34.95 11 39.9 11 45 C18.26 45 25.52 45 33 45 C33 47.64 33 50.28 33 53 C22.11 53 11.22 53 0 53 C0 35.51 0 18.02 0 0 Z " fill="#007CC4" transform="translate(640,323)"/>
<path d="M0 0 C3.63 0 7.26 0 11 0 C19.52005744 26.34600287 19.52005744 26.34600287 23 39 C23.22139648 38.24493164 23.44279297 37.48986328 23.67089844 36.71191406 C24.69501658 33.22394459 25.72249101 29.73697201 26.75 26.25 C27.09804688 25.06277344 27.44609375 23.87554687 27.8046875 22.65234375 C30.04966535 15.04436326 32.45024144 7.51145089 35 0 C38.63 0 42.26 0 46 0 C45.38970387 6.273541 43.50706217 11.82498072 41.40234375 17.74609375 C41.04862198 18.75720718 40.69490021 19.76832062 40.33045959 20.81007385 C39.20549285 24.02136627 38.07163936 27.22943709 36.9375 30.4375 C36.17063416 32.62153779 35.40435168 34.8057805 34.63867188 36.99023438 C32.7658615 42.32921955 30.88507776 47.66533447 29 53 C24.71 53 20.42 53 16 53 C13.71381267 46.09735595 11.43535812 39.19222644 9.1640625 32.28466797 C8.39014822 29.93468244 7.61411763 27.58539278 6.8359375 25.23681641 C5.71839492 21.86280711 4.6084627 18.48637651 3.5 15.109375 C3.15001953 14.05820496 2.80003906 13.00703491 2.43945312 11.92401123 C2.11912109 10.94329651 1.79878906 9.96258179 1.46875 8.95214844 C1.04239258 7.6597525 1.04239258 7.6597525 0.60742188 6.34124756 C0 4 0 4 0 0 Z " fill="#007CC5" transform="translate(720,323)"/>
<path d="M0 0 C-0.66 2.97 -1.32 5.94 -2 9 C-3.134375 8.649375 -4.26875 8.29875 -5.4375 7.9375 C-10.08421311 6.75922632 -14.33019762 6.98837979 -19 8 C-20.35618499 9.12534105 -20.35618499 9.12534105 -20.0625 12.0625 C-20.041875 13.031875 -20.02125 14.00125 -20 15 C-19.5059668 15.24645264 -19.01193359 15.49290527 -18.50292969 15.74682617 C-16.24561192 16.88157589 -13.99793864 18.0342892 -11.75 19.1875 C-10.58404297 19.76854492 -10.58404297 19.76854492 -9.39453125 20.36132812 C-3.85877483 23.22383465 -0.05363937 25.83908189 2 32 C2.3684431 37.61875724 2.19190228 41.15711379 -1 46 C-7.31329343 51.98101483 -13.11916711 52.36678671 -21.52734375 52.26953125 C-25.91600792 51.92890377 -29.05331698 50.89440785 -33 49 C-32.34 46.03 -31.68 43.06 -31 40 C-30.071875 40.33 -29.14375 40.66 -28.1875 41 C-23.27810703 42.39551252 -18.04940579 42.74776232 -13 42 C-10.60672195 40.19209082 -10.07529197 39.50194647 -9.625 36.5 C-10.07949789 33.47001408 -10.6715497 32.92021551 -13 31 C-14.72440474 30.17349391 -16.47847604 29.40749088 -18.25 28.6875 C-23.18242284 26.52220562 -27.43369301 24.10461747 -31 20 C-32.35593231 15.93220306 -32.53075585 12.25331741 -32 8 C-29.27955129 2.75342034 -26.4344723 0.03594566 -21.0625 -2.25 C-14.20961967 -4.03770791 -6.23497404 -3.11748702 0 0 Z " fill="#007CC5" transform="translate(908,325)"/>
<path d="M0 0 C-0.75 6.75 -0.75 6.75 -3 9 C-3.845625 8.67 -4.69125 8.34 -5.5625 8 C-9.29707971 6.91357681 -12.13084414 6.64174483 -16 7 C-18.40083438 8.35885116 -18.40083438 8.35885116 -20 10 C-19.61482701 13.70365776 -19.61482701 13.70365776 -17.32421875 16.4921875 C-14.66605642 18.21664239 -11.94300116 19.49393516 -9.0625 20.8125 C-0.54845956 25.0851137 -0.54845956 25.0851137 2 30 C2.85109998 35.66879436 2.78262127 40.34779954 0.3125 45.5625 C-4.01117381 50.11988591 -7.99943206 51.8078454 -14.171875 52.203125 C-21.20308836 52.29523697 -26.62874818 52.05820087 -33 49 C-32.34 46.03 -31.68 43.06 -31 40 C-29.88625 40.33 -28.7725 40.66 -27.625 41 C-22.75570129 42.1956641 -17.98710801 42.712444 -13 42 C-10.1982517 40.5368109 -10.1982517 40.5368109 -9 38 C-8.72601236 35.52466936 -8.72601236 35.52466936 -10 33 C-12.58800292 31.13255836 -15.42538487 29.84273391 -18.3125 28.5 C-27.98771153 23.93271916 -27.98771153 23.93271916 -31 19 C-32.58546 14.40051448 -32.42853885 10.14308975 -30.5 5.6875 C-27.68557983 0.798784 -23.86659405 -1.14002179 -18.5 -2.75 C-11.56516863 -3.44348314 -6.43729382 -2.45230241 0 0 Z " fill="#007BC5" transform="translate(630,325)"/>
<path d="M0 0 C1.09183594 -0.00515625 2.18367187 -0.0103125 3.30859375 -0.015625 C6.67951578 0.25955231 9.41125625 1.05224219 12.5625 2.25 C12.2325 4.89 11.9025 7.53 11.5625 10.25 C8.5625 11.25 8.5625 11.25 5.5625 10.25 C3.89982126 10.10779721 2.2309827 10.02979433 0.5625 10 C-0.30375 9.97421875 -1.17 9.9484375 -2.0625 9.921875 C-4.46899665 10.08501586 -4.46899665 10.08501586 -6.3125 11.453125 C-7.62120801 13.23968578 -7.62120801 13.23968578 -7.64453125 15.66015625 C-5.72272557 19.78364223 -2.13152797 20.84719668 1.875 22.6875 C7.64120938 25.34697772 11.65271046 27.27003881 14.5625 33.25 C15.56609105 38.50409431 15.20314494 42.96871012 12.8125 47.75 C8.33076233 52.72970852 4.25422951 54.74420016 -2.5390625 55.4765625 C-8.43850569 55.70586948 -14.00801423 54.59846805 -19.4375 52.25 C-21.03781344 49.04937313 -19.46923691 46.52728194 -18.4375 43.25 C-17.79683594 43.394375 -17.15617188 43.53875 -16.49609375 43.6875 C-7.80170064 45.60827512 -7.80170064 45.60827512 0.9375 44.5625 C2.74711595 43.29983766 2.74711595 43.29983766 3.625 40.9375 C3.80603984 38.12440084 3.80603984 38.12440084 1.875 35.8125 C-0.90046205 33.31067506 -4.07837843 31.90300886 -7.4375 30.3125 C-12.52290876 27.85423968 -15.58825267 26.1624954 -18.4375 21.25 C-19.83641258 16.89287738 -19.62999967 13.89166557 -18.3125 9.5 C-14.10814771 2.21245602 -8.13539469 -0.0383293 0 0 Z " fill="#007CC5" transform="translate(768.4375,243.75)"/>
<path d="M0 0 C1.19367187 -0.01417969 2.38734375 -0.02835938 3.6171875 -0.04296875 C7.12424022 0.18745008 9.86070089 0.92470539 13.125 2.1875 C12.465 5.1575 11.805 8.1275 11.125 11.1875 C10.05572266 10.94773438 10.05572266 10.94773438 8.96484375 10.703125 C3.12161156 9.6421805 -2.67024543 9.42585751 -8.3125 11.375 C-12.13664212 14.07988101 -14.39159586 16.73728759 -15.875 21.1875 C-16.50613599 28.84390378 -16.8156262 35.04509987 -11.875 41.1875 C-5.63649068 45.86638199 0.51483932 45.6459331 8.0625 44.6875 C9.5784375 44.44 9.5784375 44.44 11.125 44.1875 C11.785 46.8275 12.445 49.4675 13.125 52.1875 C4.06889104 55.86244277 -4.14022232 56.43316419 -13.484375 53.2890625 C-19.69763972 50.42608758 -24.46299486 45.69547184 -27.19140625 39.4140625 C-29.8103478 30.88379574 -29.52080483 21.88473827 -25.75390625 13.7734375 C-21.87177177 7.19690373 -16.22361766 3.02608732 -9 0.54296875 C-5.98740613 0.03902382 -3.05310423 0.01641454 0 0 Z " fill="#007CC5" transform="translate(625.875,243.8125)"/>
<path d="M0 0 C1.29808594 -0.01417969 2.59617187 -0.02835938 3.93359375 -0.04296875 C7.31722799 0.17192298 9.54355663 0.71583782 12.5625 2.1875 C11.9765625 8.33984375 11.9765625 8.33984375 11.5625 10.1875 C10.9025 10.5175 10.2425 10.8475 9.5625 11.1875 C8.5725 10.8575 7.5825 10.5275 6.5625 10.1875 C-2.9971868 9.40332495 -2.9971868 9.40332495 -11.4375 13.1875 C-15.42308236 17.42815963 -16.78758585 21.39372082 -17 27.1875 C-16.75540484 32.56179926 -15.7719749 36.89261 -12.4375 41.1875 C-7.33268333 45.14373292 -2.75989931 45.40181862 3.5625 45.1875 C5.90074592 44.89057988 8.23627689 44.56729153 10.5625 44.1875 C12.5625 49.8125 12.5625 49.8125 12.5625 53.1875 C2.66818155 55.86422383 -6.90300638 56.56526586 -16.4375 52.1875 C-22.58106878 48.27891917 -26.82813213 43.35924559 -28.4375 36.1875 C-29.46528021 25.7276952 -29.06805118 16.84706256 -22.1875 8.4375 C-14.82109645 2.41044255 -9.57590284 0.04745244 0 0 Z " fill="#007BC5" transform="translate(1036.4375,243.8125)"/>
<path d="M0 0 C1.65902344 0.11794922 1.65902344 0.11794922 3.3515625 0.23828125 C6.15213731 0.65438733 7.96771657 1.24900136 10.375 2.6875 C9.715 5.3275 9.055 7.9675 8.375 10.6875 C7.385 10.5225 6.395 10.3575 5.375 10.1875 C-2.31694482 9.15055774 -8.1493542 8.99229784 -14.625 13.6875 C-19.47174438 19.77699935 -20.41155587 25.10285415 -19.625 32.6875 C-18.30038081 37.37154496 -16.36291636 40.0725697 -12.625 43.1875 C-6.28884327 46.30071987 1.71071448 45.18879509 8.375 43.6875 C8.87 48.1425 8.87 48.1425 9.375 52.6875 C1.0522467 55.87873976 -8.6569259 56.12275268 -17.125 53.1875 C-23.37349224 50.2348015 -27.70787655 45.25109671 -30.5625 39 C-33.22006128 30.61465138 -32.66438544 20.52052879 -28.625 12.6875 C-24.81519597 6.47613633 -19.38074352 3.17971026 -12.625 0.6875 C-8.2886202 -0.28847766 -4.42253589 -0.3469671 0 0 Z " fill="#007CC5" transform="translate(820.625,322.3125)"/>
<path d="M0 0 C4.29 0 8.58 0 13 0 C13.63808594 1.43214844 14.27617188 2.86429688 14.93359375 4.33984375 C15.76810921 6.20578282 16.60275115 8.07166533 17.4375 9.9375 C17.85837891 10.88302734 18.27925781 11.82855469 18.71289062 12.80273438 C19.11572266 13.70185547 19.51855469 14.60097656 19.93359375 15.52734375 C20.4913147 16.77632446 20.4913147 16.77632446 21.06030273 18.05053711 C21.84730109 19.95727812 21.84730109 19.95727812 23 21 C23.2673999 20.39937744 23.5347998 19.79875488 23.81030273 19.17993164 C25.01700028 16.47305806 26.22720141 13.76776528 27.4375 11.0625 C27.85837891 10.11697266 28.27925781 9.17144531 28.71289062 8.19726562 C29.11572266 7.29814453 29.51855469 6.39902344 29.93359375 5.47265625 C30.30540771 4.64000244 30.67722168 3.80734863 31.06030273 2.94946289 C32 1 32 1 33 0 C35.01964199 -0.07244053 37.04167124 -0.08377188 39.0625 -0.0625 C40.71958984 -0.04896484 40.71958984 -0.04896484 42.41015625 -0.03515625 C43.26480469 -0.02355469 44.11945313 -0.01195312 45 0 C42.3349999 5.6336078 39.67013943 11.08218669 36.1875 16.25390625 C28.10207601 28.54174454 26.40725691 38.37440879 27 53 C23.7 53 20.4 53 17 53 C17.06703125 51.59492188 17.1340625 50.18984375 17.203125 48.7421875 C17.48622584 33.32996313 13.62089453 23.26638579 5.43896484 10.35205078 C3.39009161 7.00307814 1.69404476 3.53985624 0 0 Z " fill="#007CC5" transform="translate(1051,245)"/>
<path d="M0 0 C13.2 0 26.4 0 40 0 C40 2.97 40 5.94 40 9 C35.05 9 30.1 9 25 9 C25 23.52 25 38.04 25 53 C21.37 53 17.74 53 14 53 C14 38.48 14 23.96 14 9 C9.38 9 4.76 9 0 9 C0 6.03 0 3.06 0 0 Z " fill="#007DC4" transform="translate(869,245)"/>
<path d="M0 0 C3.3 0 6.6 0 10 0 C10 14.52 10 29.04 10 44 C17.26 44 24.52 44 32 44 C32 46.97 32 49.94 32 53 C21.44 53 10.88 53 0 53 C0 35.51 0 18.02 0 0 Z " fill="#007DC4" transform="translate(843,245)"/>
<path d="M0 0 C3.63 0 7.26 0 11 0 C11 17.49 11 34.98 11 53 C7.37 53 3.74 53 0 53 C0 35.51 0 18.02 0 0 Z " fill="#007DC5" transform="translate(771,323)"/>
<path d="M0 0 C0 3.86695678 -1.41909971 6.5088452 -3 10 C-3.99 10 -4.98 10 -6 10 C-4.6302836 6.00499382 -2.74277578 3.19990508 0 0 Z " fill="#7B00D2" transform="translate(428,186)"/>
</svg>
