<?xml version="1.0" encoding="UTF-8"?>
<svg version="1.1" xmlns="http://www.w3.org/2000/svg" width="318" height="159">
<path d="M0 0 C104.94 0 209.88 0 318 0 C318 52.47 318 104.94 318 159 C213.06 159 108.12 159 0 159 C0 106.53 0 54.06 0 0 Z " fill="#FEFEFE" transform="translate(0,0)"/>
<path d="M0 0 C0.79719955 0.00222061 1.59439911 0.00444122 2.41575623 0.00672913 C3.31661453 0.00680466 4.21747284 0.00688019 5.14562988 0.00695801 C6.12478867 0.01211929 7.10394745 0.01728058 8.11277771 0.02259827 C9.11018478 0.02401321 10.10759186 0.02542816 11.13522339 0.02688599 C14.3348027 0.03250337 17.53431315 0.04505881 20.73387146 0.05775452 C22.89728191 0.06276728 25.06069345 0.06733057 27.22410583 0.07142639 C32.53988471 0.08247845 37.85562317 0.09923348 43.17137146 0.12025452 C43.18936398 1.88307506 43.20220971 3.64594864 43.21287537 5.40882874 C43.22443161 6.88136612 43.22443161 6.88136612 43.23622131 8.38365173 C43.03110506 17.03936474 38.74385133 25.62590761 33.17137146 32.12025452 C28.50597445 36.18694441 23.6747163 37.61767083 17.57762146 37.51869202 C11.58374138 36.52619889 7.4771271 31.88823369 3.92137146 27.24525452 C-0.51805809 20.13731541 -3.48926464 9.48831172 -2.82862854 1.12025452 C-1.82862854 0.12025452 -1.82862854 0.12025452 0 0 Z " fill="#2D81F6" transform="translate(34.82862854003906,47.87974548339844)"/>
<path d="M0 0 C0.99 0 1.98 0 3 0 C3 14.85 3 29.7 3 45 C2.34 45 1.68 45 1 45 C1 44.34 1 43.68 1 43 C0.484375 43.515625 -0.03125 44.03125 -0.5625 44.5625 C-3 46 -3 46 -6.5 46.1875 C-10.63466358 44.78466771 -10.63466358 44.78466771 -12.4375 41.75 C-15.25684497 35.01759865 -15.14633138 27.16605808 -12.6875 20.375 C-12.130625 19.59125 -11.57375 18.8075 -11 18 C-10.566875 17.38125 -10.13375 16.7625 -9.6875 16.125 C-7.13047642 14.42031761 -4.99186673 14.74537304 -2 15 C-1.34 15.33 -0.68 15.66 0 16 C0 10.72 0 5.44 0 0 Z " fill="#1E7DF6" transform="translate(202,48)"/>
<path d="M0 0 C0.33 0.99 0.66 1.98 1 3 C1.70125 2.34 2.4025 1.68 3.125 1 C6.48103575 -1.33463357 7.99893076 -1.69583813 12 -1 C15.17265796 2.06325597 15.92289664 5.2576298 16.11352539 9.56542969 C16.10828857 10.50805664 16.10305176 11.45068359 16.09765625 12.421875 C16.09443359 13.44667969 16.09121094 14.47148438 16.08789062 15.52734375 C16.07951172 16.59082031 16.07113281 17.65429688 16.0625 18.75 C16.05798828 19.82894531 16.05347656 20.90789062 16.04882812 22.01953125 C16.03705727 24.67974383 16.02061399 27.33984365 16 30 C15.01 30 14.02 30 13 30 C12.98018066 29.34926514 12.96036133 28.69853027 12.93994141 28.02807617 C12.84470701 25.08080849 12.73502182 22.13425115 12.625 19.1875 C12.5940625 18.16333984 12.563125 17.13917969 12.53125 16.08398438 C12.49257813 15.10107422 12.45390625 14.11816406 12.4140625 13.10546875 C12.36693115 11.74651489 12.36693115 11.74651489 12.31884766 10.36010742 C12.13972081 7.73474608 12.13972081 7.73474608 10 5 C6.70924004 5.37904208 6.70924004 5.37904208 4 7 C3.84285346 8.63256758 3.74914586 10.27135338 3.68359375 11.91015625 C3.64169922 12.89951172 3.59980469 13.88886719 3.55664062 14.90820312 C3.51732422 15.94912109 3.47800781 16.99003906 3.4375 18.0625 C3.39431641 19.10728516 3.35113281 20.15207031 3.30664062 21.22851562 C3.20018775 23.81886884 3.0981724 26.40932186 3 29 C2.01 29 1.02 29 0 29 C-0.01981934 28.37955811 -0.03963867 27.75911621 -0.06005859 27.11987305 C-0.15531845 24.30865463 -0.26499302 21.49817834 -0.375 18.6875 C-0.4059375 17.71103516 -0.436875 16.73457031 -0.46875 15.72851562 C-0.50742188 14.79072266 -0.54609375 13.85292969 -0.5859375 12.88671875 C-0.63306885 11.59060669 -0.63306885 11.59060669 -0.68115234 10.26831055 C-0.87188037 7.72257555 -0.87188037 7.72257555 -3 5 C-6.29075996 5.37904208 -6.29075996 5.37904208 -9 7 C-9.15714654 8.63256758 -9.25085414 10.27135338 -9.31640625 11.91015625 C-9.35830078 12.89951172 -9.40019531 13.88886719 -9.44335938 14.90820312 C-9.50233398 16.46958008 -9.50233398 16.46958008 -9.5625 18.0625 C-9.60568359 19.10728516 -9.64886719 20.15207031 -9.69335938 21.22851562 C-9.79981225 23.81886884 -9.9018276 26.40932186 -10 29 C-10.99 29.33 -11.98 29.66 -13 30 C-13 20.1 -13 10.2 -13 0 C-12.34 0 -11.68 0 -11 0 C-11 0.66 -11 1.32 -11 2 C-10.484375 1.484375 -9.96875 0.96875 -9.4375 0.4375 C-6.0289729 -1.57265701 -3.76893143 -0.79727396 0 0 Z " fill="#2E83F6" transform="translate(245,64)"/>
<path d="M0 0 C3.8777639 0.72708073 5.30678978 1.65666792 8 4.5625 C11.09518823 9.87573843 12 13.26386922 12 19.5625 C4.41 19.5625 -3.18 19.5625 -11 19.5625 C-11 11.31634539 -10.59519075 8.78895336 -5.6875 2.6875 C-3 0.5625 -3 0.5625 0 0 Z " fill="#11BF83" transform="translate(55,91.4375)"/>
<path d="M0 0 C5.46075217 5.60834007 5.09647002 9.47533815 5 17 C0.38 17 -4.24 17 -9 17 C-7.76297594 21.12268425 -7.76297594 21.12268425 -6 25 C-3.62116511 26.3259856 -3.62116511 26.3259856 -1 26 C1.26857146 25.15922128 1.26857146 25.15922128 3 24 C3.33 25.32 3.66 26.64 4 28 C1.47220555 30.42668267 0.02773771 30.99603747 -3.5 31.5 C-7 31 -7 31 -9.375 28.625 C-13.27030612 22.33258242 -12.53423848 15.20865791 -12 8 C-11.02107804 4.93796922 -10.07854982 3.50648655 -8 1 C-5.12529507 -0.43735246 -3.18105412 -0.38172649 0 0 Z " fill="#3887F6" transform="translate(222,63)"/>
<path d="M0 0 C1.70043945 1.13208008 1.70043945 1.13208008 3 3 C3.34057617 5.8190918 3.34057617 5.8190918 3.29296875 9.19921875 C3.28330078 10.40771484 3.27363281 11.61621094 3.26367188 12.86132812 C3.23853516 14.12396484 3.21339844 15.38660156 3.1875 16.6875 C3.17396484 17.96173828 3.16042969 19.23597656 3.14648438 20.54882812 C3.11108199 23.69964057 3.0616979 26.84961045 3 30 C2.34 30 1.68 30 1 30 C1 29.34 1 28.68 1 28 C0.34 28 -0.32 28 -1 28 C-1 28.66 -1 29.32 -1 30 C-3.31 30.33 -5.62 30.66 -8 31 C-11.00865963 27.11381465 -11.5349602 23.9324442 -11.34375 19.16015625 C-10.79798635 15.73052786 -9.70043447 14.1464992 -7 12 C-3.25 11.6875 -3.25 11.6875 0 12 C-0.33 10.02 -0.66 8.04 -1 6 C-3.64 6 -6.28 6 -9 6 C-9.33 4.68 -9.66 3.36 -10 2 C-6.30513897 -0.46324069 -4.36706908 -0.38991688 0 0 Z " fill="#2882F6" transform="translate(140,63)"/>
<path d="M0 0 C3.625 0.25 3.625 0.25 5.33325195 1.37817383 C7.2073858 4.09391456 6.96408757 6.17478231 6.91796875 9.44921875 C6.90830078 10.65771484 6.89863281 11.86621094 6.88867188 13.11132812 C6.86353516 14.37396484 6.83839844 15.63660156 6.8125 16.9375 C6.79896484 18.21173828 6.78542969 19.48597656 6.77148438 20.79882812 C6.73608199 23.94964057 6.6866979 27.09961045 6.625 30.25 C5.305 30.25 3.985 30.25 2.625 30.25 C2.295 30.58 1.965 30.91 1.625 31.25 C-1.25 31.625 -1.25 31.625 -4.375 31.25 C-7.16196564 28.37013551 -7.61211318 25.6219905 -7.8125 21.75 C-7.68396046 18.54186733 -7.31622865 17.13480816 -5.8125 14.1875 C-2.56450101 11.60575721 -0.415915 11.86145048 3.625 12.25 C3.625 9.94 3.625 7.63 3.625 5.25 C-0.83 5.745 -0.83 5.745 -5.375 6.25 C-4.31051492 0.3192974 -4.31051492 0.3192974 0 0 Z " fill="#2B82F6" transform="translate(176.375,62.75)"/>
<path d="M0 0 C1.32 0 2.64 0 4 0 C5.00736628 2.93502595 6.00460504 5.87339461 7 8.8125 C7.28617187 9.64587891 7.57234375 10.47925781 7.8671875 11.33789062 C8.13789063 12.14033203 8.40859375 12.94277344 8.6875 13.76953125 C8.93886719 14.50792236 9.19023437 15.24631348 9.44921875 16.00708008 C10 18 10 18 10 21 C10.66 21 11.32 21 12 21 C12.12246094 19.99839844 12.24492187 18.99679688 12.37109375 17.96484375 C12.92969679 14.05462246 13.94359758 10.35233077 15.0625 6.5625 C15.42472656 5.32628906 15.78695313 4.09007813 16.16015625 2.81640625 C16.43730469 1.88699219 16.71445312 0.95757812 17 0 C18.32 0 19.64 0 21 0 C17.59226191 15.49175669 13.28157673 30.73247074 9 46 C7.02 46.495 7.02 46.495 5 47 C5.30852185 45.041036 5.6219418 43.08284287 5.9375 41.125 C6.11152344 40.03445312 6.28554688 38.94390625 6.46484375 37.8203125 C7 35 7 35 8 33 C7.60182605 25.75323405 5.74811486 19.41198603 3.4375 12.5625 C2.78796365 10.60626431 2.14070725 8.64926962 1.49609375 6.69140625 C1.20919678 5.83748291 0.9222998 4.98355957 0.62670898 4.10375977 C0 2 0 2 0 0 Z " fill="#3386F6" transform="translate(265,64)"/>
<path d="M0 0 C2.63281486 2.61112237 3.88599798 4.25831267 4.45410156 7.9543457 C4.42268066 9.5489563 4.42268066 9.5489563 4.390625 11.17578125 C4.37128906 12.91118164 4.37128906 12.91118164 4.3515625 14.68164062 C4.31804687 15.87982422 4.28453125 17.07800781 4.25 18.3125 C4.23195313 19.53001953 4.21390625 20.74753906 4.1953125 22.00195312 C4.14825131 25.00210422 4.0825131 28.00064889 4 31 C3.01 30.67 2.02 30.34 1 30 C0.97494385 29.34402832 0.9498877 28.68805664 0.92407227 28.01220703 C0.8082674 25.04959817 0.68547114 22.08731969 0.5625 19.125 C0.52318359 18.09246094 0.48386719 17.05992188 0.44335938 15.99609375 C0.40146484 15.00996094 0.35957031 14.02382812 0.31640625 13.0078125 C0.27974854 12.09660645 0.24309082 11.18540039 0.20532227 10.24658203 C0.13422935 7.96516519 0.13422935 7.96516519 -1 6 C-3.41645782 5.83312552 -3.41645782 5.83312552 -6 6 C-8.56136221 8.56136221 -8.29666857 9.66561331 -8.4140625 13.2265625 C-8.45273438 14.2578125 -8.49140625 15.2890625 -8.53125 16.3515625 C-8.5621875 17.43179688 -8.593125 18.51203125 -8.625 19.625 C-8.66367188 20.71296875 -8.70234375 21.8009375 -8.7421875 22.921875 C-8.83666247 25.61441165 -8.92222431 28.30693757 -9 31 C-9.99 31 -10.98 31 -12 31 C-12 21.1 -12 11.2 -12 1 C-11.34 1 -10.68 1 -10 1 C-10 1.66 -10 2.32 -10 3 C-9.46375 2.505 -8.9275 2.01 -8.375 1.5 C-5.27859404 -0.45562482 -3.60146865 -0.60024477 0 0 Z " fill="#10BD81" transform="translate(120,63)"/>
<path d="M0 0 C0.99 0 1.98 0 3 0 C3.02505615 0.61520508 3.0501123 1.23041016 3.07592773 1.86425781 C3.19218487 4.65970156 3.31477642 7.45483298 3.4375 10.25 C3.47681641 11.21808594 3.51613281 12.18617187 3.55664062 13.18359375 C3.59853516 14.11816406 3.64042969 15.05273438 3.68359375 16.015625 C3.72025146 16.87446289 3.75690918 17.73330078 3.79467773 18.61816406 C3.98703514 20.84960143 4.38846244 22.84982524 5 25 C8.79547921 24.03223902 8.79547921 24.03223902 12 22 C12.15714654 20.36743242 12.25085414 18.72864662 12.31640625 17.08984375 C12.35830078 16.10048828 12.40019531 15.11113281 12.44335938 14.09179688 C12.50233398 12.53041992 12.50233398 12.53041992 12.5625 10.9375 C12.60568359 9.89271484 12.64886719 8.84792969 12.69335938 7.77148438 C12.79981225 5.18113116 12.9018276 2.59067814 13 0 C13.99 0 14.98 0 16 0 C16 9.9 16 19.8 16 30 C15.34 30 14.68 30 14 30 C14 29.01 14 28.02 14 27 C13.34 27 12.68 27 12 27 C12 27.66 12 28.32 12 29 C9.17116253 30.41441874 7.12623255 30.31900332 4 30 C0.85992364 26.96820214 0.0823075 23.79341856 -0.11352539 19.52636719 C-0.10828857 18.62563477 -0.10305176 17.72490234 -0.09765625 16.796875 C-0.09443359 15.8171875 -0.09121094 14.8375 -0.08789062 13.828125 C-0.07951172 12.81234375 -0.07113281 11.7965625 -0.0625 10.75 C-0.05798828 9.71875 -0.05347656 8.6875 -0.04882812 7.625 C-0.03706088 5.08327427 -0.02062011 2.54166681 0 0 Z " fill="#07BC7E" transform="translate(87,64)"/>
<path d="M0 0 C2.33944736 0.28730055 4.6739143 0.61936779 7 1 C7.10812003 3.75105422 7.18734945 6.49785087 7.25 9.25 C7.30027344 10.41595703 7.30027344 10.41595703 7.3515625 11.60546875 C7.45112665 17.42997175 7.45112665 17.42997175 4.984375 20.546875 C4.32953125 21.02640625 3.6746875 21.5059375 3 22 C0.00705757 21.13362193 -1.6095146 20.61361992 -3.3125 17.9375 C-4.54078371 12.68937869 -4.92502319 7.93048317 -2.5625 3 C-1 1 -1 1 0 0 Z " fill="#F6FAFD" transform="translate(195,68)"/>
<path d="M0 0 C3.1875 0.3125 3.1875 0.3125 5.625 2 C7.1875 4.3125 7.1875 4.3125 6.9375 7.0625 C6.69 7.805 6.4425 8.5475 6.1875 9.3125 C5.5275 8.9825 4.8675 8.6525 4.1875 8.3125 C4.1875 7.6525 4.1875 6.9925 4.1875 6.3125 C1.31385209 5.89503392 1.31385209 5.89503392 -1.8125 6.3125 C-4.61632884 9.2097898 -5.03160803 11.92169621 -5.1875 15.8125 C-5.03836223 19.6965663 -4.55574346 22.38006733 -1.8125 25.3125 C0.73077108 25.97935938 0.73077108 25.97935938 3.1875 25.3125 C3.8475 24.3225 4.5075 23.3325 5.1875 22.3125 C5.8475 22.3125 6.5075 22.3125 7.1875 22.3125 C6.875 25.6875 6.875 25.6875 6.1875 29.3125 C2.66177193 31.66298538 1.33736355 31.97647817 -2.8125 31.3125 C-7.95513804 26.2841428 -8.95317145 22.52025552 -9.1875 15.5625 C-9.16515239 9.4765007 -7.06609066 0.78512118 0 0 Z " fill="#2E84F6" transform="translate(156.8125,62.6875)"/>
<path d="M0 0 C2.9375 0.625 2.9375 0.625 5.25 2.75 C7.04481271 5.80782906 7.61127297 8.11805941 7.9375 11.625 C7.2775 11.625 6.6175 11.625 5.9375 11.625 C5.6075 12.285 5.2775 12.945 4.9375 13.625 C1.3075 13.625 -2.3225 13.625 -6.0625 13.625 C-7.87424699 8.5348537 -7.87424699 8.5348537 -8.0625 5.625 C-5.69042577 2.06688865 -4.19551055 0.85622664 0 0 Z " fill="#3185F6" transform="translate(219.0625,62.375)"/>
<path d="M0 0 C0.99 0.33 1.98 0.66 3 1 C2.835 1.639375 2.67 2.27875 2.5 2.9375 C1.58170981 8.56202744 0.86205551 14.97928882 4 20 C5.87957244 21.1576585 5.87957244 21.1576585 8 21 C9.58333333 19.58333333 9.58333333 19.58333333 11 18 C11.99 18 12.98 18 14 18 C14 19.98 14 21.96 14 24 C13.0409375 24.2165625 13.0409375 24.2165625 12.0625 24.4375 C10.02454854 24.81007181 10.02454854 24.81007181 9 26 C5.6875 26.0625 5.6875 26.0625 2 25 C-2.76383107 20.08471765 -2.41200261 13.37301998 -2.3359375 6.953125 C-2.01460768 4.12841169 -1.46038358 2.40671214 0 0 Z " fill="#2C83F6" transform="translate(190,68)"/>
<path d="M0 0 C3.625 0.25 3.625 0.25 5.33325195 1.37817383 C7.2073858 4.09391456 6.96408757 6.17478231 6.91796875 9.44921875 C6.90830078 10.65771484 6.89863281 11.86621094 6.88867188 13.11132812 C6.86353516 14.37396484 6.83839844 15.63660156 6.8125 16.9375 C6.79896484 18.21173828 6.78542969 19.48597656 6.77148438 20.79882812 C6.73608199 23.94964057 6.6866979 27.09961045 6.625 30.25 C5.965 30.25 5.305 30.25 4.625 30.25 C4.63660156 29.03183594 4.64820313 27.81367187 4.66015625 26.55859375 C4.66954178 24.93489738 4.67864116 23.31119933 4.6875 21.6875 C4.69587891 20.88763672 4.70425781 20.08777344 4.71289062 19.26367188 C4.73242247 14.47836896 4.42937018 9.96854949 3.625 5.25 C-0.83 5.745 -0.83 5.745 -5.375 6.25 C-4.31051492 0.3192974 -4.31051492 0.3192974 0 0 Z " fill="#1F7DF6" transform="translate(176.375,62.75)"/>
<path d="M0 0 C0.9075 0.103125 1.815 0.20625 2.75 0.3125 C2.42 1.3025 2.09 2.2925 1.75 3.3125 C0.904375 3.725 0.05875 4.1375 -0.8125 4.5625 C-3.64343693 6.16576497 -3.64343693 6.16576497 -3.875 9.8125 C-3.62570119 13.46845417 -3.62570119 13.46845417 -0.75 15.25 C0.075 15.600625 0.9 15.95125 1.75 16.3125 C1.42 17.3025 1.09 18.2925 0.75 19.3125 C-1.5625 19.625 -1.5625 19.625 -4.25 19.3125 C-6.97670802 16.39774315 -7.49393235 13.67740078 -7.6875 9.8125 C-7.56260376 6.55976761 -7.20091725 5.2199979 -5.625 2.25 C-3.25 0.3125 -3.25 0.3125 0 0 Z " fill="#2B82F6" transform="translate(136.25,74.6875)"/>
<path d="M0 0 C1.32 0 2.64 0 4 0 C4.226875 0.639375 4.45375 1.27875 4.6875 1.9375 C5.84414904 4.21503486 5.84414904 4.21503486 8.375 4.875 C11.26487742 5.01261321 12.58278807 4.52194825 15 3 C15.33 4.32 15.66 5.64 16 7 C13.47220555 9.42668267 12.02773771 9.99603747 8.5 10.5 C5 10 5 10 2.625 7.8125 C1.0544095 5.09417029 0.35390875 3.09670158 0 0 Z " fill="#3888F6" transform="translate(210,84)"/>
<path d="M0 0 C2.59593412 1.21684412 3.58333571 2.4583375 5 4.9375 C5 6.2575 5 7.5775 5 8.9375 C1.37 8.9375 -2.26 8.9375 -6 8.9375 C-5.39873418 3.52610759 -5.39873418 3.52610759 -3.6875 1 C-2 -0.0625 -2 -0.0625 0 0 Z " fill="#EBF2FD" transform="translate(219,67.0625)"/>
<path d="M0 0 C0.94875 0.04125 1.8975 0.0825 2.875 0.125 C3.23891205 7.52454511 3.23891205 7.52454511 1.625 10.1875 C-0.125 11.125 -0.125 11.125 -2.25 10.875 C-4.125 10.125 -4.125 10.125 -5.125 9.125 C-5.3125 5.6875 -5.3125 5.6875 -5.125 2.125 C-3.125 0.125 -3.125 0.125 0 0 Z " fill="#F7FAFD" transform="translate(177.125,78.875)"/>
<path d="M0 0 C0.94875 0.04125 1.8975 0.0825 2.875 0.125 C3.23891205 7.52454511 3.23891205 7.52454511 1.625 10.1875 C-0.125 11.125 -0.125 11.125 -2.25 10.875 C-4.125 10.125 -4.125 10.125 -5.125 9.125 C-5.3125 5.6875 -5.3125 5.6875 -5.125 2.125 C-3.125 0.125 -3.125 0.125 0 0 Z " fill="#F9FBFD" transform="translate(137.125,78.875)"/>
<path d="M0 0 C0.99 0.495 0.99 0.495 2 1 C2.92188461 3.76565382 3.11785222 5.38283702 3.09765625 8.23046875 C3.09282227 9.43413086 3.09282227 9.43413086 3.08789062 10.66210938 C3.07532227 11.91217773 3.07532227 11.91217773 3.0625 13.1875 C3.05798828 14.03248047 3.05347656 14.87746094 3.04882812 15.74804688 C3.03705403 17.83206155 3.0191189 19.91603977 3 22 C2.01 22 1.02 22 0 22 C0 14.74 0 7.48 0 0 Z " fill="#217DF6" transform="translate(245,71)"/>
<path d="M0 0 C1.9375 1.3125 1.9375 1.3125 3 3 C3 3.99 3 4.98 3 6 C-0.96 6 -4.92 6 -9 6 C-9.33 4.68 -9.66 3.36 -10 2 C-6.30513897 -0.46324069 -4.36706908 -0.38991688 0 0 Z " fill="#3084F6" transform="translate(140,63)"/>
<path d="M0 0 C0.33 0 0.66 0 1 0 C2.06795656 5.57710648 1.82622671 10.39436958 1 16 C0.67 16 0.34 16 0 16 C0 13.69 0 11.38 0 9 C-1.093125 9.20625 -2.18625 9.4125 -3.3125 9.625 C-7 10 -7 10 -10 8 C-8.9375 6.5 -8.9375 6.5 -7 5 C-3.3125 4.8125 -3.3125 4.8125 0 5 C0 3.35 0 1.7 0 0 Z " fill="#639FF7" transform="translate(180,70)"/>
<path d="M0 0 C3.5625 0.1875 3.5625 0.1875 5.5625 2.1875 C5.2325 3.1775 4.9025 4.1675 4.5625 5.1875 C1.2625 5.5175 -2.0375 5.8475 -5.4375 6.1875 C-4.36970339 0.23834746 -4.36970339 0.23834746 0 0 Z " fill="#2A82F6" transform="translate(176.4375,62.8125)"/>
<path d="M0 0 C0.66 0.33 1.32 0.66 2 1 C2 2.65 2 4.3 2 6 C-2.62 6 -7.24 6 -12 6 C-12 5.01 -12 4.02 -12 3 C-8.37 3 -4.74 3 -1 3 C-0.67 2.01 -0.34 1.02 0 0 Z " fill="#217DF5" transform="translate(225,73)"/>
<path d="M0 0 C0.66 0.33 1.32 0.66 2 1 C1.6875 2.875 1.6875 2.875 1 5 C-2.22791555 7.1519437 -3.28400809 7.20086443 -7 7 C-5.68 6.67 -4.36 6.34 -3 6 C-3 5.34 -3 4.68 -3 4 C-3.99 3.67 -4.98 3.34 -6 3 C-4.03533587 1.93224776 -2.03144641 0.93446535 0 0 Z " fill="#2B82F6" transform="translate(224,87)"/>
<path d="M0 0 C0.598125 0.20625 1.19625 0.4125 1.8125 0.625 C1.4825 1.285 1.1525 1.945 0.8125 2.625 C1.8025 3.285 2.7925 3.945 3.8125 4.625 C1.1725 4.955 -1.4675 5.285 -4.1875 5.625 C-4.5175 4.305 -4.8475 2.985 -5.1875 1.625 C-2.1875 -0.375 -2.1875 -0.375 0 0 Z " fill="#428EF6" transform="translate(135.1875,63.375)"/>
<path d="M0 0 C0.33 0 0.66 0 1 0 C1.33 3.63 1.66 7.26 2 11 C1.01 11 0.02 11 -1 11 C-1.33 11.66 -1.66 12.32 -2 13 C-2.625 11.125 -2.625 11.125 -3 9 C-2.34 8.34 -1.68 7.68 -1 7 C-0.59952556 4.67724823 -0.2602896 2.34260643 0 0 Z " fill="#3887F6" transform="translate(140,80)"/>
<path d="M0 0 C0.99 0 1.98 0 3 0 C3.625 2.8125 3.625 2.8125 4 6 C3.01 7.485 3.01 7.485 2 9 C0.50178941 5.62902617 0 3.79557881 0 0 Z " fill="#2680F5" transform="translate(268,71)"/>
<path d="M0 0 C3 -0.3125 3 -0.3125 6 0 C6.66 0.66 7.32 1.32 8 2 C4.78548731 3.60725635 1.56387464 3.05748185 -2 3 C-1.34 2.01 -0.68 1.02 0 0 Z " fill="#247EF5" transform="translate(173,75)"/>
<path d="M0 0 C0.99 0 1.98 0 3 0 C2.01 3.3 1.02 6.6 0 10 C-0.33 10 -0.66 10 -1 10 C-1.02689216 8.52093108 -1.04634621 7.04172517 -1.0625 5.5625 C-1.07410156 4.73878906 -1.08570313 3.91507812 -1.09765625 3.06640625 C-1 1 -1 1 0 0 Z " fill="#3888F6" transform="translate(170,79)"/>
<path d="M0 0 C0.99 0.33 1.98 0.66 3 1 C3 3.31 3 5.62 3 8 C2.01 7.67 1.02 7.34 0 7 C0 4.69 0 2.38 0 0 Z " fill="#1179F6" transform="translate(148,75)"/>
<path d="M0 0 C1.32 0.33 2.64 0.66 4 1 C4 1.99 4 2.98 4 4 C1.69 4 -0.62 4 -3 4 C-2.01 2.68 -1.02 1.36 0 0 Z " fill="#267FF5" transform="translate(238,63)"/>
<path d="M0 0 C0.99 0.66 1.98 1.32 3 2 C2.67 2.99 2.34 3.98 2 5 C0.02 5 -1.96 5 -4 5 C-2.25 1.125 -2.25 1.125 0 0 Z " fill="#458FF6" transform="translate(179,63)"/>
<path d="M0 0 C0.33 0 0.66 0 1 0 C1.66 3.3 2.32 6.6 3 10 C2.01 10 1.02 10 0 10 C0 6.7 0 3.4 0 0 Z " fill="#187AF6" transform="translate(210,74)"/>
<path d="M0 0 C0.94875 0.04125 1.8975 0.0825 2.875 0.125 C2.545 1.115 2.215 2.105 1.875 3.125 C0 3.9375 0 3.9375 -2.125 4.125 C-3.115 3.465 -4.105 2.805 -5.125 2.125 C-3.125 0.125 -3.125 0.125 0 0 Z " fill="#1F7DF5" transform="translate(136.125,74.875)"/>
</svg>
