<svg xmlns="http://www.w3.org/2000/svg" viewBox="0 0 115.17 38.84"><defs><style>.cls-1{fill:#fff;}.cls-2{fill:none;stroke:#fff;stroke-miterlimit:10;stroke-width:0.5px;}</style></defs><g id="Layer_2" data-name="Layer 2"><g id="Layer_1-2" data-name="Layer 1"><rect class="cls-1" x="43.87" y="0.43" width="1.4" height="38.14" rx="0.7"/><polygon class="cls-1" points="54.06 13.77 54.06 9.22 61.98 9.22 61.98 28.83 56.84 28.83 56.84 13.77 54.06 13.77"/><path class="cls-2" d="M79,18.9c0,3.21-1.53,5.81-3.43,5.81s-3.42-2.6-3.42-5.81,1.53-5.81,3.42-5.81S79,15.69,79,18.9Z"/><path class="cls-1" d="M75.62,8.16c-4.62,0-8.37,4.75-8.37,10.61S71,29.39,75.62,29.39,84,24.64,84,18.77,80.23,8.16,75.62,8.16Zm-.05,16.55c-1.89,0-3.42-2.6-3.42-5.81s1.53-5.81,3.42-5.81S79,15.69,79,18.9,77.47,24.71,75.57,24.71Z"/><polygon class="cls-1" points="87.31 13.77 87.31 9.22 95.23 9.22 95.23 28.83 90.09 28.83 90.09 13.77 87.31 13.77"/><path class="cls-1" d="M106.81,8.41c-4.62,0-8.37,4.75-8.37,10.61s3.75,10.62,8.37,10.62,8.36-4.75,8.36-10.62S111.42,8.41,106.81,8.41Zm0,16.55c-1.89,0-3.42-2.6-3.42-5.81s1.53-5.81,3.42-5.81,3.43,2.6,3.43,5.81S108.66,25,106.76,25Z"/><path class="cls-2" d="M79,18.9c0,3.21-1.53,5.81-3.43,5.81s-3.42-2.6-3.42-5.81,1.53-5.81,3.42-5.81S79,15.69,79,18.9Z"/><path class="cls-1" d="M23,23c-.25.25-.53.48-.82.72l-.17.18L21.8,24l-4.54,3.62c-1.52,1.22-2.85,2.34-4.07,3.43s-2.42,2.23-3.81,3.62L6.29,37.76a3,3,0,0,1-.42.37,3.72,3.72,0,0,1-4.8-.37A3.73,3.73,0,0,1,.71,33a3.64,3.64,0,0,1,.36-.41L4,29.62c1.51-1.52,2.64-2.72,3.66-3.9,1.47-1.64,2.55-2.92,3.5-4.15l4-5a11.44,11.44,0,0,1,2.09-2.08l5-3.94c1.24-1,2.52-2.05,4.17-3.53,1.16-1,2.36-2.13,3.89-3.66l2.31-2.31a2.3,2.3,0,0,1,.37-.32,3.69,3.69,0,0,1,5.16,5.17,1.85,1.85,0,0,1-.31.37L35.22,8.84c-1.26,1.26-2.34,2.39-3.3,3.48s-2.05,2.3-3.18,3.69L23.89,22C23.57,22.34,23.27,22.67,23,23Zm-1.06.51,0,0a14.63,14.63,0,0,0,1.71-1.72l1.57-1.93,3.28-4c1.13-1.39,2.17-2.6,3.19-3.7s2-2.23,3.31-3.49l2.56-2.56a2.88,2.88,0,0,0,.28-.33,3.41,3.41,0,0,0-.3-4.41A3.43,3.43,0,0,0,33.12,1a3,3,0,0,0-.33.29L30.48,3.6C29,5.14,27.74,6.27,26.57,7.28c-1.65,1.48-2.94,2.57-4.18,3.54l-5,3.94a10.27,10.27,0,0,0-2,2l-.89,1.11-3.08,3.88c-1,1.23-2,2.51-3.52,4.16-1,1.18-2.16,2.39-3.67,3.91L1.3,32.78a2.83,2.83,0,0,0-.32.37,3.37,3.37,0,0,0,4.71,4.71,2.3,2.3,0,0,0,.37-.33l3.09-3.09c1.4-1.39,2.61-2.55,3.82-3.63s2.56-2.22,4.09-3.45l4.7-3.72Z"/><path class="cls-1" d="M16.51,21.76a2,2,0,0,0-2.59.23,2,2,0,0,0-.2,2.56,1,1,0,0,0,.23.28,1.38,1.38,0,0,0,.27.23,2,2,0,0,0,2.54-.23A2,2,0,0,0,17,22.27a1.18,1.18,0,0,0-.23-.28A1.35,1.35,0,0,0,16.51,21.76Zm0,2.84a1.69,1.69,0,0,1-2.08.23,1.38,1.38,0,0,1-.27-.23,1.23,1.23,0,0,1-.23-.28A1.68,1.68,0,0,1,16.28,22a1.49,1.49,0,0,1,.27.23,1,1,0,0,1,.24.28A1.69,1.69,0,0,1,16.53,24.6Z"/><path class="cls-1" d="M24.61,13.65a2,2,0,0,0-2.58.24,2,2,0,0,0-.21,2.56,1.35,1.35,0,0,0,.23.28,1.18,1.18,0,0,0,.28.23,2,2,0,0,0,2.54-.24,2,2,0,0,0,.25-2.56,1.38,1.38,0,0,0-.23-.27A1.2,1.2,0,0,0,24.61,13.65Zm0,2.84a1.65,1.65,0,0,1-2.07.23.84.84,0,0,1-.28-.23,1.49,1.49,0,0,1-.23-.27,1.67,1.67,0,0,1,.21-2.1,1.7,1.7,0,0,1,2.12-.23.89.89,0,0,1,.28.23,1.38,1.38,0,0,1,.23.27A1.69,1.69,0,0,1,24.63,16.49Z"/><path class="cls-1" d="M14.18,24.6a1.38,1.38,0,0,0,.27.23L3.7,35.59a.38.38,0,0,1-.51,0,.36.36,0,0,1,0-.51L14,24.32A1.23,1.23,0,0,0,14.18,24.6Z"/><path class="cls-1" d="M22.28,16.49a.84.84,0,0,0,.28.23L16.79,22.5a1,1,0,0,0-.24-.28,1.49,1.49,0,0,0-.27-.23l5.77-5.77A1.49,1.49,0,0,0,22.28,16.49Z"/><path class="cls-1" d="M35.53,3.24a.36.36,0,0,1,0,.51L24.89,14.39a1.38,1.38,0,0,0-.23-.27.89.89,0,0,0-.28-.23L35,3.24A.36.36,0,0,1,35.53,3.24Z"/></g></g></svg>