<svg xmlns="http://www.w3.org/2000/svg" xmlns:xlink="http://www.w3.org/1999/xlink" viewBox="0 0 117.94 33.57"><defs><style>.cls-1,.cls-2{fill:none;stroke:#fff;stroke-miterlimit:10;}.cls-1{stroke-width:0.75px;}.cls-3{fill:#007dc5;}.cls-4{fill:url(#linear-gradient);}.cls-5{fill:url(#linear-gradient-2);}.cls-6{fill:url(#linear-gradient-3);}.cls-7{fill:url(#linear-gradient-4);}.cls-8{fill:url(#linear-gradient-5);}.cls-9{fill:url(#linear-gradient-6);}.cls-10{fill:url(#linear-gradient-7);}.cls-11{fill:url(#linear-gradient-8);}.cls-12{fill:url(#linear-gradient-9);}</style><linearGradient id="linear-gradient" x1="339.29" y1="-111.09" x2="339.29" y2="-120.4" gradientTransform="matrix(1, 0, 0, -1, -337.03, -108.82)" gradientUnits="userSpaceOnUse"><stop offset="0" stop-color="#ffc708"/><stop offset="1" stop-color="#f05731"/></linearGradient><linearGradient id="linear-gradient-2" x1="344.41" y1="-118.24" x2="341.97" y2="-135.86" gradientTransform="matrix(1, 0, 0, -1, -337.03, -108.82)" gradientUnits="userSpaceOnUse"><stop offset="0" stop-color="#f80000"/><stop offset="1" stop-color="#ee3984"/></linearGradient><linearGradient id="linear-gradient-3" x1="341.03" y1="-139.09" x2="353.78" y2="-135.04" gradientTransform="matrix(1, 0, 0, -1, -337.03, -108.82)" gradientUnits="userSpaceOnUse"><stop offset="0" stop-color="#ee3984"/><stop offset="1" stop-color="#7800da"/></linearGradient><linearGradient id="linear-gradient-4" x1="358.36" y1="-123.13" x2="363.02" y2="-139.56" gradientTransform="matrix(1, 0, 0, -1, -337.03, -108.82)" gradientUnits="userSpaceOnUse"><stop offset="0" stop-color="red"/><stop offset="1" stop-color="#ee3984"/><stop offset="1" stop-color="#ee3984"/></linearGradient><linearGradient id="linear-gradient-5" x1="348.84" y1="-123.18" x2="369.4" y2="-123.18" gradientTransform="matrix(1, 0, 0, -1, -337.03, -108.82)" gradientUnits="userSpaceOnUse"><stop offset="0" stop-color="#ffc708"/><stop offset="1" stop-color="#fa3b00"/></linearGradient><linearGradient id="linear-gradient-6" x1="374.71" y1="-129.27" x2="388.91" y2="-129.27" gradientTransform="matrix(1, 0, 0, -1, -337.03, -108.82)" gradientUnits="userSpaceOnUse"><stop offset="0" stop-color="red"/><stop offset="1" stop-color="#ee3984"/></linearGradient><linearGradient id="linear-gradient-7" x1="386.17" y1="-136.13" x2="373.66" y2="-139.44" gradientTransform="matrix(1, 0, 0, -1, -337.03, -108.82)" gradientUnits="userSpaceOnUse"><stop offset="0" stop-color="#ee3984"/><stop offset="1" stop-color="#7800da"/></linearGradient><linearGradient id="linear-gradient-8" x1="376.26" y1="-121.35" x2="388.21" y2="-121.35" xlink:href="#linear-gradient"/><linearGradient id="linear-gradient-9" x1="360.6" y1="-136.62" x2="369.31" y2="-122.4" xlink:href="#linear-gradient-7"/></defs><g id="Layer_2" data-name="Layer 2"><g id="Layer_1-2" data-name="Layer 1"><path class="cls-1" d="M33.25.32a6.49,6.49,0,0,1-.36.55A2.9,2.9,0,0,1,33.25.32Z"/><path class="cls-2" d="M33.25.32a6.49,6.49,0,0,1-.36.55A2.9,2.9,0,0,1,33.25.32Z"/><polygon class="cls-3" points="60.46 14.66 62.95 14.66 62.95 10.22 64.71 10.22 64.71 8.42 58.69 8.42 58.69 10.22 60.46 10.22 60.46 14.66"/><polygon class="cls-3" points="66.55 14.66 67.81 10.93 69.08 14.66 71.51 14.66 69.13 8.42 66.5 8.42 64.11 14.66 66.55 14.66"/><polygon class="cls-3" points="72.68 14.66 75.17 14.66 75.17 10.22 76.94 10.22 76.94 8.42 70.92 8.42 70.92 10.22 72.68 10.22 72.68 14.66"/><polygon class="cls-3" points="78.77 14.66 80.04 10.93 81.3 14.66 83.74 14.66 81.35 8.42 78.72 8.42 76.34 14.66 78.77 14.66"/><path class="cls-3" d="M102.65,19.11a19,19,0,0,0,1.11,2.15L105.39,24h1.18V17.77h-1V20c0,.95,0,1.75.1,2.58h0a17.76,17.76,0,0,0-1.06-2.08l-1.61-2.68h-1.31V24h1.06V21.77c0-1,0-1.84-.06-2.65Z"/><path class="cls-3" d="M97,22.24h2L99.54,24h1.22l-2-6.23H97.29l-2,6.23h1.17Zm.67-2.4c.11-.37.21-.8.3-1.16h0c.09.36.19.78.31,1.17l.49,1.53h-1.6Z"/><path class="cls-3" d="M78.44,23.16a3.2,3.2,0,0,1-1.51-.4l-.25.94a3.62,3.62,0,0,0,1.69.4c1.6,0,2.36-.87,2.36-1.87s-.52-1.44-1.6-1.85c-.83-.32-1.2-.55-1.2-1s.31-.75,1-.75a2.67,2.67,0,0,1,1.25.29l.27-.92a3.37,3.37,0,0,0-1.49-.3c-1.35,0-2.21.76-2.21,1.79s.66,1.44,1.69,1.81c.79.28,1.1.56,1.1,1S79.17,23.16,78.44,23.16Z"/><path class="cls-3" d="M62.08,18.61a3,3,0,0,1,1.21.25l.25-.91A3.38,3.38,0,0,0,62,17.67,3.15,3.15,0,0,0,58.69,21a3,3,0,0,0,3.19,3.14,4.09,4.09,0,0,0,1.61-.28l-.19-.9a3.19,3.19,0,0,1-1.24.23,2,2,0,0,1-2.17-2.25A2.08,2.08,0,0,1,62.08,18.61Z"/><polygon class="cls-3" points="93.9 24 93.9 18.73 95.7 18.73 95.7 17.77 90.98 17.77 90.98 18.73 92.76 18.73 92.76 24 93.9 24"/><path class="cls-3" d="M116.65,17.77l-.75,1.6c-.21.45-.38.84-.54,1.23h0c-.17-.42-.33-.77-.54-1.23l-.74-1.6h-1.3l2,3.64V24h1.14V21.38l2.07-3.61Z"/><path class="cls-3" d="M66.84,17.67a3,3,0,0,0-3,3.26,2.9,2.9,0,0,0,2.88,3.18h0c1.71,0,3-1.2,3-3.29A2.87,2.87,0,0,0,66.84,17.67Zm0,5.52h0c-1.09,0-1.73-1-1.72-2.28s.59-2.33,1.73-2.33,1.72,1.11,1.72,2.29S67.9,23.19,66.8,23.19Z"/><path class="cls-3" d="M110.93,18.61a3,3,0,0,1,1.22.25l.25-.91a3.41,3.41,0,0,0-1.51-.28A3.14,3.14,0,0,0,107.55,21a2.94,2.94,0,0,0,3.18,3.14,4.11,4.11,0,0,0,1.62-.28l-.19-.9a3.19,3.19,0,0,1-1.24.23,2,2,0,0,1-2.17-2.25A2.07,2.07,0,0,1,110.93,18.61Z"/><polygon class="cls-3" points="89.05 17.77 87.91 17.77 87.91 24 91.61 24 91.61 23.05 89.05 23.05 89.05 17.77"/><path class="cls-3" d="M86.62,21.33V17.77H85.48v3.64c0,1.22-.5,1.78-1.32,1.78s-1.27-.57-1.27-1.78V17.77H81.75v3.57c0,2,.94,2.77,2.37,2.77S86.62,23.25,86.62,21.33Z"/><path class="cls-3" d="M75.65,17.77H74.6V20c0,.95,0,1.75.1,2.58h0a17.76,17.76,0,0,0-1.06-2.08L72,17.77H70.7V24h1.06V21.77c0-1,0-1.84-.06-2.65h0a19,19,0,0,0,1.11,2.15L74.47,24h1.18V17.77Z"/><rect class="cls-3" x="79.38" y="27.12" width="1.14" height="6.23"/><path class="cls-3" d="M71.55,30.43v0a1.62,1.62,0,0,0,1.13-1.54,1.58,1.58,0,0,0-.53-1.24,3.1,3.1,0,0,0-1.91-.5,9.11,9.11,0,0,0-1.71.13v6.1h1.12V30.81h.57c.64,0,.93.28,1.11,1.08a8.52,8.52,0,0,0,.41,1.46H72.9a13.48,13.48,0,0,1-.48-1.72A1.58,1.58,0,0,0,71.55,30.43ZM70.32,30h-.67V28a3,3,0,0,1,.7-.06c.73,0,1.2.32,1.2,1S71.08,30,70.32,30Z"/><path class="cls-3" d="M76.59,30c-.24.75-.47,1.52-.63,2.25h0c-.17-.75-.38-1.48-.61-2.27l-.85-2.83H73.23l2,6.23h1.31l2.15-6.23H77.5Z"/><polygon class="cls-3" points="88.4 30.59 90.75 30.59 90.75 29.66 88.4 29.66 88.4 28.05 90.89 28.05 90.89 27.12 87.26 27.12 87.26 33.35 91.02 33.35 91.02 32.41 88.4 32.41 88.4 30.59"/><path class="cls-3" d="M84.88,28a3,3,0,0,1,1.22.24l.25-.9A3.41,3.41,0,0,0,84.84,27a3.14,3.14,0,0,0-3.34,3.29,3,3,0,0,0,3.18,3.14,3.94,3.94,0,0,0,1.62-.29l-.19-.89a3.4,3.4,0,0,1-1.24.22,2,2,0,0,1-2.17-2.24A2.07,2.07,0,0,1,84.88,28Z"/><path class="cls-3" d="M61.14,29.72c-.83-.31-1.19-.54-1.19-1s.3-.75,1-.75a2.65,2.65,0,0,1,1.25.3l.27-.92A3.35,3.35,0,0,0,61,27c-1.35,0-2.21.77-2.21,1.79s.66,1.45,1.69,1.81c.79.29,1.1.57,1.1,1s-.4.85-1.13.85a3.2,3.2,0,0,1-1.51-.4l-.25.94a3.62,3.62,0,0,0,1.69.4c1.6,0,2.36-.87,2.36-1.87S62.22,30.13,61.14,29.72Z"/><polygon class="cls-3" points="64.9 30.59 67.25 30.59 67.25 29.66 64.9 29.66 64.9 28.05 67.39 28.05 67.39 27.12 63.76 27.12 63.76 33.35 67.53 33.35 67.53 32.41 64.9 32.41 64.9 30.59"/><path class="cls-3" d="M94.19,29.72c-.83-.31-1.19-.54-1.19-1s.31-.75,1-.75a2.64,2.64,0,0,1,1.24.3l.28-.92a3.4,3.4,0,0,0-1.5-.31c-1.35,0-2.2.77-2.2,1.79s.65,1.45,1.68,1.81c.79.29,1.11.57,1.11,1s-.41.85-1.13.85a3.2,3.2,0,0,1-1.51-.4l-.25.94a3.58,3.58,0,0,0,1.68.4c1.61,0,2.36-.87,2.36-1.87S95.28,30.13,94.19,29.72Z"/><path class="cls-4" d="M0,12.69A4.22,4.22,0,0,1,4.52,8.17V3.37A2.2,2.2,0,0,0,2.26,1,2.2,2.2,0,0,0,0,3.37Z"/><path class="cls-5" d="M8,33.52A9.29,9.29,0,0,0,11.1,33c-4.75.8-6.58-2.45-6.58-6.12v-15H10a1.85,1.85,0,1,0,0-3.67H4.52A4.22,4.22,0,0,0,0,12.69V25.62C0,30.8,3,33.52,8,33.52Z"/><path class="cls-6" d="M11.1,33a7.67,7.67,0,0,0,4.28-4l-2.11-3.81c-.95,2.83-2.59,4.33-4.85,4.33s-3.9-1.36-3.9-4.47v1.79C4.52,30.56,6.35,33.81,11.1,33Z"/><path class="cls-7" d="M30.43,32.25c-10.72,1.6-14.11-4.14-14.11-11.52,0-5.36,3.29-9,8.05-9a10.5,10.5,0,0,1,4.51,1,3.74,3.74,0,0,0,1.6.37,1.77,1.77,0,0,0,1.88-1.88A2.13,2.13,0,0,0,31,9.3a15,15,0,0,0-6.59-1.41c-7.43,0-12.56,5.27-12.56,12.93s4.94,12.75,12.89,12.75A11.91,11.91,0,0,0,30.43,32.25Z"/><path class="cls-8" d="M11.81,20.82c0-7.66,5.12-12.93,12.56-12.93A15,15,0,0,1,31,9.3a2.12,2.12,0,0,1,1.41,1.88,1.77,1.77,0,0,1-1.88,1.88,3.66,3.66,0,0,1-1.6-.38,10.47,10.47,0,0,0-4.51-1C17.83,11.7,11.81,15.84,11.81,20.82Z"/><path class="cls-9" d="M39.89,9.39A2.14,2.14,0,0,0,39.23,11c0,1.55,1.46,3.85,4.84,6.21l3.86,2.68c2.82,2,4,3.85,4,6.68a6.67,6.67,0,0,1-2.12,5,2.24,2.24,0,0,0,.76-1.74c0-1.65-1.65-4.23-5.18-6.68l-3.53-2.44c-3-2.07-4.14-4-4.14-6.64a5.9,5.9,0,0,1,1.51-4A7.87,7.87,0,0,1,39.89,9.39Z"/><path class="cls-10" d="M36.83,30.51a2,2,0,0,0,1.37,1.84,13.94,13.94,0,0,0,5.55,1.22,8.8,8.8,0,0,0,6-2.07,2.23,2.23,0,0,0,.75-1.74c0-1.65-1.65-4.23-5.17-6.68,1.59,1.13,2.25,2.07,2.25,3.44,0,2-1.6,3.38-3.9,3.38s-4.09-1.13-5.13-1.13A1.66,1.66,0,0,0,36.83,30.51Z"/><path class="cls-11" d="M44.08,17.16c-1.51-1.09-2.17-2.07-2.17-3.25,0-1.51,1.23-2.45,3-2.45,2.21,0,3.24,1,4.56,1a1.66,1.66,0,0,0,1.74-1.74,2,2,0,0,0-1.37-1.84,11.44,11.44,0,0,0-5.08-1A7.85,7.85,0,0,0,39.89,9.4,2.1,2.1,0,0,0,39.23,11C39.23,12.5,40.69,14.8,44.08,17.16Z"/><path class="cls-12" d="M16.32,20.73c0,7.38,3.39,13.12,14.12,11.52,3.43-1.78,5.88-5.41,7.57-11l1-3.24A6.37,6.37,0,0,1,37.68,14a5.94,5.94,0,0,1,1.5-4,17.09,17.09,0,0,0-3.52,6.83L34.57,20.4c-1.93,6.3-5,9.31-9.73,9.31C19.62,29.71,16.32,26.09,16.32,20.73Z"/></g></g></svg>